SplineFontDB: 3.0
FontName: LibraSans-BoldItalic
FullName: Libra Sans Bold Italic
FamilyName: Libra Sans
Weight: Bold
Copyright: Libra Sans, created by Stefan Peev, Context Ltd., is based on Liberation Sans (ver. 2.00.1), which (on its turn) is based on Arimo (designed by Steve Matteson). Libra Sans offers improved pan-European WGL character set and multilingual support for Cyrillic Script. Libra Sans is a free-to-use non-commercial font released under the SIL Open Font License \\(OFL\\).

StartChar: exclam
Encoding: 33 33 2
Width: 333
GlyphClass: 2
Flags: MW
HStem: 0 132<64 179 39 205> 668 20G<172 316 316 316>
VStem: 39 277
LayerCount: 2
Fore
SplineSet
316 688 m 1
 207 208 l 1
 94 208 l 1
 172 688 l 1
 316 688 l 1
179 0 m 1
 39 0 l 1
 64 132 l 1
 205 132 l 1
 179 0 l 1
EndSplineSet
EndChar

StartChar: quotedbl
Encoding: 34 34 3
Width: 474
GlyphClass: 2
Flags: MW
HStem: 438 250<142 214 107 275 350 422 142 315>
VStem: 107 377<438 688>
LayerCount: 2
Fore
SplineSet
484 688 m 1
 422 438 l 1
 315 438 l 1
 350 688 l 1
 484 688 l 1
275 688 m 1
 214 438 l 1
 107 438 l 1
 142 688 l 1
 275 688 l 1
EndSplineSet
EndChar

StartChar: numbersign
Encoding: 35 35 4
Width: 556
GlyphClass: 2
Flags: MW
HStem: 0 21G<69 144 69 69 293 370 293 293> 186 73<32 107 32 124 199 333 32 183 425 530> 421 72<57 158 57 173 57 234 249 384 475 555>
VStem: 32 523<186 421 259 421>
LayerCount: 2
Fore
SplineSet
555 421 m 1
 458 421 l 1
 425 259 l 1
 530 259 l 1
 530 186 l 1
 410 186 l 1
 370 0 l 1
 293 0 l 1
 333 186 l 1
 183 186 l 1
 144 0 l 1
 69 0 l 1
 107 186 l 1
 32 186 l 1
 32 259 l 1
 124 259 l 1
 158 421 l 1
 57 421 l 1
 57 493 l 1
 173 493 l 1
 214 681 l 1
 289 681 l 1
 249 493 l 1
 398 493 l 1
 439 681 l 1
 516 681 l 1
 475 493 l 1
 555 493 l 1
 555 421 l 1
384 421 m 1
 234 421 l 1
 199 259 l 1
 350 259 l 1
 384 421 l 1
EndSplineSet
EndChar

StartChar: dollar
Encoding: 36 36 5
Width: 556
GlyphClass: 2
Flags: MW
HStem: 11 102<187.5 197> 581 96<380 381.5> 583 98<277 309>
VStem: -5 128<179 199> 70 131<475 482> 396 131<174.5 226.5>
LayerCount: 2
Fore
SplineSet
527 231 m 0xac
 527 92 436 18 252 10 c 1
 236 -74 l 1
 181 -74 l 1
 197 11 l 1
 82 11 2 78 -5 179 c 1
 123 199 l 1
 127 142 158 113 217 113 c 1xb4
 253 302 l 1
 136 331 70 395 70 482 c 0
 65 601 174 681 328 681 c 1
 340 742 l 1
 394 740 l 1xac
 380 677 l 1
 485 677 557 623 565 532 c 1
 438 504 l 1
 429 555 401 581 362 581 c 1xcc
 329 409 l 1
 465 376 527 320 527 231 c 0xac
396 202 m 0
 396 251 369 275 306 290 c 1
 271 113 l 1
 346 113 396 147 396 202 c 0
201 491 m 0
 201 459 219 441 276 421 c 1
 309 583 l 1
 245 583 201 544 201 491 c 0
EndSplineSet
EndChar

StartChar: percent
Encoding: 37 37 6
Width: 889
GlyphClass: 2
Flags: MW
HStem: -7 78<631 670.5 631 692.5> 0 21G<141 237 141 141> 256 78<187 226.5 187 248.5> 357 74<697.5 725.5> 620 74<253.5 281.5> 668 20G<671 769 769 769>
VStem: 55 104<380.5 416 380.5 425.5> 313 104<539.5 574.5> 499 104<117.5 153 117.5 161.5> 757 104<276.5 311.5>
LayerCount: 2
Fore
SplineSet
267 694 m 0xabc0
 364 694 417 640 417 543 c 0
 417 516 413 488 405 457 c 0
 377 325 298 256 199 256 c 0
 106 256 55 314 55 411 c 0
 55 440 59 468 66 496 c 0
 93 628 160 694 267 694 c 0xabc0
266 620 m 0
 241 620 221 610 206 591 c 0
 191 572 180 542 171 501 c 0
 163 460 159 428 159 404 c 0
 159 357 173 334 201 334 c 0
 252 334 283 376 299 461 c 0
 308 497 313 527 313 552 c 0
 313 597 297 620 266 620 c 0
710 431 m 0xb7c0
 809 431 861 377 861 280 c 0
 861 253 857 224 849 193 c 0
 820 61 742 -7 643 -7 c 0
 550 -7 499 51 499 147 c 0
 499 176 503 205 510 232 c 0
 537 365 604 431 710 431 c 0xb7c0
710 357 m 0
 685 357 665 347 650 327 c 0
 635 308 624 278 615 237 c 0
 607 197 603 165 603 141 c 0
 603 94 617 71 645 71 c 0
 696 71 726 113 743 198 c 0
 752 233 757 264 757 289 c 0
 757 334 741 357 710 357 c 0
769 688 m 1
 237 0 l 1
 141 0 l 1x6bc0
 671 688 l 1
 769 688 l 1
EndSplineSet
EndChar

StartChar: ampersand
Encoding: 38 38 7
Width: 722
GlyphClass: 2
Flags: MW
HStem: -10 93<213 255> -6 102<541.5 613.5> 609 83<389.5 436.5>
VStem: 24 124<148 202.5 148 223.5> 215 111<495 539.5 495 562> 479 109<551.5 574.5>
LayerCount: 2
Fore
SplineSet
24 173 m 0xbc
 24 274 93 348 232 396 c 1
 223 427 215 473 215 506 c 0
 215 618 295 692 424 692 c 0
 527 692 588 646 588 566 c 0
 588 537 580 510 565 487 c 0
 550 464 529 443 501 424 c 0
 474 405 426 382 359 355 c 1
 373 316 386 285 398 262 c 0
 411 239 426 216 443 193 c 1
 486 239 525 298 558 371 c 1
 649 331 l 1
 620 263 568 183 513 127 c 1
 538 106 568 96 603 96 c 0
 624 96 642 99 657 104 c 1
 638 5 l 1
 617 -2 594 -6 570 -6 c 0
 513 -6 464 13 421 51 c 1x7c
 398 33 378 20 361 13 c 0
 328 -2 283 -10 227 -10 c 0
 95 -10 24 54 24 173 c 0xbc
241 83 m 0
 281 83 325 99 354 122 c 1
 313 175 281 237 256 308 c 1
 176 272 148 229 148 176 c 0
 148 120 185 83 241 83 c 0
326 508 m 0
 326 482 329 459 335 438 c 1
 382 455 413 469 429 479 c 0
 462 500 479 525 479 558 c 0
 479 591 456 609 417 609 c 0
 362 609 326 571 326 508 c 0
EndSplineSet
EndChar

StartChar: quotesingle
Encoding: 39 39 8
Width: 238
GlyphClass: 2
Flags: MW
HStem: 438 250<132 204 97 265> 668 20G<132 265 265 265>
VStem: 97 168
LayerCount: 2
Fore
SplineSet
265 688 m 1x60
 204 438 l 1
 97 438 l 1xa0
 132 688 l 1
 265 688 l 1x60
EndSplineSet
EndChar

StartChar: parenleft
Encoding: 40 40 9
Width: 333
GlyphClass: 2
Flags: MW
HStem: -208 21G<108 243 108 108>
VStem: 36 135<79 251.5 72 263>
LayerCount: 2
Fore
SplineSet
290 725 m 1
 427 725 l 1
 256 562 171 366 171 137 c 0
 171 7 195 -108 243 -208 c 1
 108 -208 l 1
 60 -105 36 13 36 145 c 0
 36 381 123 582 290 725 c 1
EndSplineSet
EndChar

StartChar: parenright
Encoding: 41 41 10
Width: 333
GlyphClass: 2
Flags: MW
HStem: -208 21G<-88 49 -88 -88>
VStem: 168 136<277.5 422.5>
LayerCount: 2
Fore
SplineSet
49 -208 m 1
 -88 -208 l 1
 83 -41 168 160 168 395 c 0
 168 450 161 507 148 566 c 0
 135 625 118 678 96 725 c 1
 225 725 l 1
 278 620 304 508 304 387 c 0
 304 143 214 -64 49 -208 c 1
EndSplineSet
EndChar

StartChar: asterisk
Encoding: 42 42 11
Width: 389
GlyphClass: 2
Flags: MW
HStem: 668 20G<184 289 289 289>
VStem: 188 96
LayerCount: 2
Fore
SplineSet
289 688 m 1
 280 554 l 1
 395 605 l 1
 428 509 l 1
 306 479 l 1
 397 375 l 1
 307 316 l 1
 236 439 l 1
 163 316 l 1
 72 376 l 1
 165 479 l 1
 43 509 l 1
 76 605 l 1
 193 554 l 1
 184 688 l 1
 289 688 l 1
EndSplineSet
EndChar

StartChar: plus
Encoding: 43 43 12
Width: 584
GlyphClass: 2
Flags: MW
HStem: 278 109<61 256 61 256 366 563>
VStem: 256 110<79 278 79 278 387 586>
LayerCount: 2
Fore
SplineSet
563 278 m 1
 366 278 l 1
 366 79 l 1
 256 79 l 1
 256 278 l 1
 61 278 l 1
 61 387 l 1
 256 387 l 1
 256 586 l 1
 366 586 l 1
 366 387 l 1
 563 387 l 1
 563 278 l 1
EndSplineSet
EndChar

StartChar: comma
Encoding: 44 44 13
Width: 278
GlyphClass: 2
Flags: MW
HStem: 0 149<51 85 22 192>
VStem: -10 202
LayerCount: 2
Fore
SplineSet
81 -155 m 1
 -10 -155 l 1
 41 -104 77 -48 85 0 c 1
 22 0 l 1
 51 149 l 1
 192 149 l 1
 169 32 l 2
 154 -45 128 -103 81 -155 c 1
EndSplineSet
EndChar

StartChar: hyphen
Encoding: 45 45 14
Width: 333
GlyphClass: 2
Flags: MW
HStem: 200 119<50 281 27 304>
VStem: 27 277<200 319>
LayerCount: 2
Fore
SplineSet
281 200 m 1
 27 200 l 1
 50 319 l 1
 304 319 l 1
 281 200 l 1
EndSplineSet
EndChar

StartChar: period
Encoding: 46 46 15
Width: 278
GlyphClass: 2
Flags: MW
HStem: 0 149<51 164 22 192>
VStem: 22 170<0 149>
LayerCount: 2
Fore
SplineSet
164 0 m 1
 22 0 l 1
 51 149 l 1
 192 149 l 1
 164 0 l 1
EndSplineSet
EndChar

StartChar: slash
Encoding: 47 47 16
Width: 278
GlyphClass: 2
Flags: MW
HStem: -20 745<-37 366 -37 366>
VStem: -37 403
LayerCount: 2
Fore
SplineSet
81 -20 m 1
 -37 -20 l 1
 250 725 l 1
 366 725 l 1
 81 -20 l 1
EndSplineSet
EndChar

StartChar: zero
Encoding: 48 48 17
Width: 556
GlyphClass: 2
Flags: MW
HStem: -10 108<220.5 262 220.5 308> 591 107<311 363.5>
VStem: 42 133<168 216.5 168 244.5> 413 133<463.5 515>
LayerCount: 2
Fore
SplineSet
354 698 m 0
 482 698 546 622 546 471 c 0
 546 434 540 385 528 325 c 0
 481 102 383 -10 233 -10 c 0
 104 -10 42 66 42 222 c 0
 42 267 49 323 63 390 c 0
 78 457 98 513 123 558 c 0
 175 650 249 698 354 698 c 0
243 98 m 0
 281 98 311 115 334 150 c 0
 357 185 376 242 391 320 c 0
 406 398 413 450 413 477 c 0
 413 553 388 591 339 591 c 0
 283 591 251 562 226 494 c 0
 214 460 202 410 191 343 c 0
 180 276 175 230 175 203 c 0
 175 133 198 98 243 98 c 0
EndSplineSet
EndChar

StartChar: one
Encoding: 49 49 18
Width: 556
GlyphClass: 2
Flags: MW
HStem: 0 113<37 208 345 481 16 208> 668 20G<325 457 457 457>
VStem: 16 486<0 113>
LayerCount: 2
Fore
SplineSet
481 0 m 1
 16 0 l 1
 37 113 l 1
 208 113 l 1
 295 563 l 1
 109 458 l 1
 132 576 l 1
 325 688 l 1
 457 688 l 1
 345 113 l 1
 502 113 l 1
 481 0 l 1
EndSplineSet
EndChar

StartChar: two
Encoding: 50 50 19
Width: 556
GlyphClass: 2
Flags: MW
HStem: 0 113<167 465> 508 20G<87 87> 589 109<297.5 352.5>
VStem: 405 141<513.5 542.5>
LayerCount: 2
Fore
SplineSet
465 0 m 1
 -16 0 l 1
 2 95 l 1
 18 123 36 148 57 171 c 0
 78 194 101 216 126 237 c 0
 151 258 192 290 251 331 c 0
 299 364 332 390 349 407 c 0
 385 443 405 479 405 519 c 0
 405 566 379 589 326 589 c 0
 269 589 234 562 217 499 c 1
 87 528 l 1
 122 644 206 698 335 698 c 0
 472 698 546 641 546 529 c 0
 546 498 539 468 525 439 c 0
 512 411 491 384 463 357 c 0
 436 330 391 296 330 255 c 0
 245 196 196 156 167 113 c 1
 487 113 l 1
 465 0 l 1
EndSplineSet
EndChar

StartChar: three
Encoding: 51 51 20
Width: 556
GlyphClass: 2
Flags: MW
HStem: -10 111<220 250> 294 111<226 256 204 261> 589 109<298.5 355>
VStem: 364 139<204 233.5> 406 139<479.5 536.5>
LayerCount: 2
Fore
SplineSet
226 405 m 1xf0
 261 405 l 2
 358 405 406 444 406 513 c 0
 406 560 381 589 329 589 c 0
 268 589 230 559 213 499 c 1
 83 524 l 1
 116 640 200 698 334 698 c 0
 467 698 545 635 545 530 c 0xe8
 545 429 477 363 369 354 c 1
 368 352 l 1
 456 339 503 285 503 204 c 0
 505 83 397 -14 250 -10 c 1
 102 -10 19 52 8 167 c 1
 146 186 l 1
 153 127 184 101 256 101 c 0
 324 101 364 139 364 203 c 0
 364 264 328 294 256 294 c 2
 204 294 l 1
 226 405 l 1xf0
EndSplineSet
EndChar

StartChar: four
Encoding: 52 52 21
Width: 556
GlyphClass: 2
Flags: MW
HStem: 0 21G<270 400 270 270> 140 102<126 296 447 519> 589 99 668 20G<354 534 534 534>
VStem: -17 556<140 242>
LayerCount: 2
Fore
SplineSet
519 140 m 1xd8
 427 140 l 1
 400 0 l 1
 270 0 l 1
 296 140 l 1
 -17 140 l 1
 3 241 l 1
 354 688 l 1
 534 688 l 1
 447 242 l 1
 539 242 l 1
 519 140 l 1xd8
391 589 m 1xe8
 376 564 356 536 333 506 c 2
 126 242 l 1
 316 242 l 1
 366 498 l 2
 372 527 380 558 391 589 c 1xe8
EndSplineSet
EndChar

StartChar: five
Encoding: 53 53 22
Width: 556
GlyphClass: 2
Flags: MW
HStem: -10 111<218.5 289.5 218.5 323> 345 111<307.5 317.5> 575 113<257 547 257 257>
VStem: 380 140<195.5 271.5>
LayerCount: 2
Fore
SplineSet
55 301 m 1
 154 688 l 1
 568 688 l 1
 547 575 l 1
 257 575 l 1
 214 412 l 1
 238 434 276 456 339 456 c 0
 447 456 520 377 520 253 c 0
 520 94 409 -10 237 -10 c 0
 108 -10 27 49 10 161 c 1
 148 183 l 1
 160 122 188 101 249 101 c 0
 330 101 380 154 380 237 c 0
 380 306 347 345 288 345 c 0
 248 345 215 330 189 301 c 1
 55 301 l 1
EndSplineSet
EndChar

StartChar: six
Encoding: 54 54 23
Width: 556
GlyphClass: 2
Flags: MW
HStem: -10 108<242.5 260> 342 101<320.5 326.5> 590 108<364 378>
VStem: 46 134<175 238> 387 139<260 275.5>
LayerCount: 2
Fore
SplineSet
260 -10 m 0
 124 -10 46 81 46 238 c 0
 42 501 184 704 364 698 c 0
 481 698 550 643 562 540 c 1
 432 520 l 1
 423 568 400 590 356 590 c 0
 281 590 223 516 198 364 c 1
 233 411 287 443 354 443 c 0
 461 443 526 373 526 260 c 0
 529 114 412 -14 260 -10 c 0
180 209 m 0
 180 141 213 98 272 98 c 0
 343 98 387 155 387 244 c 0
 387 307 353 342 300 342 c 0
 232 342 180 288 180 209 c 0
EndSplineSet
EndChar

StartChar: seven
Encoding: 55 55 24
Width: 556
GlyphClass: 2
Flags: MW
HStem: 0 21G<85 230 85 85> 575 113<70 595 92 436>
VStem: 70 525<575 688>
LayerCount: 2
Fore
SplineSet
70 575 m 1
 92 688 l 1
 595 688 l 1
 574 579 l 1
 495 484 l 2
 410 385 349 300 312 229 c 0
 275 158 247 82 230 0 c 1
 85 0 l 1
 130 237 268 391 436 575 c 1
 70 575 l 1
EndSplineSet
EndChar

StartChar: eight
Encoding: 56 56 25
Width: 556
GlyphClass: 2
Flags: MW
HStem: -10 97<222.5 289.5 222.5 325> 313 97<289.5 304> 602 96<300.5 360>
VStem: 13 142<153.5 223.5 153.5 224> 97 135<478 530.5 470 571.5> 371 141<177 247.5> 416 139<487 547.5>
LayerCount: 2
Fore
SplineSet
345 698 m 0xea
 474 698 555 633 555 533 c 0xf2
 555 441 495 376 400 363 c 1
 400 361 l 1
 472 340 512 284 512 211 c 0
 512 75 409 -10 241 -10 c 0
 96 -10 13 59 13 176 c 0xf4
 13 272 77 337 188 360 c 1
 188 362 l 1
 129 389 97 442 97 514 c 0
 97 629 193 698 345 698 c 0xea
316 410 m 0
 377 410 416 451 416 520 c 0
 416 575 388 602 332 602 c 0
 269 602 232 563 232 498 c 0
 232 442 263 410 316 410 c 0
274 313 m 0xf4
 198 313 155 263 155 184 c 0
 155 123 191 87 254 87 c 0
 325 87 371 137 371 217 c 0
 371 278 334 313 274 313 c 0xf4
EndSplineSet
EndChar

StartChar: nine
Encoding: 57 57 26
Width: 556
GlyphClass: 2
Flags: MW
HStem: -10 109<219 280.5> 246 101<271.5 278> 591 107<338 356.5>
VStem: 72 139<411.5 436> 417 135<447.5 502.5 439 521>
LayerCount: 2
Fore
SplineSet
399 319 m 1
 356 268 312 246 244 246 c 0
 140 246 72 321 72 436 c 0
 68 582 190 701 338 698 c 0
 403 698 455 677 494 635 c 0
 533 594 552 538 552 467 c 0
 552 411 544 352 528 289 c 0
 512 226 490 172 461 127 c 0
 405 36 327 -10 234 -10 c 0
 115 -10 42 48 23 152 c 1
 157 175 l 1
 166 124 195 99 243 99 c 0
 319 99 371 172 399 319 c 1
417 493 m 0
 417 549 382 591 331 591 c 0
 256 591 211 532 211 439 c 0
 211 384 245 347 298 347 c 0
 373 347 417 402 417 493 c 0
EndSplineSet
EndChar

StartChar: colon
Encoding: 58 58 27
Width: 333
GlyphClass: 2
Flags: MW
HStem: 0 137<70 184 43 211> 367 138<142 255 115 282>
VStem: 43 239
LayerCount: 2
Fore
SplineSet
255 367 m 1
 115 367 l 1
 142 505 l 1
 282 505 l 1
 255 367 l 1
184 0 m 1
 43 0 l 1
 70 137 l 1
 211 137 l 1
 184 0 l 1
EndSplineSet
EndChar

StartChar: semicolon
Encoding: 59 59 28
Width: 333
GlyphClass: 2
Flags: MW
HStem: 0 137<70 106 43 211> 367 138<142 255 115 282>
VStem: 11 271
LayerCount: 2
Fore
SplineSet
255 367 m 1
 115 367 l 1
 142 505 l 1
 282 505 l 1
 255 367 l 1
101 -155 m 1
 11 -155 l 1
 62 -104 98 -48 106 0 c 1
 43 0 l 1
 70 137 l 1
 211 137 l 1
 190 32 l 2
 175 -45 150 -102 101 -155 c 1
EndSplineSet
EndChar

StartChar: less
Encoding: 60 60 29
Width: 584
GlyphClass: 2
Flags: MW
HStem: 61 539<562 562>
VStem: 61 94<330 330 330 409 330 409>
LayerCount: 2
Fore
SplineSet
562 61 m 1
 61 252 l 1
 61 409 l 1
 562 600 l 1
 562 489 l 1
 155 330 l 1
 562 172 l 1
 562 61 l 1
EndSplineSet
EndChar

StartChar: equal
Encoding: 61 61 30
Width: 584
GlyphClass: 2
Flags: MW
HStem: 142 108<60 562 60 562> 411 109<60 562 60 562>
VStem: 60 502<142 250 142 250 411 520 142 520>
LayerCount: 2
Fore
SplineSet
562 411 m 1
 60 411 l 1
 60 520 l 1
 562 520 l 1
 562 411 l 1
562 142 m 1
 60 142 l 1
 60 250 l 1
 562 250 l 1
 562 142 l 1
EndSplineSet
EndChar

StartChar: greater
Encoding: 62 62 31
Width: 584
GlyphClass: 2
Flags: MW
HStem: 61 539<61 61>
VStem: 467 95<330 330>
LayerCount: 2
Fore
SplineSet
562 252 m 1
 61 61 l 1
 61 172 l 1
 467 330 l 1
 61 489 l 1
 61 600 l 1
 562 409 l 1
 562 252 l 1
EndSplineSet
EndChar

StartChar: question
Encoding: 63 63 32
Width: 611
GlyphClass: 2
Flags: MW
HStem: 0 132<176 292 151 317> 586 112<319 388.5>
VStem: 452 138<510.5 535.5>
LayerCount: 2
Fore
SplineSet
364 698 m 0
 503 698 590 633 590 525 c 0
 590 496 584 469 572 446 c 0
 560 423 543 402 520 382 c 0
 498 363 462 339 411 310 c 0
 386 293 368 281 359 272 c 0
 340 255 329 236 325 208 c 1
 195 208 l 1
 200 233 207 255 217 274 c 0
 227 293 240 309 255 324 c 0
 271 339 298 359 337 383 c 0
 427 438 452 465 452 515 c 0
 452 556 421 586 356 586 c 0
 282 586 237 555 220 492 c 1
 90 512 l 1
 128 636 219 698 364 698 c 0
292 0 m 1
 151 0 l 1
 176 132 l 1
 317 132 l 1
 292 0 l 1
EndSplineSet
EndChar

StartChar: at
Encoding: 64 64 33
Width: 975
GlyphClass: 2
Flags: MW
HStem: -144 71<465 513 465 516.5> 51 67<697 698> 472 66<517 543.5> 507 20G<668 744 744 744> 656 69<511 644.5>
VStem: 73 79<240 286> 273 81<202.5 239> 605 64<108.5 174 167 167> 859 74<369 453.5>
LayerCount: 2
Fore
SplineSet
933 369 m 0xef80
 936 191 826 47 698 51 c 0
 638 51 605 82 605 135 c 0
 605 147 606 158 608 167 c 1
 605 167 l 1
 589 133 565 105 532 83 c 0
 500 62 467 51 434 51 c 0
 331 51 273 120 273 239 c 0
 270 397 379 543 517 538 c 0
 580 538 623 510 646 453 c 1
 649 453 l 1xef80
 668 527 l 1
 744 527 l 1xdf80
 687 280 l 2
 675 224 669 185 669 163 c 0
 669 130 687 118 707 118 c 0
 787 118 859 231 859 368 c 0
 859 539 739 656 550 656 c 0
 472 656 403 639 343 604 c 0
 224 536 152 400 152 240 c 0
 151 48 278 -77 465 -73 c 0
 561 -73 657 -48 753 2 c 1
 783 -57 l 1
 674 -120 571 -144 462 -144 c 0
 233 -148 71 12 73 240 c 0
 73 332 94 415 135 490 c 0
 218 639 370 725 549 725 c 0
 789 725 933 582 933 369 c 0xef80
617 367 m 0
 617 428 574 472 513 472 c 0
 482 472 455 462 431 441 c 0
 383 401 354 319 354 240 c 0
 354 165 385 120 450 120 c 0
 493 120 535 148 567 199 c 0
 583 225 595 254 604 287 c 0
 613 320 617 347 617 367 c 0
EndSplineSet
EndChar

StartChar: A
Encoding: 65 65 34
Width: 722
GlyphClass: 2
Flags: MW
HStem: 0 21G<-21 123 -21 -21 507 650 507 507> 176 108<276 469 276 480 218 469> 582 106 668 20G<364 534 534 534>
VStem: -21 671<0 0>
LayerCount: 2
Fore
SplineSet
650 0 m 1xd8
 507 0 l 1
 480 176 l 1
 218 176 l 1
 123 0 l 1
 -21 0 l 1
 364 688 l 1
 534 688 l 1
 650 0 l 1xd8
428 582 m 1xe8
 421 561 405 527 380 479 c 2
 276 284 l 1
 469 284 l 1
 437 505 l 2
 431 549 428 575 428 582 c 1xe8
EndSplineSet
EndChar

StartChar: B
Encoding: 66 66 35
Width: 722
GlyphClass: 2
Flags: MW
HStem: 0 107<182 342 342 362> 304 107<221 385 241 382> 581 107<274 274 274 421>
VStem: 523 145<175 242.5> 542 143<484.5 533>
LayerCount: 2
Fore
SplineSet
18 0 m 1xf0
 151 688 l 1
 437 688 l 2
 600 688 685 633 685 529 c 0xe8
 685 440 630 381 527 360 c 1
 615 345 668 289 668 210 c 0
 668 73 566 0 362 0 c 2
 18 0 l 1xf0
274 581 m 1
 241 411 l 1
 385 411 l 2
 498 411 542 439 542 507 c 0
 542 559 508 581 421 581 c 2
 274 581 l 1
221 304 m 1
 182 107 l 1
 342 107 l 2
 478 107 523 137 523 213 c 0xf0
 523 272 482 304 382 304 c 2
 221 304 l 1
EndSplineSet
EndChar

StartChar: C
Encoding: 67 67 36
Width: 722
GlyphClass: 2
Flags: MW
HStem: -10 113<305 400.5 305 421> 585 113<453 486.5>
VStem: 49 147<223.5 278>
LayerCount: 2
Fore
SplineSet
196 280 m 0
 196 167 253 103 357 103 c 0
 444 103 512 145 561 229 c 1
 672 172 l 1
 603 51 495 -10 347 -10 c 0
 159 -10 49 104 49 278 c 0
 46 525 218 703 453 698 c 0
 602 698 701 634 734 507 c 1
 600 472 l 1
 581 541 525 585 448 585 c 0
 369 585 308 558 263 503 c 0
 218 448 196 374 196 280 c 0
EndSplineSet
EndChar

StartChar: D
Encoding: 68 68 37
Width: 722
GlyphClass: 2
Flags: MW
HStem: 0 111<183 295 295 300> 577 111<273 273 273 358 358 359>
VStem: 559 135<355.5 449.5>
LayerCount: 2
Fore
SplineSet
151 688 m 1
 358 688 l 2
 575 688 694 585 694 394 c 0
 694 317 678 249 645 190 c 0
 581 73 452 0 300 0 c 2
 18 0 l 1
 151 688 l 1
273 577 m 1
 183 111 l 1
 295 111 l 2
 454 111 559 218 559 388 c 0
 559 511 488 577 359 577 c 2
 273 577 l 1
EndSplineSet
EndChar

StartChar: E
Encoding: 69 69 38
Width: 667
GlyphClass: 2
Flags: MW
HStem: 0 111<183 578> 292 112<240 585 218 607> 577 111<273 670 273 273>
VStem: 18 674
LayerCount: 2
Fore
SplineSet
578 0 m 1
 18 0 l 1
 151 688 l 1
 692 688 l 1
 670 577 l 1
 273 577 l 1
 240 404 l 1
 607 404 l 1
 585 292 l 1
 218 292 l 1
 183 111 l 1
 600 111 l 1
 578 0 l 1
EndSplineSet
EndChar

StartChar: F
Encoding: 70 70 39
Width: 611
GlyphClass: 2
Flags: MW
HStem: 0 21G<18 161 18 18> 252 112<232 537 210 558> 577 111<273 611 273 273>
VStem: 18 614
LayerCount: 2
Fore
SplineSet
611 577 m 1
 273 577 l 1
 232 364 l 1
 558 364 l 1
 537 252 l 1
 210 252 l 1
 161 0 l 1
 18 0 l 1
 151 688 l 1
 632 688 l 1
 611 577 l 1
EndSplineSet
EndChar

StartChar: G
Encoding: 71 71 40
Width: 778
GlyphClass: 2
Flags: MW
HStem: -9 112<316.5 408.5 316.5 423.5> 261 102<435 583 416 735> 585 113<460 493.5>
VStem: 49 146<238.5 285>
LayerCount: 2
Fore
SplineSet
361 -9 m 0
 264 -9 187 17 132 68 c 0
 77 120 49 192 49 285 c 0
 46 529 216 702 460 698 c 0
 608 698 712 628 747 507 c 1
 609 469 l 1
 590 542 535 585 452 585 c 0
 295 585 195 467 195 289 c 0
 195 173 260 103 373 103 c 0
 444 103 513 121 561 150 c 1
 583 261 l 1
 416 261 l 1
 435 363 l 1
 735 363 l 1
 684 85 l 1
 581 16 486 -9 361 -9 c 0
EndSplineSet
EndChar

StartChar: H
Encoding: 72 72 41
Width: 722
GlyphClass: 2
Flags: MW
HStem: 0 21G<18 161 18 18 467 605 467 467> 295 119<242 524 219 547> 668 20G<151 295 295 295 601 739 739 739>
VStem: 18 721<0 688>
LayerCount: 2
Fore
SplineSet
605 0 m 1
 467 0 l 1
 524 295 l 1
 219 295 l 1
 161 0 l 1
 18 0 l 1
 151 688 l 1
 295 688 l 1
 242 414 l 1
 547 414 l 1
 601 688 l 1
 739 688 l 1
 605 0 l 1
EndSplineSet
EndChar

StartChar: I
Encoding: 73 73 42
Width: 278
GlyphClass: 2
Flags: MW
HStem: 0 21G<18 161 18 18> 668 20G<151 295 295 295>
VStem: 18 277
LayerCount: 2
Fore
SplineSet
161 0 m 1
 18 0 l 1
 151 688 l 1
 295 688 l 1
 161 0 l 1
EndSplineSet
EndChar

StartChar: J
Encoding: 74 74 43
Width: 556
GlyphClass: 2
Flags: MW
HStem: -10 113<217.5 244 217.5 304.5> 575 113<292 408 271 573>
VStem: 12 561<185 688>
LayerCount: 2
Fore
SplineSet
234 -10 m 0
 111 -10 37 50 12 185 c 1
 143 213 l 1
 158 140 191 103 244 103 c 1
 296 108 322 126 338 215 c 2
 408 575 l 1
 271 575 l 1
 292 688 l 1
 573 688 l 1
 479 207 l 2
 450 56 375 -10 234 -10 c 0
EndSplineSet
EndChar

StartChar: K
Encoding: 75 75 44
Width: 722
GlyphClass: 2
Flags: MW
HStem: 0 21G<18 160 18 18 486 645 486 486> 668 20G<151 295 295 295 603 783 783 783>
VStem: 18 765<0 688>
LayerCount: 2
Fore
SplineSet
645 0 m 1
 486 0 l 1
 313 313 l 1
 209 252 l 1
 160 0 l 1
 18 0 l 1
 151 688 l 1
 295 688 l 1
 231 376 l 1
 603 688 l 1
 783 688 l 1
 418 387 l 1
 645 0 l 1
EndSplineSet
EndChar

StartChar: L
Encoding: 76 76 45
Width: 611
GlyphClass: 2
Flags: MW
HStem: 0 111<183 530> 668 20G<151 295 295 295>
VStem: 18 534<0 111>
LayerCount: 2
Fore
SplineSet
530 0 m 1
 18 0 l 1
 151 688 l 1
 295 688 l 1
 183 111 l 1
 552 111 l 1
 530 0 l 1
EndSplineSet
EndChar

StartChar: M
Encoding: 77 77 46
Width: 833
GlyphClass: 2
Flags: MW
HStem: 0 21G<18 146 18 18 316 418 316 316 589 717 589 589> 589 99<250 250 709 709>
VStem: 18 833<0 688>
LayerCount: 2
Fore
SplineSet
717 0 m 1
 589 0 l 1
 673 432 l 2
 682 474 694 526 709 589 c 1
 675 515 l 2
 650 458 631 419 620 398 c 2
 418 0 l 1
 316 0 l 1
 270 400 l 1
 250 589 l 1
 241 510 234 458 229 433 c 2
 146 0 l 1
 18 0 l 1
 151 688 l 1
 344 688 l 1
 387 303 l 1
 399 168 l 1
 432 239 l 2
 442 260 518 410 659 688 c 1
 851 688 l 1
 717 0 l 1
EndSplineSet
EndChar

StartChar: N
Encoding: 78 78 47
Width: 722
GlyphClass: 2
Flags: MW
HStem: 0 21G<18 146 18 18 432 605 432 432> 0 131<506 506 506 605 432 506> 552 136<249 249> 668 20G<151 322 322 322 611 739 739 739>
VStem: 18 721<0 688>
LayerCount: 2
Fore
SplineSet
605 0 m 1x98
 432 0 l 1
 249 552 l 1xa8
 242 499 235 461 230 436 c 2
 146 0 l 1
 18 0 l 1
 151 688 l 1
 322 688 l 1
 506 131 l 1
 512 171 l 1x58
 526 256 l 1
 611 688 l 1
 739 688 l 1
 605 0 l 1x98
EndSplineSet
EndChar

StartChar: O
Encoding: 79 79 48
Width: 778
GlyphClass: 2
Flags: MW
HStem: -10 114<309.5 388 309.5 434.5> 584 114<419.5 500>
VStem: 49 146<224 310.5 224 318.5> 613 148<376.5 459.5 375.5 461.5>
LayerCount: 2
Fore
SplineSet
453 698 m 0
 548 698 623 673 678 622 c 0
 733 571 761 503 761 416 c 0
 761 335 744 262 709 195 c 0
 641 63 514 -10 355 -10 c 0
 165 -10 49 103 49 280 c 0
 49 357 66 428 100 494 c 0
 169 626 294 698 453 698 c 0
446 584 m 0
 393 584 348 572 311 547 c 0
 274 523 246 486 225 437 c 0
 205 388 195 337 195 284 c 0
 195 164 257 104 362 104 c 0
 414 104 459 116 496 140 c 0
 533 165 562 201 582 249 c 0
 603 297 613 349 613 404 c 0
 613 519 554 584 446 584 c 0
EndSplineSet
EndChar

StartChar: P
Encoding: 80 80 49
Width: 667
GlyphClass: 2
Flags: MW
HStem: 0 21G<18 161 18 18> 242 111<230 371 371 393 209 371> 576 112<273 273 273 401>
VStem: 522 146<445.5 507.5>
LayerCount: 2
Fore
SplineSet
151 688 m 1
 415 688 l 2
 575 688 668 611 668 482 c 0
 668 409 643 350 593 307 c 0
 544 264 477 242 393 242 c 2
 209 242 l 1
 161 0 l 1
 18 0 l 1
 151 688 l 1
273 576 m 1
 230 353 l 1
 371 353 l 2
 472 353 522 389 522 474 c 0
 522 541 480 576 401 576 c 2
 273 576 l 1
EndSplineSet
EndChar

StartChar: Q
Encoding: 81 81 50
Width: 778
GlyphClass: 2
Flags: MW
HStem: -195 100<498.5 512.5> -4 21G 584 114<419.5 500>
VStem: 49 146<224 310.5 224 318.5> 613 148<398.5 459.5 398.5 461.5>
LayerCount: 2
Fore
SplineSet
453 698 m 0
 548 698 623 673 678 622 c 0
 733 571 761 503 761 416 c 0
 761 381 758 348 751 317 c 0
 717 142 599 23 431 -4 c 1
 443 -68 469 -95 528 -95 c 0
 554 -95 578 -93 601 -88 c 1
 579 -183 l 1
 556 -191 528 -195 497 -195 c 0
 368 -195 300 -137 285 -4 c 1
 131 20 49 130 49 280 c 0
 49 357 66 428 100 494 c 0
 169 626 294 698 453 698 c 0
446 584 m 0
 393 584 348 572 311 547 c 0
 274 523 246 486 225 437 c 0
 205 388 195 337 195 284 c 0
 195 164 257 104 362 104 c 0
 414 104 459 116 496 140 c 0
 533 165 562 201 582 249 c 0
 603 297 613 349 613 404 c 0
 613 519 554 584 446 584 c 0
EndSplineSet
EndChar

StartChar: R
Encoding: 82 82 51
Width: 722
GlyphClass: 2
Flags: MW
HStem: 0 21G<18 162 18 18 493 652 493 493> 261 112<234 381 212 426> 576 112<273 451 273 273>
VStem: 569 146<464.5 513>
LayerCount: 2
Fore
SplineSet
652 0 m 1
 493 0 l 1
 381 261 l 1
 212 261 l 1
 162 0 l 1
 18 0 l 1
 151 688 l 1
 469 688 l 2
 626 688 715 612 715 491 c 0
 715 438 697 392 662 354 c 0
 627 317 579 294 519 285 c 1
 652 0 l 1
234 373 m 1
 426 373 l 2
 521 373 569 412 569 483 c 0
 569 543 526 576 451 576 c 2
 273 576 l 1
 234 373 l 1
EndSplineSet
EndChar

StartChar: S
Encoding: 83 83 52
Width: 667
GlyphClass: 2
Flags: MW
HStem: -10 108<257 359 257 397.5> 596 102<341.5 414.5>
VStem: 104 142<503.5 535> 471 141<162.5 208>
LayerCount: 2
Fore
SplineSet
293 -10 m 0
 120 -10 31 51 12 178 c 1
 153 202 l 1
 168 130 211 98 303 98 c 0
 415 98 471 130 471 195 c 0
 471 221 461 242 442 257 c 0
 423 272 384 287 326 302 c 0
 266 318 221 334 192 351 c 0
 135 386 104 434 104 506 c 0
 104 564 129 610 180 645 c 0
 231 680 299 698 384 698 c 0
 539 698 636 641 657 533 c 1
 516 500 l 1
 501 559 453 596 376 596 c 0
 295 596 246 564 246 511 c 0
 246 496 250 483 258 472 c 0
 267 461 279 452 295 444 c 0
 312 436 344 426 393 413 c 0
 444 398 482 385 507 372 c 0
 532 360 551 346 566 330 c 0
 597 299 612 259 612 207 c 0
 612 66 502 -10 293 -10 c 0
EndSplineSet
EndChar

StartChar: T
Encoding: 84 84 53
Width: 611
GlyphClass: 2
Flags: MW
HStem: 0 21G<181 325 181 181> 577 111<92 293 71 681 437 660 437 437>
VStem: 71 610<577 688>
LayerCount: 2
Fore
SplineSet
660 577 m 1
 437 577 l 1
 325 0 l 1
 181 0 l 1
 293 577 l 1
 71 577 l 1
 92 688 l 1
 681 688 l 1
 660 577 l 1
EndSplineSet
EndChar

StartChar: U
Encoding: 85 85 54
Width: 722
GlyphClass: 2
Flags: MW
HStem: -10 113<294 390 294 423.5> 668 20G<142 286 286 286 599 743 743 743>
VStem: 58 144<174.5 222 174.5 224.5>
LayerCount: 2
Fore
SplineSet
336 103 m 0
 444 103 494 148 517 264 c 2
 599 688 l 1
 743 688 l 1
 659 259 l 2
 623 76 519 -10 328 -10 c 0
 156 -10 58 70 58 210 c 0
 58 239 64 286 69 310 c 2
 142 688 l 1
 286 688 l 1
 211 292 l 2
 205 264 202 236 202 208 c 0
 202 141 252 103 336 103 c 0
EndSplineSet
EndChar

StartChar: V
Encoding: 86 86 55
Width: 667
GlyphClass: 2
Flags: MW
HStem: 0 21G<194 360 194 194> 0 116 668 20G<83 232 232 232 586 737 737 737>
VStem: 83 654<688 688>
LayerCount: 2
Fore
SplineSet
737 688 m 1xb0
 360 0 l 1
 194 0 l 1
 83 688 l 1
 232 688 l 1
 288 246 l 2
 293 198 297 155 299 116 c 1
 314 151 327 178 336 198 c 0x70
 345 218 429 381 586 688 c 1
 737 688 l 1xb0
EndSplineSet
EndChar

StartChar: W
Encoding: 87 87 56
Width: 944
GlyphClass: 2
Flags: MW
HStem: 0 121<231 231 231 290 117 231> 545 143<517 517> 668 20G<73 210 210 210 469 624 624 624 873 1015 1015 1015>
VStem: 519 115
LayerCount: 2
Fore
SplineSet
1015 688 m 1xb0
 704 0 l 1
 533 0 l 1
 520 396 l 1
 518 504 l 1
 517 545 l 1xd0
 498 493 483 454 472 428 c 0
 462 403 401 260 290 0 c 1
 117 0 l 1
 73 688 l 1
 210 688 l 1
 228 290 l 2
 230 235 231 179 231 121 c 1
 259 191 l 1
 296 282 l 1
 469 688 l 1
 624 688 l 1
 644 121 l 1
 653 145 665 178 682 221 c 0
 699 264 763 419 873 688 c 1
 1015 688 l 1xb0
EndSplineSet
EndChar

StartChar: X
Encoding: 88 88 57
Width: 667
GlyphClass: 2
Flags: MW
HStem: 0 21G<-46 107 -46 -46 453 603 453 453> 668 20G<107 258 258 258 564 717 717 717>
VStem: -46 763<0 688>
LayerCount: 2
Fore
SplineSet
272 359 m 1
 107 688 l 1
 258 688 l 1
 368 458 l 1
 564 688 l 1
 717 688 l 1
 424 357 l 1
 603 0 l 1
 453 0 l 1
 330 260 l 1
 107 0 l 1
 -46 0 l 1
 272 359 l 1
EndSplineSet
EndChar

StartChar: Y
Encoding: 89 89 58
Width: 667
GlyphClass: 2
Flags: MW
HStem: 0 21G<210 354 210 210> 668 20G<84 227 227 227 584 742 742 742>
VStem: 84 658<688 688>
LayerCount: 2
Fore
SplineSet
408 282 m 1
 354 0 l 1
 210 0 l 1
 265 282 l 1
 84 688 l 1
 227 688 l 1
 353 393 l 1
 584 688 l 1
 742 688 l 1
 408 282 l 1
EndSplineSet
EndChar

StartChar: Z
Encoding: 90 90 59
Width: 611
GlyphClass: 2
Flags: MW
HStem: 0 113<168 528> 575 113<147 449 125 642>
VStem: -23 665
LayerCount: 2
Fore
SplineSet
550 113 m 1
 528 0 l 1
 -23 0 l 1
 -4 102 l 1
 449 575 l 1
 125 575 l 1
 147 688 l 1
 642 688 l 1
 623 588 l 1
 168 113 l 1
 550 113 l 1
EndSplineSet
EndChar

StartChar: bracketleft
Encoding: 91 91 60
Width: 333
GlyphClass: 2
Flags: MW
HStem: -208 94<121 238> 632 93<266 401 266 266>
VStem: -26 445
LayerCount: 2
Fore
SplineSet
238 -208 m 1
 -26 -208 l 1
 154 725 l 1
 419 725 l 1
 401 632 l 1
 266 632 l 1
 121 -114 l 1
 256 -114 l 1
 238 -208 l 1
EndSplineSet
EndChar

StartChar: backslash
Encoding: 92 92 61
Width: 278
GlyphClass: 2
Flags: MW
HStem: -20 745<141 170 54 260 141 141>
VStem: 54 206
LayerCount: 2
Fore
SplineSet
260 -20 m 1
 141 -20 l 1
 54 725 l 1
 170 725 l 1
 260 -20 l 1
EndSplineSet
EndChar

StartChar: bracketright
Encoding: 93 93 62
Width: 333
GlyphClass: 2
Flags: MW
HStem: -208 94<-67 68 -67 179 -85 68> 632 93<96 213 78 360>
VStem: -85 445
LayerCount: 2
Fore
SplineSet
179 -208 m 1
 -85 -208 l 1
 -67 -114 l 1
 68 -114 l 1
 213 632 l 1
 78 632 l 1
 96 725 l 1
 360 725 l 1
 179 -208 l 1
EndSplineSet
EndChar

StartChar: asciicircum
Encoding: 94 94 63
Width: 584
GlyphClass: 2
Flags: MW
HStem: 618 70<311 311>
VStem: 42 540<251 251>
LayerCount: 2
Fore
SplineSet
582 251 m 1
 470 251 l 1
 311 618 l 1
 152 251 l 1
 42 251 l 1
 232 688 l 1
 390 688 l 1
 582 251 l 1
EndSplineSet
EndChar

StartChar: underscore
Encoding: 95 95 64
Width: 556
GlyphClass: 2
Flags: MW
HStem: -122 38<-59 516 -59 516>
VStem: -59 575<-122 -84 -122 -84>
LayerCount: 2
Fore
SplineSet
516 -122 m 1
 -59 -122 l 1
 -59 -84 l 1
 516 -84 l 1
 516 -122 l 1
EndSplineSet
EndChar

StartChar: grave
Encoding: 96 96 65
Width: 333
GlyphClass: 2
Flags: MW
HStem: 578 15<291 366> 712 21<141 271>
VStem: 141 225<593 712>
LayerCount: 2
Fore
SplineSet
363 578 m 1
 291 578 l 1
 141 712 l 1
 145 733 l 1
 271 733 l 1
 366 593 l 1
 363 578 l 1
EndSplineSet
EndChar

StartChar: a
Encoding: 97 97 66
Width: 556
GlyphClass: 2
Flags: MW
HStem: -10 96<109 243.5> -5 83<403.5 501.5> 246 75<269 269 269 347 268 269> 449 89<280.5 331.5>
VStem: 5 140<136.5 186.5 136.5 196> 334 124<47.5 114.5> 373 135<388 407>
LayerCount: 2
Fore
SplineSet
436 -5 m 0x7c
 371 -5 334 25 334 70 c 0x7c
 334 82 335 92 336 101 c 1
 333 101 l 1xbc
 278 17 231 -10 155 -10 c 0
 63 -10 5 51 5 136 c 0
 5 256 82 317 269 321 c 2
 362 322 l 1
 369 353 373 375 373 386 c 0
 373 428 352 449 311 449 c 0
 250 449 223 424 211 379 c 1
 83 395 l 1
 106 488 184 538 313 538 c 0
 448 538 508 491 508 394 c 0
 508 382 504 356 497 317 c 2xba
 462 145 l 2
 459 130 458 119 458 110 c 0
 458 79 487 78 497 78 c 0
 506 78 516 79 527 82 c 1
 520 6 l 1
 493 -5 465 -5 436 -5 c 0x7c
336 201 m 2
 347 246 l 1
 268 246 l 2
 192 245 145 214 145 159 c 0
 145 114 173 86 216 86 c 0xba
 271 86 319 132 336 201 c 2
EndSplineSet
EndChar

StartChar: b
Encoding: 98 98 67
Width: 611
GlyphClass: 2
Flags: MW
HStem: -10 94<286.5 313.5 265.5 383.5> 0 21G<17 149 17 17> 443 95<377.5 389>
VStem: 439 143<327.5 358 358 365 327.5 373>
LayerCount: 2
Fore
SplineSet
417 538 m 0xb0
 521 538 582 473 582 365 c 2
 582 358 l 2
 582 297 572 236 551 173 c 0
 511 49 440 -10 327 -10 c 0
 246 -10 194 26 174 87 c 1
 173 87 l 1
 159 33 l 1xb0
 149 0 l 1
 17 0 l 1x70
 21 9 32 61 41 109 c 2
 161 725 l 1
 298 725 l 1
 257 516 l 2
 248 469 243 446 242 446 c 2
 244 446 l 1
 280 501 338 538 417 538 c 0xb0
359 443 m 0
 276 443 230 386 207 271 c 0
 202 240 199 215 199 196 c 0
 199 127 234 84 297 84 c 0
 330 84 355 94 374 115 c 0
 393 136 408 170 420 219 c 0
 433 268 439 308 439 339 c 0
 439 407 419 443 359 443 c 0
EndSplineSet
EndChar

StartChar: c
Encoding: 99 99 68
Width: 556
GlyphClass: 2
Flags: MW
HStem: -10 94<233 288.5 233 319.5> 444 94<286.5 346.5>
VStem: 31 144<160.5 207.5 160.5 229.5> 403 139<351 362>
LayerCount: 2
Fore
SplineSet
262 84 m 0
 315 84 350 119 371 186 c 1
 503 162 l 1
 468 47 385 -10 254 -10 c 0
 110 -10 31 67 31 198 c 0
 31 261 44 321 69 376 c 0
 121 488 204 538 332 538 c 0
 455 538 533 473 542 362 c 1
 403 351 l 1
 399 413 372 444 321 444 c 0
 252 444 218 402 186 281 c 0
 179 244 175 216 175 199 c 0
 175 122 204 84 262 84 c 0
EndSplineSet
EndChar

StartChar: d
Encoding: 100 100 69
Width: 611
GlyphClass: 2
Flags: MW
HStem: -10 94<225 230.5> 0 84<225 498 225 360> 444 94<302.5 324.5 230.5 349.5>
VStem: 28 145<156 204> 360 138<0 10.5>
LayerCount: 2
Fore
SplineSet
368 78 m 1xb8
 366 78 l 1
 319 18 270 -10 191 -10 c 0xb8
 91 -10 28 61 28 173 c 0
 28 235 38 296 59 355 c 0
 102 475 178 538 283 538 c 0
 366 538 418 506 437 441 c 1
 439 441 l 1
 440 454 444 480 452 521 c 2
 493 725 l 1
 628 725 l 1
 512 113 l 2
 505 76 501 39 498 0 c 1
 360 0 l 1x78
 360 21 363 47 368 78 c 1xb8
251 84 m 0
 304 84 341 106 368 153 c 0
 381 176 392 205 399 240 c 0
 407 275 411 306 411 333 c 0
 411 410 380 444 319 444 c 0
 286 444 259 433 238 410 c 0
 217 388 201 355 190 312 c 0
 179 269 173 229 173 192 c 0
 173 120 199 84 251 84 c 0
EndSplineSet
EndChar

StartChar: e
Encoding: 101 101 70
Width: 556
GlyphClass: 2
Flags: MW
HStem: -10 92<231.5 285 231.5 310.5> 232 92<191 401 191 517 175 401> 451 87<284.5 341>
VStem: 31 140<154.5 197.5 154.5 306> 403 125<351 385.5>
LayerCount: 2
Fore
SplineSet
517 232 m 1
 175 232 l 1
 172 220 171 206 171 189 c 0
 171 120 202 82 261 82 c 0
 309 82 344 110 365 165 c 1
 485 128 l 1
 436 25 369 -10 252 -10 c 0
 113 -10 31 69 31 204 c 0
 31 408 144 538 315 538 c 0
 451 538 528 465 528 337 c 0
 528 305 524 270 517 232 c 1
191 324 m 1
 401 324 l 1
 403 351 l 1
 403 420 367 451 315 451 c 0
 254 451 210 407 191 324 c 1
EndSplineSet
EndChar

StartChar: f
Encoding: 102 102 71
Width: 333
GlyphClass: 2
Flags: MW
HStem: 0 21G<36 173 36 36> 436 92<62 121 44 139 276 362> 633 92<330 352.5 285 358.5>
VStem: 36 381
LayerCount: 2
Fore
SplineSet
362 436 m 1
 258 436 l 1
 173 0 l 1
 36 0 l 1
 121 436 l 1
 44 436 l 1
 62 528 l 1
 139 528 l 1
 150 583 l 2
 170 684 229 725 341 725 c 0
 364 725 390 722 417 716 c 1
 399 628 l 1
 392 629 365 633 352 633 c 0
 308 633 292 613 284 570 c 2
 276 528 l 1
 380 528 l 1
 362 436 l 1
EndSplineSet
EndChar

StartChar: g
Encoding: 103 103 72
Width: 611
GlyphClass: 2
Flags: MW
HStem: -208 91<200.5 262.5 200.5 292.5> -4 100<147.5 260> 444 94<291.5 324.5 230.5 346.5> 508 20G<464 594 594 594>
VStem: 32 143<160.5 205 160.5 206.5>
LayerCount: 2
Fore
SplineSet
210 -208 m 0xe8
 81 -208 13 -164 -3 -69 c 1
 135 -55 l 1
 144 -96 174 -117 227 -117 c 0
 298 -117 335 -83 356 13 c 0
 363 44 368 73 372 98 c 1
 371 98 l 1
 350 69 332 49 316 36 c 0
 285 11 247 -4 198 -4 c 0
 97 -4 32 67 32 174 c 0
 32 239 42 302 63 362 c 0
 104 482 175 538 286 538 c 0xe8
 363 538 423 499 440 436 c 1
 441 436 l 1
 453 487 l 2
 459 512 463 525 464 528 c 2
 594 528 l 1
 584 488 l 1xd8
 570 417 l 1
 489 5 l 2
 458 -147 375 -208 210 -208 c 0xe8
413 335 m 0
 413 403 377 444 316 444 c 0
 267 444 237 425 214 378 c 0
 203 355 193 324 186 286 c 0
 179 248 175 217 175 193 c 0
 175 128 203 96 260 96 c 0
 347 92 416 213 413 335 c 0
EndSplineSet
EndChar

StartChar: h
Encoding: 104 104 73
Width: 611
GlyphClass: 2
Flags: MW
HStem: 0 21G<17 155 17 17 360 497 360 360> 434 104<339.5 469>
VStem: 431 138<364.5 443.5>
LayerCount: 2
Fore
SplineSet
157 725 m 1
 293 725 l 1
 255 527 l 1
 236 438 l 1
 237 438 l 1
 286 506 343 538 419 538 c 0
 519 538 569 488 569 399 c 0
 569 391 568 378 565 360 c 0
 563 342 561 328 559 319 c 2
 497 0 l 1
 360 0 l 1
 418 291 l 2
 427 331 431 358 431 371 c 0
 431 413 406 434 356 434 c 0
 323 434 293 421 265 394 c 0
 237 367 219 335 212 296 c 2
 155 0 l 1
 17 0 l 1
 157 725 l 1
EndSplineSet
EndChar

StartChar: i
Encoding: 105 105 74
Width: 278
GlyphClass: 2
Flags: MW
HStem: 0 21G<17 154 17 17> 508 20G<120 257 257 257> 624 101<158 275 138 295>
VStem: 17 278
LayerCount: 2
Fore
SplineSet
275 624 m 1
 138 624 l 1
 158 725 l 1
 295 725 l 1
 275 624 l 1
154 0 m 1
 17 0 l 1
 120 528 l 1
 257 528 l 1
 154 0 l 1
EndSplineSet
EndChar

StartChar: j
Encoding: 106 106 75
Width: 278
GlyphClass: 2
Flags: MW
HStem: -208 100<-41.5 -40 -62 19.5> 508 20G<120 257 257 257> 624 101<158 275 138 295>
VStem: -107 402
LayerCount: 2
Fore
SplineSet
275 624 m 1
 138 624 l 1
 158 725 l 1
 295 725 l 1
 275 624 l 1
-26 -208 m 0
 -57 -208 -84 -205 -107 -198 c 1
 -90 -106 l 1
 -62 -108 l 2
 -18 -108 -1 -90 11 -29 c 2
 120 528 l 1
 257 528 l 1
 142 -63 l 2
 122 -156 65 -208 -26 -208 c 0
EndSplineSet
EndChar

StartChar: k
Encoding: 107 107 76
Width: 556
GlyphClass: 2
Flags: MW
HStem: 0 21G<17 154 17 17 355 501 355 355> 508 20G<440 598 598 598>
VStem: 17 581<0 528>
LayerCount: 2
Fore
SplineSet
501 0 m 1
 355 0 l 1
 264 243 l 1
 195 206 l 1
 154 0 l 1
 17 0 l 1
 158 725 l 1
 295 725 l 1
 213 310 l 1
 440 528 l 1
 598 528 l 1
 367 322 l 1
 501 0 l 1
EndSplineSet
EndChar

StartChar: l
Encoding: 108 108 77
Width: 278
GlyphClass: 2
Flags: MW
HStem: 0 21G<17 154 17 17>
VStem: 17 278
LayerCount: 2
Fore
SplineSet
154 0 m 1
 17 0 l 1
 158 725 l 1
 295 725 l 1
 154 0 l 1
EndSplineSet
EndChar

StartChar: m
Encoding: 109 109 78
Width: 889
GlyphClass: 2
Flags: MW
HStem: 0 21G<17 155 17 17 329 465 329 329 639 639 639 775> 436 92<117 355.5> 436 102<306.5 438>
VStem: 117 133<526.5 528> 397 139 707 141<374 443.5 376 443.5>
LayerCount: 2
Fore
SplineSet
646 436 m 0xbc
 586 436 540 381 523 296 c 2
 465 0 l 1
 329 0 l 1
 389 310 l 2
 394 339 397 361 397 376 c 0
 397 416 376 436 335 436 c 0xbc
 278 436 231 384 212 295 c 2
 155 0 l 1
 17 0 l 1
 98 416 l 2
 105 447 111 484 117 528 c 1
 250 528 l 2
 250 525 248 512 245 490 c 0xdc
 242 469 239 451 236 438 c 1
 238 438 l 1
 287 514 331 538 398 538 c 0
 478 538 527 497 536 424 c 1
 588 505 637 538 708 538 c 0
 799 538 848 488 848 399 c 0
 848 378 844 352 837 319 c 2
 775 0 l 1
 639 0 l 1
 698 306 l 2
 704 335 707 358 707 374 c 2
 707 376 l 2
 706 416 686 436 646 436 c 0xbc
EndSplineSet
EndChar

StartChar: n
Encoding: 110 110 79
Width: 611
GlyphClass: 2
Flags: MW
HStem: 0 21G<17 155 17 17 360 497 360 360> 434 104<339.5 469> 508 20G<117 248 248 248>
VStem: 117 131<526.5 528> 431 138<364.5 443.5>
LayerCount: 2
Fore
SplineSet
497 0 m 1xb8
 360 0 l 1
 418 291 l 2
 427 331 431 358 431 371 c 0
 431 413 406 434 356 434 c 0
 323 434 293 421 265 394 c 0xd8
 237 367 219 335 212 296 c 2
 155 0 l 1
 17 0 l 1
 98 416 l 2
 103 441 110 479 117 528 c 1
 248 528 l 2
 248 525 246 512 243 487 c 2xb8
 236 438 l 1
 237 438 l 1
 286 506 343 538 419 538 c 0xd8
 519 538 569 488 569 399 c 0
 569 391 568 378 565 360 c 0
 563 342 561 328 559 319 c 2
 497 0 l 1xb8
EndSplineSet
EndChar

StartChar: o
Encoding: 111 111 80
Width: 611
GlyphClass: 2
Flags: MW
HStem: -10 94<242.5 261> 444 94<344 367>
VStem: 31 144<168 205> 435 144<333 363.5>
LayerCount: 2
Fore
SplineSet
579 333 m 0
 582 131 445 -13 261 -10 c 0
 120 -10 31 72 31 205 c 0
 27 400 159 540 344 538 c 0
 496 538 579 464 579 333 c 0
435 323 m 1
 435 404 401 444 333 444 c 0
 296 444 267 434 245 414 c 0
 223 395 206 365 193 325 c 0
 181 286 175 247 175 210 c 0
 175 126 209 84 276 84 c 0
 384 80 425 177 435 323 c 1
EndSplineSet
EndChar

StartChar: p
Encoding: 112 112 81
Width: 611
GlyphClass: 2
Flags: MW
HStem: -208 21G<-22 115 -22 -22> -10 94<282.5 309.5 262.5 379.5> 443 85<116 382.5> 443 95<375.5 382.5>
VStem: 111 139 434 145<332.5 373.5>
LayerCount: 2
Fore
SplineSet
355 443 m 0xdc
 274 443 225 386 204 271 c 0
 198 240 195 215 195 196 c 0
 195 127 232 84 293 84 c 0
 326 84 353 94 372 115 c 0
 391 136 406 170 417 216 c 0
 428 263 434 304 434 339 c 0
 434 408 410 443 355 443 c 0xdc
239 446 m 1
 241 446 l 1
 288 511 337 538 414 538 c 0xdc
 518 538 579 473 579 365 c 0
 579 300 569 236 548 173 c 0
 508 49 436 -10 323 -10 c 0
 242 -10 191 26 170 87 c 1
 169 87 l 1
 167 67 162 36 154 -5 c 2
 115 -208 l 1
 -22 -208 l 1
 97 407 l 1
 106 460 l 1
 116 528 l 1
 250 528 l 1
 250 523 249 511 246 490 c 0xec
 244 469 242 455 239 446 c 1
EndSplineSet
EndChar

StartChar: q
Encoding: 113 113 82
Width: 611
GlyphClass: 2
Flags: MW
HStem: -208 21G<311 448 311 311> -10 94<226.5 230> 444 94<309 325.5 231 355.5> 508 20G<461 593 593 593>
VStem: 29 145<154.5 202>
LayerCount: 2
Fore
SplineSet
436 441 m 1xe8
 438 441 l 1xe8
 447 481 454 510 461 528 c 1
 593 528 l 1
 590 519 585 498 578 463 c 2xd8
 448 -208 l 1
 311 -208 l 1
 353 3 l 1
 370 80 l 1
 368 80 l 1
 320 16 268 -10 192 -10 c 0
 93 -10 29 57 29 170 c 0
 29 234 39 296 60 355 c 0
 101 474 179 538 283 538 c 0
 368 538 409 512 436 441 c 1xe8
253 84 m 0
 336 84 383 141 404 257 c 0
 409 286 412 311 412 332 c 0
 412 407 384 444 327 444 c 0
 291 444 262 433 240 412 c 0
 219 391 202 359 191 315 c 0
 180 271 174 229 174 188 c 0
 174 121 200 84 253 84 c 0
EndSplineSet
EndChar

StartChar: r
Encoding: 114 114 83
Width: 389
GlyphClass: 2
Flags: MW
HStem: 0 21G<17 154 17 17> 424 104<116 363.5> 424 114<354 363.5> 511 20G<435 435> 531 7
VStem: 17 418 116 125
LayerCount: 2
Fore
SplineSet
435 531 m 1x8c
 412 417 l 1
 389 422 371 424 356 424 c 0xa2
 276 424 227 368 204 251 c 2
 154 0 l 1
 17 0 l 1
 96 405 l 2
 103 444 110 485 116 528 c 1
 247 528 l 1
 236 444 l 1xc2
 232 420 l 1
 234 420 l 1xa2
 282 508 324 538 384 538 c 0xa4
 399 538 416 536 435 531 c 1x8c
EndSplineSet
EndChar

StartChar: s
Encoding: 115 115 84
Width: 556
GlyphClass: 2
Flags: MW
HStem: -10 91<216.5 288 216.5 323> 446 91<268.5 329.5>
VStem: 75 127<381.5 406.5 381.5 427.5> 361 127<125.5 155.5>
LayerCount: 2
Fore
SplineSet
488 163 m 0
 488 50 403 -10 243 -10 c 0
 112 -10 38 36 11 132 c 1
 134 150 l 1
 147 101 181 81 252 81 c 0
 324 81 361 104 361 147 c 0
 361 164 354 177 340 186 c 0
 327 195 297 205 251 214 c 0
 122 243 75 294 75 375 c 0
 75 480 159 537 311 537 c 0
 446 537 506 492 522 396 c 1
 399 382 l 1
 388 427 357 446 302 446 c 0
 235 446 202 426 202 387 c 0
 202 376 205 367 211 360 c 0
 218 353 227 347 239 342 c 0
 251 337 280 329 326 318 c 0
 445 291 488 244 488 163 c 0
EndSplineSet
EndChar

StartChar: t
Encoding: 116 116 85
Width: 333
GlyphClass: 2
Flags: MW
HStem: -8 94<143.5 241.5> 436 92<60 114 42 139 269 350>
VStem: 57 137<66.5 136.5>
LayerCount: 2
Fore
SplineSet
184 -8 m 0
 103 -8 57 31 57 102 c 0
 57 125 59 151 64 179 c 2
 114 436 l 1
 42 436 l 1
 60 528 l 1
 139 528 l 1
 206 652 l 1
 292 652 l 1
 269 528 l 1
 367 528 l 1
 350 436 l 1
 250 436 l 1
 199 174 l 2
 196 156 194 142 194 131 c 0
 194 100 211 86 236 86 c 0
 247 86 264 88 289 93 c 1
 273 4 l 1
 247 -4 217 -8 184 -8 c 0
EndSplineSet
EndChar

StartChar: u
Encoding: 117 117 86
Width: 611
GlyphClass: 2
Flags: MW
HStem: -9 103<141.5 270.5> 0 21G<363 494 363 363> 508 20G<114 250 250 250 456 593 593 593>
VStem: 42 138<136 137.5> 363 131<0 1.5>
LayerCount: 2
Fore
SplineSet
114 528 m 1x78
 250 528 l 1
 192 238 l 2
 184 198 180 171 180 157 c 0
 180 115 205 94 254 94 c 0
 287 94 317 107 345 133 c 0xb8
 373 160 391 193 398 232 c 2
 456 528 l 1
 593 528 l 1
 512 113 l 2
 507 87 501 49 494 0 c 1
 363 0 l 2
 363 3 364 16 367 41 c 0x78
 370 66 373 82 375 90 c 1
 373 90 l 1
 324 21 267 -9 191 -9 c 0xb8
 92 -9 42 40 42 129 c 0
 42 146 47 192 52 209 c 2
 114 528 l 1x78
EndSplineSet
EndChar

StartChar: v
Encoding: 118 118 87
Width: 556
GlyphClass: 2
Flags: MW
HStem: 0 21G<140 304 140 140> 0 102 508 20G<54 195 195 195 454 602 602 602>
VStem: 54 548<528 528>
LayerCount: 2
Fore
SplineSet
602 528 m 1xb0
 304 0 l 1
 140 0 l 1
 54 528 l 1
 195 528 l 1
 229 233 l 1
 235 165 l 2
 238 130 240 109 240 102 c 1x70
 260 148 280 191 300 231 c 2
 454 528 l 1
 602 528 l 1xb0
EndSplineSet
EndChar

StartChar: w
Encoding: 119 119 88
Width: 778
GlyphClass: 2
Flags: MW
HStem: 0 21G<82 227 82 82 444 589 444 444> 0 125<181 181 181 227 82 181> 435 93<421 421> 508 20G<48 174 174 174 363 510 510 510 701 831 831 831>
VStem: 422 98 433 98
LayerCount: 2
Fore
SplineSet
831 528 m 1x98
 589 0 l 1
 444 0 l 1x94
 423 322 l 1
 421 435 l 1xa8
 404 388 388 350 375 321 c 2
 227 0 l 1
 82 0 l 1
 48 528 l 1
 174 528 l 1
 181 188 l 1
 181 125 l 1
 194 158 l 1
 220 218 l 1
 363 528 l 1
 510 528 l 1x58
 531 218 l 1
 533 125 l 1
 559 189 l 1x54
 701 528 l 1
 831 528 l 1x98
EndSplineSet
EndChar

StartChar: x
Encoding: 120 120 89
Width: 556
GlyphClass: 2
Flags: MW
HStem: 0 21G<-44 103 -44 -44 354 498 354 354> 508 20G<68 210 210 210 439 590 590 590>
VStem: -44 634<0 528>
LayerCount: 2
Fore
SplineSet
498 0 m 1
 354 0 l 1
 263 187 l 1
 103 0 l 1
 -44 0 l 1
 204 274 l 1
 68 528 l 1
 210 528 l 1
 295 359 l 1
 439 528 l 1
 590 528 l 1
 354 272 l 1
 498 0 l 1
EndSplineSet
EndChar

StartChar: y
Encoding: 121 121 90
Width: 556
GlyphClass: 2
Flags: MW
HStem: -208 101<27.5 45.5 12.5 73> 508 20G<55 197 197 197 451 598 598 598>
VStem: -42 640
LayerCount: 2
Fore
SplineSet
43 -208 m 0
 12 -208 -17 -205 -42 -199 c 1
 -23 -103 l 1
 -10 -106 5 -107 20 -107 c 0
 71 -107 106 -80 145 -12 c 2
 158 12 l 1
 55 528 l 1
 197 528 l 1
 231 286 l 2
 233 276 237 247 242 199 c 0
 247 151 250 126 249 123 c 2
 257 141 l 1
 325 284 l 1
 451 528 l 1
 598 528 l 1
 278 -28 l 2
 243 -82 215 -120 193 -142 c 0
 149 -187 103 -208 43 -208 c 0
EndSplineSet
EndChar

StartChar: z
Encoding: 122 122 91
Width: 500
GlyphClass: 2
Flags: MW
HStem: 0 100<176 414> 429 99<118 313 98 493>
VStem: -5 498
LayerCount: 2
Fore
SplineSet
414 0 m 1
 -5 0 l 1
 14 97 l 1
 313 429 l 1
 98 429 l 1
 118 528 l 1
 493 528 l 1
 474 430 l 1
 176 100 l 1
 434 100 l 1
 414 0 l 1
EndSplineSet
EndChar

StartChar: braceleft
Encoding: 123 123 92
Width: 389
GlyphClass: 2
Flags: MW
HStem: -208 94<150.5 297 258 279> 632 93<378.5 405 405 442>
VStem: 64 134<-131.5 -57.5> 103 134<158 159>
LayerCount: 2
Fore
SplineSet
279 -208 m 1xe0
 189 -208 l 2
 112 -208 64 -164 64 -99 c 0
 64 -84 66 -68 70 -49 c 2xe0
 100 101 l 2
 102 112 103 123 103 134 c 0
 103 184 72 210 9 211 c 1
 28 305 l 1
 103 306 148 343 162 416 c 2
 194 581 l 2
 213 676 265 725 365 725 c 2
 460 725 l 1
 442 632 l 1
 405 632 l 2
 352 632 327 604 312 532 c 2
 283 380 l 2
 270 319 221 273 158 260 c 1
 157 258 l 1
 205 246 237 211 237 163 c 0
 237 153 236 144 234 137 c 2xd0
 203 -26 l 2
 200 -39 198 -52 198 -63 c 0
 198 -98 221 -114 258 -114 c 2
 297 -114 l 1
 279 -208 l 1xe0
EndSplineSet
EndChar

StartChar: bar
Encoding: 124 124 93
Width: 280
GlyphClass: 2
Flags: MW
HStem: -208 21G<93 221 93 93>
VStem: 93 128<-208 725>
LayerCount: 2
Fore
SplineSet
221 -208 m 1
 93 -208 l 1
 93 725 l 1
 221 725 l 1
 221 -208 l 1
EndSplineSet
EndChar

StartChar: braceright
Encoding: 125 125 94
Width: 389
GlyphClass: 2
Flags: MW
HStem: -208 93<-58 -21 -21 6.5 -58 19 -76 -21> 632 93<105 126 87 195>
VStem: 147 134<358.5 359.5> 186 134<575.5 649.5>
LayerCount: 2
Fore
SplineSet
105 725 m 1xd0
 195 725 l 2
 272 725 320 683 320 616 c 0
 320 601 318 585 314 567 c 2xd0
 285 417 l 2
 282 406 281 394 281 383 c 0
 281 334 311 307 375 306 c 1
 356 212 l 1
 280 211 236 174 223 101 c 2
 190 -63 l 2
 170 -163 116 -208 19 -208 c 2
 -76 -208 l 1
 -58 -115 l 1
 -21 -115 l 2
 34 -115 59 -87 72 -15 c 2
 102 137 l 2
 114 198 163 245 227 258 c 1
 227 259 l 1
 178 272 147 307 147 355 c 0
 147 364 148 373 150 380 c 2xe0
 182 543 l 2
 185 558 186 570 186 581 c 0
 186 614 163 632 126 632 c 2
 87 632 l 1
 105 725 l 1xd0
EndSplineSet
EndChar

StartChar: asciitilde
Encoding: 126 126 95
Width: 584
GlyphClass: 2
Flags: MW
HStem: 252 101<430.5 462> 308 102<164.5 196>
VStem: 58 506<291 369 369 369>
LayerCount: 2
Fore
SplineSet
434 252 m 0xa0
 385 252 339 268 290 285 c 0
 246 300 210 308 182 308 c 0
 135 308 99 294 58 265 c 1
 58 369 l 1
 95 396 139 410 190 410 c 0x60
 242 410 292 393 340 376 c 0
 383 361 418 353 443 353 c 0
 487 353 527 368 564 398 c 1
 564 291 l 1
 523 263 490 252 434 252 c 0xa0
EndSplineSet
EndChar

StartChar: exclamdown
Encoding: 161 161 97
Width: 333
GlyphClass: 2
Flags: MW
HStem: 396 132<146 261 121 287>
VStem: 10 277
LayerCount: 2
Fore
SplineSet
261 396 m 1
 121 396 l 1
 146 528 l 1
 287 528 l 1
 261 396 l 1
153 -160 m 1
 10 -160 l 1
 118 319 l 1
 230 319 l 1
 153 -160 l 1
EndSplineSet
EndChar

StartChar: cent
Encoding: 162 162 98
Width: 556
GlyphClass: 2
Flags: MW
HStem: -15 175<239 270 190 295.5> 520 168<327 353.5> 609 79<390 390>
VStem: 37 144<236 282.5 236 290.5> 409 139<426 438>
LayerCount: 2
Fore
SplineSet
268 160 m 0xd8
 323 160 356 194 377 262 c 1
 509 237 l 1
 476 128 400 74 285 66 c 1
 270 -15 l 1
 190 -15 l 1
 206 70 l 1
 98 87 37 160 37 273 c 0
 37 308 40 337 46 361 c 0
 82 520 168 605 312 613 c 1
 327 688 l 1
 406 688 l 1xd8
 390 609 l 1xb8
 482 594 540 530 548 438 c 1
 409 426 l 1
 406 489 379 520 328 520 c 0
 257 520 224 479 192 356 c 0
 185 319 181 291 181 274 c 0
 181 198 210 160 268 160 c 0xd8
EndSplineSet
EndChar

StartChar: sterling
Encoding: 163 163 99
Width: 556
GlyphClass: 2
Flags: MW
HStem: 0 103<114 313 313 324> 295 83<42 118 27 129 256 380> 605 93<345.5 394.5>
VStem: -25 598<0 552>
LayerCount: 2
Fore
SplineSet
429 196 m 1
 539 177 l 1
 512 61 435 0 324 0 c 2
 -25 0 l 1
 -6 100 l 1
 55 125 93 167 106 235 c 2
 118 295 l 1
 27 295 l 1
 42 378 l 1
 129 378 l 1
 154 505 l 2
 179 640 249 698 377 698 c 0
 492 698 562 644 573 552 c 1
 454 528 l 1
 443 583 418 605 371 605 c 0
 320 605 295 577 282 509 c 2
 256 378 l 1
 396 378 l 1
 380 295 l 1
 240 295 l 1
 227 233 l 2
 214 170 176 126 114 103 c 1
 313 103 l 2
 374 103 413 129 429 196 c 1
EndSplineSet
EndChar

StartChar: currency
Encoding: 164 164 100
Width: 556
GlyphClass: 2
Flags: MW
HStem: 122 111<265.5 304.5> 437 110<265.5 304.5 265.5 313>
VStem: 73 110<314.5 353.5> 387 111<314.5 353.5 314.5 363>
LayerCount: 2
Fore
SplineSet
73 334 m 0
 73 373 83 409 102 442 c 1
 37 507 l 1
 114 583 l 1
 178 518 l 1
 211 537 246 547 285 547 c 0
 324 547 360 537 392 518 c 1
 458 584 l 1
 535 507 l 1
 469 441 l 1
 488 409 498 373 498 334 c 0
 498 295 489 260 470 228 c 1
 535 163 l 1
 458 85 l 1
 393 151 l 1
 360 132 324 122 285 122 c 0
 246 122 210 131 178 150 c 1
 112 83 l 1
 35 160 l 1
 101 227 l 1
 82 259 73 295 73 334 c 0
183 335 m 0
 183 279 229 233 285 233 c 0
 341 233 387 279 387 335 c 0
 387 391 341 437 285 437 c 0
 229 437 183 391 183 335 c 0
EndSplineSet
EndChar

StartChar: yen
Encoding: 165 165 101
Width: 556
GlyphClass: 2
Flags: MW
HStem: 0 187<161 197 33 293 161 161> 115 72<33 183 19 197 330 481> 266 71<62 197 62 213 48 197 389 510> 668 20G<87 226 226 226 492 635 635 635>
VStem: 19 616<115 688>
LayerCount: 2
Fore
SplineSet
635 688 m 1xb8
 389 337 l 1
 524 337 l 1
 510 266 l 1
 345 266 l 1
 330 187 l 1
 495 187 l 1xb8
 481 115 l 1
 316 115 l 1x78
 293 0 l 1
 161 0 l 1xb8
 183 115 l 1
 19 115 l 1x78
 33 187 l 1
 197 187 l 1
 213 266 l 1
 48 266 l 1
 62 337 l 1
 197 337 l 1
 87 688 l 1
 226 688 l 1
 301 397 l 1
 492 688 l 1
 635 688 l 1xb8
EndSplineSet
EndChar

StartChar: brokenbar
Encoding: 166 166 102
Width: 280
GlyphClass: 2
Flags: MW
HStem: -208 21G<94 222 94 94>
VStem: 94 128<-208 158 359 725>
LayerCount: 2
Fore
SplineSet
222 359 m 1
 94 359 l 1
 94 725 l 1
 222 725 l 1
 222 359 l 1
222 -208 m 1
 94 -208 l 1
 94 158 l 1
 222 158 l 1
 222 -208 l 1
EndSplineSet
EndChar

StartChar: section
Encoding: 167 167 103
Width: 556
GlyphClass: 2
Flags: MW
HStem: -112 83<179.5 258 179.5 292> 614 83<303 367.5>
VStem: 46 123<299 320> 108 121<542.5 570.5 542.5 591> 350 120<22 54> 405 122<289.5 314.5>
LayerCount: 2
Fore
SplineSet
351 697 m 0xd8
 483 697 556 650 561 563 c 1
 441 551 l 1
 434 595 395 614 340 614 c 0
 266 614 229 592 229 549 c 0
 229 536 233 525 241 516 c 0
 258 499 281 487 353 470 c 0
 469 443 527 395 527 326 c 0xd4
 527 253 492 207 405 180 c 1
 446 157 470 118 470 69 c 0
 470 -50 376 -112 208 -112 c 0
 64 -112 -8 -68 -21 29 c 1
 99 47 l 1
 107 -8 145 -29 214 -29 c 0
 302 -29 350 -2 350 46 c 0
 350 62 346 75 337 85 c 0
 329 95 317 103 302 110 c 0
 287 117 254 127 203 138 c 0
 98 161 46 211 46 286 c 0xe8
 46 354 90 399 179 420 c 1
 132 445 108 486 108 537 c 0
 108 645 187 697 351 697 c 0xd8
279 381 m 1xe4
 212 377 169 351 169 306 c 0
 169 292 173 280 181 270 c 0
 189 261 200 252 214 245 c 0
 228 238 254 231 293 222 c 1
 365 227 405 252 405 292 c 0
 405 337 376 358 279 381 c 1xe4
EndSplineSet
EndChar

StartChar: dieresis
Encoding: 168 168 104
Width: 333
GlyphClass: 2
Flags: MW
HStem: 585 107<86 170 66 191 298 383 86 277>
VStem: 66 338<585 692>
LayerCount: 2
Fore
SplineSet
383 585 m 1
 277 585 l 1
 298 692 l 1
 404 692 l 1
 383 585 l 1
170 585 m 1
 66 585 l 1
 86 692 l 1
 191 692 l 1
 170 585 l 1
EndSplineSet
EndChar

StartChar: copyright
Encoding: 169 169 105
Width: 737
GlyphClass: 2
Flags: MW
HStem: -8 55<383 383> 139 69<355.5 411.5 355.5 430> 480 69<352 410> 642 56<383 383>
VStem: 30 56<345 345> 192 88<302 390 302 412> 682 54<345 345>
LayerCount: 2
Fore
SplineSet
736 345 m 0
 741 157 573 -14 383 -8 c 1
 190 -13 24 163 30 345 c 1
 25 533 196 704 383 698 c 0
 446 698 505 682 560 650 c 0
 671 587 736 472 736 345 c 0
682 345 m 1
 687 504 543 646 383 642 c 1
 233 646 82 511 86 345 c 1
 82 187 224 42 383 47 c 1
 543 42 687 187 682 345 c 1
390 139 m 0
 263 139 192 215 192 346 c 0
 192 478 261 549 385 549 c 0
 470 549 526 513 558 437 c 1
 481 417 l 1
 465 457 432 480 388 480 c 0
 316 480 280 434 280 346 c 0
 280 258 321 208 390 208 c 0
 433 208 468 233 485 278 c 1
 563 255 l 1
 526 174 470 139 390 139 c 0
EndSplineSet
EndChar

StartChar: ordfeminine
Encoding: 170 170 106
Width: 370
GlyphClass: 2
Flags: MW
HStem: 336 62<119.5 205.5> 340 53<310 373.5> 501 50<223 226> 634 58<230.5 263.5>
VStem: 51 95<429.5 464 429.5 470> 265 80<373.5 414 408 408> 290 88<597 607.5>
LayerCount: 2
Fore
SplineSet
332 340 m 0x7c
 288 340 265 359 265 388 c 2x7c
 266 408 l 1
 265 408 l 1xbc
 228 352 199 336 148 336 c 0
 91 336 51 375 51 432 c 0
 51 508 102 548 223 551 c 2
 283 552 l 1
 286 564 l 2
 289 576 290 586 290 594 c 0
 290 621 277 634 250 634 c 0
 211 634 193 619 186 590 c 1
 102 599 l 1
 115 656 162 692 251 692 c 0
 339 692 378 663 378 599 c 0
 378 595 378 590 377 585 c 0xba
 376 580 367 531 348 437 c 1
 345 414 l 2
 345 400 354 393 371 393 c 0
 376 393 383 394 391 396 c 1
 386 346 l 1
 375 342 357 340 332 340 c 0x7c
266 473 m 2xbc
 274 502 l 1
 226 501 l 2
 175 500 146 482 146 446 c 0
 146 413 164 398 189 398 c 0
 222 398 254 426 266 473 c 2xbc
EndSplineSet
EndChar

StartChar: guillemotleft
Encoding: 171 171 107
Width: 556
GlyphClass: 2
Flags: MW
HStem: 68 390<200 242 129 316 423 466 200 353>
VStem: 35 505<244 458>
LayerCount: 2
Fore
SplineSet
466 68 m 1
 353 68 l 1
 259 244 l 1
 266 279 l 1
 423 458 l 1
 540 458 l 1
 537 438 l 1
 376 259 l 1
 468 87 l 1
 466 68 l 1
242 68 m 1
 129 68 l 1
 35 244 l 1
 42 279 l 1
 200 458 l 1
 316 458 l 1
 313 438 l 1
 153 259 l 1
 245 87 l 1
 242 68 l 1
EndSplineSet
EndChar

StartChar: logicalnot
Encoding: 172 172 108
Width: 584
GlyphClass: 2
Flags: MW
HStem: 278 109<37 429 37 538>
VStem: 429 109<69 278 278 278>
LayerCount: 2
Fore
SplineSet
538 69 m 1
 429 69 l 1
 429 278 l 1
 37 278 l 1
 37 387 l 1
 538 387 l 1
 538 69 l 1
EndSplineSet
EndChar

StartChar: uni00AD
Encoding: 173 173 109
Width: 333
GlyphClass: 2
Flags: MW
HStem: 200 119<50 281 27 304>
VStem: 27 277<200 319>
LayerCount: 2
Fore
SplineSet
281 200 m 1
 27 200 l 1
 50 319 l 1
 304 319 l 1
 281 200 l 1
EndSplineSet
EndChar

StartChar: registered
Encoding: 174 174 110
Width: 737
GlyphClass: 2
Flags: MW
HStem: -8 55<383 383> 298 63<321 378 321 392> 481 62<321 386 321 321> 642 56<383 383>
VStem: 30 56<345 345> 234 87<145 298 145 361 361 481> 457 87<405.5 442.5> 682 54<345 345>
LayerCount: 2
Fore
SplineSet
736 345 m 0
 741 157 573 -14 383 -8 c 1
 190 -13 24 163 30 345 c 1
 25 533 196 704 383 698 c 0
 446 698 505 682 560 650 c 0
 671 587 736 472 736 345 c 0
682 345 m 1
 687 504 543 646 383 642 c 1
 233 646 82 511 86 345 c 1
 82 187 224 42 383 47 c 1
 543 42 687 187 682 345 c 1
563 145 m 1
 465 145 l 1
 378 298 l 1
 321 298 l 1
 321 145 l 1
 234 145 l 1
 234 543 l 1
 396 543 l 2
 495 543 544 498 544 425 c 0
 544 364 511 325 459 309 c 1
 563 145 l 1
457 424 m 0
 457 461 431 481 386 481 c 2
 321 481 l 1
 321 361 l 1
 392 361 l 2
 435 361 457 387 457 424 c 0
EndSplineSet
EndChar

StartChar: macron
Encoding: 175 175 111
Width: 552
GlyphClass: 2
Flags: MW
HStem: 709 46<-8 561 -8 561>
VStem: -8 569<709 755 709 755>
LayerCount: 2
Fore
SplineSet
561 755 m 1
 561 709 l 1
 -8 709 l 1
 -8 755 l 1
 561 755 l 1
EndSplineSet
EndChar

StartChar: degree
Encoding: 176 176 112
Width: 400
GlyphClass: 2
Flags: MW
HStem: 388 72<227.5 270.5> 623 73<225.5 270.5 205.5 271.5>
VStem: 92 75<520.5 564.5 519.5 584.5> 328 77<521 563 521 564.5>
LayerCount: 2
Fore
SplineSet
405 542 m 0
 405 500 390 464 359 433 c 0
 329 403 292 388 249 388 c 0
 206 388 169 403 138 432 c 0
 107 462 92 499 92 542 c 0
 92 627 162 696 249 696 c 0
 292 696 329 681 359 650 c 0
 390 620 405 584 405 542 c 0
328 542 m 0
 328 587 294 623 249 623 c 0
 202 623 167 587 167 542 c 0
 167 497 204 460 249 460 c 0
 292 460 328 497 328 542 c 0
EndSplineSet
EndChar

StartChar: plusminus
Encoding: 177 177 113
Width: 549
GlyphClass: 2
Flags: MW
HStem: 0 109<42 544 42 544> 345 109<42 238 42 238 348 544>
VStem: 238 110<179 345 179 345 454 620>
LayerCount: 2
Fore
SplineSet
544 345 m 1
 348 345 l 1
 348 179 l 1
 238 179 l 1
 238 345 l 1
 42 345 l 1
 42 454 l 1
 238 454 l 1
 238 620 l 1
 348 620 l 1
 348 454 l 1
 544 454 l 1
 544 345 l 1
544 0 m 1
 42 0 l 1
 42 109 l 1
 544 109 l 1
 544 0 l 1
EndSplineSet
EndChar

StartChar: uni00B2
Encoding: 178 178 114
Width: 333
GlyphClass: 2
Flags: MW
HStem: 340 70<152 310> 634 62<211.5 237.5>
VStem: 265 89<584.5 610.5>
LayerCount: 2
Fore
SplineSet
310 340 m 1
 35 340 l 1
 46 398 l 1
 73 439 110 470 182 510 c 0
 242 543 265 568 265 601 c 0
 265 620 249 634 226 634 c 0
 197 634 179 618 170 587 c 1
 91 604 l 1
 111 668 154 696 234 696 c 0
 309 696 354 661 354 605 c 0
 354 490 196 466 152 410 c 1
 322 410 l 1
 310 340 l 1
EndSplineSet
EndChar

StartChar: uni00B3
Encoding: 179 179 115
Width: 333
GlyphClass: 2
Flags: MW
HStem: 336 60<173.5 202.5 173.5 227.5> 488 62<167 188 155 196> 637 59<208.5 236.5>
VStem: 242 92<430.5 460.5> 263 91<585.5 609.5>
LayerCount: 2
Fore
SplineSet
242 447 m 0xf0
 242 474 224 488 188 488 c 2
 155 488 l 1
 167 550 l 1xf0
 196 550 l 2
 236 550 263 567 263 596 c 0
 263 623 250 637 223 637 c 0
 194 637 175 622 167 591 c 1
 87 603 l 1
 104 666 147 696 232 696 c 0
 309 696 354 668 354 609 c 0xe8
 354 562 318 525 265 521 c 1
 265 520 l 1
 306 512 334 487 334 446 c 0
 334 379 275 336 180 336 c 0
 100 336 56 368 47 432 c 1
 135 444 l 1
 141 412 159 396 188 396 c 0
 217 396 242 414 242 447 c 0xf0
EndSplineSet
EndChar

StartChar: acute
Encoding: 180 180 116
Width: 333
GlyphClass: 2
Flags: MW
HStem: 578 155<125 383 125 383>
VStem: 125 258<578 733>
LayerCount: 2
Fore
SplineSet
196 578 m 1
 125 578 l 1
 127 593 l 1
 248 733 l 1
 383 733 l 1
 379 712 l 1
 196 578 l 1
EndSplineSet
EndChar

StartChar: mu
Encoding: 181 181 117
Width: 576
GlyphClass: 2
Flags: MW
HStem: -208 21G<-23 114 -23 -23> -10 104<232.5 260> 508 20G<119 256 256 256 419 556 556 556>
VStem: -23 579 347 176
LayerCount: 2
Fore
SplineSet
427 -10 m 0xe8
 370 -10 347 9 347 60 c 2
 347 70 l 1
 348 80 l 1
 346 80 l 1
 318 24 286 -10 234 -10 c 0
 195 -10 169 7 160 34 c 1
 157 34 l 1
 149 -22 l 1
 114 -208 l 1
 -23 -208 l 1
 119 528 l 1
 256 528 l 1
 199 233 l 2
 195 214 193 194 192 175 c 0
 192 121 212 94 253 94 c 0
 306 94 348 147 364 246 c 2
 419 528 l 1
 556 528 l 1
 484 159 l 2
 481 144 480 134 480 127 c 0
 480 104 488 93 504 93 c 0
 512 93 520 94 527 97 c 1
 519 2 l 1
 484 -6 454 -10 427 -10 c 0xe8
EndSplineSet
EndChar

StartChar: paragraph
Encoding: 182 182 118
Width: 556
GlyphClass: 2
Flags: MW
HStem: 618 70<305 400 305 305 476 540 476 476>
VStem: 229 76<-129 339 339 339> 400 76<-129 618 -129 618>
LayerCount: 2
Fore
SplineSet
540 618 m 1
 476 618 l 1
 476 -129 l 1
 400 -129 l 1
 400 618 l 1
 305 618 l 1
 305 -129 l 1
 229 -129 l 1
 229 339 l 1
 118 339 52 401 52 512 c 0
 52 623 120 688 233 688 c 2
 540 688 l 1
 540 618 l 1
EndSplineSet
EndChar

StartChar: periodcentered
Encoding: 183 183 119
Width: 333
GlyphClass: 2
Flags: MW
HStem: 259 149<121 233 92 262>
VStem: 92 170<259 408>
LayerCount: 2
Fore
SplineSet
233 259 m 1
 92 259 l 1
 121 408 l 1
 262 408 l 1
 233 259 l 1
EndSplineSet
EndChar

StartChar: cedilla
Encoding: 184 184 120
Width: 333
GlyphClass: 2
Flags: MW
HStem: -208 57<90.5 123.5 90.5 152.5> -83 83<93 210 93 210 107 210>
VStem: 173 90<-127 -103>
LayerCount: 2
Fore
SplineSet
95 -208 m 0
 78 -208 61 -207 43 -205 c 1
 57 -147 l 1
 71 -150 84 -151 97 -151 c 0
 150 -151 173 -141 173 -113 c 0
 173 -93 155 -83 119 -83 c 2
 107 -83 l 1
 93 -83 l 1
 141 0 l 1
 210 0 l 1
 187 -41 l 1
 232 -41 263 -62 263 -105 c 0
 263 -168 210 -208 95 -208 c 0
EndSplineSet
EndChar

StartChar: uni00B9
Encoding: 185 185 121
Width: 333
GlyphClass: 2
Flags: MW
HStem: 338 59<59 149 238 310 48 149> 626 64<193 294> 670 20G<209 294 294 294>
VStem: 48 273<338 397>
LayerCount: 2
Fore
SplineSet
310 338 m 1xb0
 48 338 l 1
 59 397 l 1
 149 397 l 1
 193 626 l 1
 99 573 l 1
 110 633 l 1xd0
 209 690 l 1
 294 690 l 1
 238 397 l 1
 321 397 l 1
 310 338 l 1xb0
EndSplineSet
EndChar

StartChar: ordmasculine
Encoding: 186 186 122
Width: 365
GlyphClass: 2
Flags: MW
HStem: 336 67<189.5 225.5 189.5 230.5> 625 67<227.5 264.5>
VStem: 50 99<456 498.5 456 511> 305 99<551 574.5>
LayerCount: 2
Fore
SplineSet
404 558 m 0
 404 491 385 438 347 397 c 0
 310 356 261 336 200 336 c 0
 107 336 50 391 50 479 c 0
 50 543 68 594 105 633 c 0
 142 672 191 692 251 692 c 0
 351 692 404 642 404 558 c 0
305 551 m 0
 305 598 284 625 245 625 c 0
 210 625 190 612 174 587 c 0
 158 562 149 515 149 482 c 0
 149 430 170 403 209 403 c 0
 242 403 256 411 269 427 c 0
 288 450 301 481 305 551 c 0
EndSplineSet
EndChar

StartChar: guillemotright
Encoding: 187 187 123
Width: 556
GlyphClass: 2
Flags: MW
HStem: 68 390<93 135 19 206 93 242 316 359>
VStem: 19 504<68 282>
LayerCount: 2
Fore
SplineSet
93 458 m 1
 206 458 l 1
 300 282 l 1
 293 247 l 1
 135 68 l 1
 19 68 l 1
 21 88 l 1
 182 267 l 1
 90 439 l 1
 93 458 l 1
316 458 m 1
 430 458 l 1
 523 282 l 1
 517 247 l 1
 359 68 l 1
 242 68 l 1
 245 88 l 1
 406 267 l 1
 314 439 l 1
 316 458 l 1
EndSplineSet
EndChar

StartChar: onequarter
Encoding: 188 188 124
Width: 834
GlyphClass: 2
Flags: MW
HStem: 0 139<591 591 591 618 519 680> 69 70<519 604 707 744> 285 67<648 648> 338 59<59 149 238 310 48 149> 626 64<193 294> 668 20G<644 741 741 741> 670 20G<209 294 294 294>
VStem: 48 709<139 338>
LayerCount: 2
Fore
SplineSet
310 338 m 1x53
 48 338 l 1x55
 59 397 l 1
 149 397 l 1x93
 193 626 l 1
 99 573 l 1
 110 633 l 1x53
 209 690 l 1
 294 690 l 1
 238 397 l 1
 321 397 l 1xa3
 310 338 l 1x53
741 688 m 1
 209 0 l 1
 113 0 l 1xa3
 644 688 l 1
 741 688 l 1
744 69 m 1
 693 69 l 1x99
 680 0 l 1
 591 0 l 1
 604 69 l 1
 435 69 l 1
 448 141 l 1x93
 641 352 l 1
 748 352 l 1
 707 139 l 1
 757 139 l 1
 744 69 l 1
606 232 m 2
 519 139 l 1
 618 139 l 1
 648 285 l 1
 640 274 l 2
 628 257 617 243 606 232 c 2
EndSplineSet
EndChar

StartChar: onehalf
Encoding: 189 189 125
Width: 834
GlyphClass: 2
Flags: MW
HStem: 0 70<581 739> 295 62<640.5 666.5> 338 59<59 149 238 310 48 149> 626 64<193 294> 668 20G<644 741 741 741> 670 20G<209 294 294 294>
VStem: 693 90<245.5 271.5>
LayerCount: 2
Fore
SplineSet
310 338 m 1xa6
 48 338 l 1
 59 397 l 1
 149 397 l 1
 193 626 l 1
 99 573 l 1
 110 633 l 1xb2
 209 690 l 1
 294 690 l 1
 238 397 l 1
 321 397 l 1
 310 338 l 1xa6
741 688 m 1xca
 209 0 l 1
 113 0 l 1
 644 688 l 1
 741 688 l 1xca
739 0 m 1
 463 0 l 1
 475 59 l 1
 502 100 539 131 611 171 c 0
 671 203 693 229 693 262 c 0
 693 281 678 295 655 295 c 0
 626 295 608 279 599 248 c 1
 520 264 l 1
 540 329 583 357 663 357 c 0
 738 357 783 322 783 266 c 0
 783 147 621 131 581 70 c 1
 751 70 l 1
 739 0 l 1
EndSplineSet
EndChar

StartChar: threequarters
Encoding: 190 190 126
Width: 834
GlyphClass: 2
Flags: MW
HStem: 0 139<591 591 591 618 519 680> 69 70<519 604 707 744> 285 67<648 648> 336 60<180 209.5 180 234.5> 488 62<173 195 162 203> 637 59<214.5 242.5> 668 20G<644 741 741 741>
VStem: 249 92<430.5 460.5> 270 91<585.5 609.5>
LayerCount: 2
Fore
SplineSet
249 447 m 0x5d
 249 474 231 488 195 488 c 2
 162 488 l 1
 173 550 l 1
 203 550 l 2
 243 550 270 567 270 596 c 0xad
 270 623 256 637 229 637 c 0
 200 637 182 622 173 591 c 1
 94 603 l 1x5b
 110 666 154 696 239 696 c 0
 316 696 361 668 361 609 c 0x9d
 361 562 325 525 272 521 c 1
 271 520 l 1
 314 512 341 487 341 446 c 0x5d
 341 379 282 336 187 336 c 0
 107 336 63 368 54 432 c 1
 142 444 l 1
 147 412 165 396 195 396 c 0xad
 224 396 249 414 249 447 c 0x5d
741 688 m 1
 209 0 l 1
 113 0 l 1
 644 688 l 1x9d
 741 688 l 1
744 69 m 1
 693 69 l 1
 680 0 l 1
 591 0 l 1
 604 69 l 1
 435 69 l 1
 448 141 l 1x9c80
 641 352 l 1
 748 352 l 1
 707 139 l 1
 757 139 l 1
 744 69 l 1
606 232 m 2
 519 139 l 1
 618 139 l 1
 648 285 l 1
 640 274 l 2x9d
 628 257 617 243 606 232 c 2
EndSplineSet
EndChar

StartChar: questiondown
Encoding: 191 191 127
Width: 611
GlyphClass: 2
Flags: MW
HStem: -170 112<214.5 284 214.5 311.5> 396 132<311 427 286 452>
VStem: 13 138<-7.5 17.5>
LayerCount: 2
Fore
SplineSet
239 -170 m 0
 100 -170 13 -105 13 3 c 0
 13 32 19 59 31 82 c 0
 43 105 60 127 82 146 c 0
 105 166 141 190 192 218 c 0
 219 236 237 249 246 258 c 0
 263 275 274 295 278 320 c 1
 408 320 l 1
 403 295 396 274 386 255 c 0
 376 236 363 219 347 204 c 0
 332 189 305 169 266 146 c 0
 176 90 151 64 151 13 c 0
 151 -28 182 -58 247 -58 c 0
 321 -58 366 -27 383 36 c 1
 513 17 l 1
 475 -108 384 -170 239 -170 c 0
311 528 m 1
 452 528 l 1
 427 396 l 1
 286 396 l 1
 311 528 l 1
EndSplineSet
EndChar

StartChar: Agrave
Encoding: 192 192 128
Width: 722
GlyphClass: 2
Flags: MW
HStem: 0 21G<-21 123 -21 -21 507 650 507 507> 176 108<276 469 276 480 218 469> 582 106 668 20G<364 534 534 534> 747 15<466 537> 862 21<317 438>
VStem: -21 671<0 0>
LayerCount: 2
Fore
SplineSet
650 0 m 1xde
 507 0 l 1
 480 176 l 1
 218 176 l 1
 123 0 l 1
 -21 0 l 1
 364 688 l 1
 534 688 l 1
 650 0 l 1xde
428 582 m 1xee
 421 561 405 527 380 479 c 2
 276 284 l 1
 469 284 l 1
 437 505 l 2
 431 549 428 575 428 582 c 1xee
534 747 m 1
 466 747 l 1
 317 862 l 1
 322 883 l 1
 438 883 l 1
 537 762 l 1
 534 747 l 1
EndSplineSet
EndChar

StartChar: Aacute
Encoding: 193 193 129
Width: 722
GlyphClass: 2
Flags: MW
HStem: 0 21G<-21 123 -21 -21 507 650 507 507> 176 108<276 469 276 480 218 469> 582 106 668 20G<364 534 534 534> 862 21<634 634>
VStem: -21 671<0 0>
LayerCount: 2
Fore
SplineSet
650 0 m 1xdc
 507 0 l 1
 480 176 l 1
 218 176 l 1
 123 0 l 1
 -21 0 l 1
 364 688 l 1
 534 688 l 1
 650 0 l 1xdc
428 582 m 1xec
 421 561 405 527 380 479 c 2
 276 284 l 1
 469 284 l 1
 437 505 l 2
 431 549 428 575 428 582 c 1xec
446 747 m 1
 373 747 l 1
 376 762 l 1
 508 883 l 1
 639 883 l 1
 634 862 l 1
 446 747 l 1
EndSplineSet
EndChar

StartChar: Acircumflex
Encoding: 194 194 130
Width: 722
GlyphClass: 2
Flags: MW
HStem: 0 21G<-21 123 -21 -21 507 650 507 507> 176 108<276 469 276 480 218 469> 582 106 668 20G<364 534 534 534> 747 14<270 270 270 350 267 270> 821 75<467 469 467 467>
VStem: -21 671<0 0>
LayerCount: 2
Fore
SplineSet
650 0 m 1xde
 507 0 l 1
 480 176 l 1
 218 176 l 1
 123 0 l 1
 -21 0 l 1
 364 688 l 1
 534 688 l 1
 650 0 l 1xde
428 582 m 1xee
 421 561 405 527 380 479 c 2
 276 284 l 1
 469 284 l 1
 437 505 l 2
 431 549 428 575 428 582 c 1xee
533 896 m 1
 629 761 l 1
 626 747 l 1
 554 747 l 1
 469 821 l 1
 467 821 l 1
 350 747 l 1
 267 747 l 1
 270 761 l 1
 421 896 l 1
 533 896 l 1
EndSplineSet
EndChar

StartChar: Atilde
Encoding: 195 195 131
Width: 722
GlyphClass: 2
Flags: MW
HStem: 0 21G<-21 123 -21 -21 507 650 507 507> 176 108<276 469 276 480 218 469> 582 106 668 20G<364 534 534 534> 747 83<513 546 513 554.5> 807 83<361.5 394.5>
VStem: -21 679
LayerCount: 2
Fore
SplineSet
650 0 m 1xd2
 507 0 l 1
 480 176 l 1
 218 176 l 1
 123 0 l 1
 -21 0 l 1
 364 688 l 1
 534 688 l 1
 650 0 l 1xd2
428 582 m 1xea
 421 561 405 527 380 479 c 2
 276 284 l 1
 469 284 l 1
 437 505 l 2
 431 549 428 575 428 582 c 1xea
521 747 m 0
 465 747 414 807 375 807 c 0
 348 807 332 794 316 747 c 1
 250 747 l 1
 275 850 319 890 387 890 c 0xd6
 445 890 494 830 532 830 c 0
 560 830 576 846 592 890 c 1
 658 890 l 1
 633 787 588 747 521 747 c 0
EndSplineSet
EndChar

StartChar: Adieresis
Encoding: 196 196 132
Width: 722
GlyphClass: 2
Flags: MW
HStem: 0 21G<-21 123 -21 -21 507 650 507 507> 176 108<276 469 276 480 218 469> 582 106 668 20G<364 534 534 534> 747 107<317 400 296 421 529 614 317 508>
VStem: -21 671<0 0>
LayerCount: 2
Fore
SplineSet
650 0 m 1xdc
 507 0 l 1
 480 176 l 1
 218 176 l 1
 123 0 l 1
 -21 0 l 1
 364 688 l 1
 534 688 l 1
 650 0 l 1xdc
428 582 m 1xec
 421 561 405 527 380 479 c 2
 276 284 l 1
 469 284 l 1
 437 505 l 2
 431 549 428 575 428 582 c 1xec
614 747 m 1
 508 747 l 1
 529 854 l 1
 635 854 l 1
 614 747 l 1
400 747 m 1
 296 747 l 1
 317 854 l 1
 421 854 l 1
 400 747 l 1
EndSplineSet
EndChar

StartChar: Aring
Encoding: 197 197 133
Width: 722
GlyphClass: 2
Flags: MW
HStem: 0 21G<-21 123 -21 -21 507 650 507 507> 176 108<276 469 276 480 218 469> 627 61<434.5 469.5> 812 63<435.5 469 435 470>
VStem: 328 63<734 768> 514 62<734 767.5>
LayerCount: 2
Fore
SplineSet
650 0 m 1
 507 0 l 1
 480 176 l 1
 218 176 l 1
 123 0 l 1
 -21 0 l 1
 364 688 l 1
 534 688 l 1
 650 0 l 1
428 582 m 1
 421 561 405 527 380 479 c 2
 276 284 l 1
 469 284 l 1
 437 505 l 2
 431 549 428 575 428 582 c 1
576 751 m 0
 576 717 564 688 540 663 c 0
 516 639 487 627 452 627 c 0
 417 627 388 639 364 663 c 0
 340 688 328 717 328 751 c 0
 328 785 340 814 364 838 c 0
 389 863 418 875 452 875 c 0
 486 875 515 863 539 838 c 0
 564 814 576 785 576 751 c 0
514 751 m 0
 514 784 488 812 452 812 c 0
 419 812 391 786 391 751 c 0
 391 715 419 688 452 688 c 0
 487 688 514 716 514 751 c 0
EndSplineSet
EndChar

StartChar: AE
Encoding: 198 198 134
Width: 1000
GlyphClass: 2
Flags: MW
HStem: 0 111<570 911> 176 108<294 443 223 464> 296 108<627 918 606 939> 577 111<661 1003 661 661> 582 106<492 521 492 492>
VStem: -47 1072<0 688>
LayerCount: 2
Fore
SplineSet
911 0 m 1xb4
 409 0 l 1
 443 176 l 1
 223 176 l 1xec
 105 0 l 1
 -47 0 l 1
 424 688 l 1
 1025 688 l 1
 1003 577 l 1
 661 577 l 1
 627 404 l 1
 939 404 l 1
 918 296 l 1
 606 296 l 1
 570 111 l 1
 933 111 l 1
 911 0 l 1xb4
464 284 m 1
 521 582 l 1
 492 582 l 1
 425 480 l 1
 294 284 l 1
 464 284 l 1
EndSplineSet
EndChar

StartChar: Ccedilla
Encoding: 199 199 135
Width: 722
GlyphClass: 2
Flags: MW
HStem: -208 57<261.5 294 261.5 323> -83 42 -10 10<312 380 312 412> -10 113<296 391.5 296 412> 585 113<443 477.5>
VStem: 40 147<223.5 278> 343 91<-127 -103>
LayerCount: 2
Fore
SplineSet
187 280 m 0x9e
 187 167 244 103 348 103 c 0x9e
 435 103 503 145 552 229 c 1
 663 172 l 1
 594 51 486 -10 338 -10 c 0xae
 149 -10 40 104 40 278 c 0
 36 525 210 703 443 698 c 0
 594 698 692 634 725 507 c 1
 591 472 l 1
 572 541 516 585 439 585 c 0
 360 585 299 558 254 503 c 0
 209 448 187 374 187 280 c 0x9e
265 -208 m 0xee
 249 -208 232 -207 213 -205 c 1
 228 -147 l 1
 241 -150 255 -151 268 -151 c 0
 320 -151 343 -141 343 -113 c 0
 343 -93 325 -83 290 -83 c 2
 277 -83 l 1
 264 -83 l 1
 312 0 l 1
 380 0 l 1
 357 -41 l 1
 402 -41 434 -62 434 -105 c 0
 434 -168 381 -208 265 -208 c 0xee
EndSplineSet
EndChar

StartChar: Egrave
Encoding: 200 200 136
Width: 667
GlyphClass: 2
Flags: MW
HStem: 0 111<183 578> 292 112<240 585 218 607> 577 111<273 670 273 273> 747 15<420 491> 862 21<271 392>
VStem: 18 674
LayerCount: 2
Fore
SplineSet
578 0 m 1
 18 0 l 1
 151 688 l 1
 692 688 l 1
 670 577 l 1
 273 577 l 1
 240 404 l 1
 607 404 l 1
 585 292 l 1
 218 292 l 1
 183 111 l 1
 600 111 l 1
 578 0 l 1
488 747 m 1
 420 747 l 1
 271 862 l 1
 276 883 l 1
 392 883 l 1
 491 762 l 1
 488 747 l 1
EndSplineSet
EndChar

StartChar: Eacute
Encoding: 201 201 137
Width: 667
GlyphClass: 2
Flags: MW
HStem: 0 111<183 578> 292 112<240 585 218 607> 577 111<273 670 273 273> 862 21<610 610>
VStem: 18 674
LayerCount: 2
Fore
SplineSet
578 0 m 1
 18 0 l 1
 151 688 l 1
 692 688 l 1
 670 577 l 1
 273 577 l 1
 240 404 l 1
 607 404 l 1
 585 292 l 1
 218 292 l 1
 183 111 l 1
 600 111 l 1
 578 0 l 1
421 747 m 1
 349 747 l 1
 352 762 l 1
 484 883 l 1
 614 883 l 1
 610 862 l 1
 421 747 l 1
EndSplineSet
EndChar

StartChar: Ecircumflex
Encoding: 202 202 138
Width: 667
GlyphClass: 2
Flags: MW
HStem: 0 111<183 578> 292 112<240 585 218 607> 577 111<273 670 273 273> 747 14<253 253 253 333 250 253> 821 75<450 452 450 450>
VStem: 18 674
LayerCount: 2
Fore
SplineSet
578 0 m 1
 18 0 l 1
 151 688 l 1
 692 688 l 1
 670 577 l 1
 273 577 l 1
 240 404 l 1
 607 404 l 1
 585 292 l 1
 218 292 l 1
 183 111 l 1
 600 111 l 1
 578 0 l 1
517 896 m 1
 612 761 l 1
 610 747 l 1
 537 747 l 1
 452 821 l 1
 450 821 l 1
 333 747 l 1
 250 747 l 1
 253 761 l 1
 405 896 l 1
 517 896 l 1
EndSplineSet
EndChar

StartChar: Edieresis
Encoding: 203 203 139
Width: 667
GlyphClass: 2
Flags: MW
HStem: 0 111<183 578> 292 112<240 585 218 607> 577 111<273 670 273 273> 747 107<295 378 274 399 507 592 295 486>
VStem: 18 674
LayerCount: 2
Fore
SplineSet
578 0 m 1
 18 0 l 1
 151 688 l 1
 692 688 l 1
 670 577 l 1
 273 577 l 1
 240 404 l 1
 607 404 l 1
 585 292 l 1
 218 292 l 1
 183 111 l 1
 600 111 l 1
 578 0 l 1
592 747 m 1
 486 747 l 1
 507 854 l 1
 613 854 l 1
 592 747 l 1
378 747 m 1
 274 747 l 1
 295 854 l 1
 399 854 l 1
 378 747 l 1
EndSplineSet
EndChar

StartChar: Igrave
Encoding: 204 204 140
Width: 278
GlyphClass: 2
Flags: MW
HStem: 0 21G<18 161 18 18> 668 20G<151 295 295 295> 747 15<235 307> 862 21<87 208>
VStem: 18 289
LayerCount: 2
Fore
SplineSet
161 0 m 1
 18 0 l 1
 151 688 l 1
 295 688 l 1
 161 0 l 1
303 747 m 1
 235 747 l 1
 87 862 l 1
 91 883 l 1
 208 883 l 1
 307 762 l 1
 303 747 l 1
EndSplineSet
EndChar

StartChar: Iacute
Encoding: 205 205 141
Width: 278
GlyphClass: 2
Flags: MW
HStem: 0 21G<18 161 18 18> 668 20G<151 295 295 295> 862 21<420 420>
VStem: 18 407
LayerCount: 2
Fore
SplineSet
161 0 m 1
 18 0 l 1
 151 688 l 1
 295 688 l 1
 161 0 l 1
232 747 m 1
 159 747 l 1
 163 762 l 1
 294 883 l 1
 425 883 l 1
 420 862 l 1
 232 747 l 1
EndSplineSet
EndChar

StartChar: Icircumflex
Encoding: 206 206 142
Width: 278
GlyphClass: 2
Flags: MW
HStem: 0 21G<18 161 18 18> 668 20G<151 295 295 295> 747 14<54 54 54 134 51 54> 821 75<251 253 251 251>
VStem: 18 395
LayerCount: 2
Fore
SplineSet
161 0 m 1
 18 0 l 1
 151 688 l 1
 295 688 l 1
 161 0 l 1
317 896 m 1
 413 761 l 1
 411 747 l 1
 338 747 l 1
 253 821 l 1
 251 821 l 1
 134 747 l 1
 51 747 l 1
 54 761 l 1
 206 896 l 1
 317 896 l 1
EndSplineSet
EndChar

StartChar: Idieresis
Encoding: 207 207 143
Width: 278
GlyphClass: 2
Flags: MW
HStem: 0 21G<18 161 18 18> 668 20G<151 295 295 295> 747 107<94 178 74 199 306 391 94 285>
VStem: 18 394
LayerCount: 2
Fore
SplineSet
161 0 m 1
 18 0 l 1
 151 688 l 1
 295 688 l 1
 161 0 l 1
391 747 m 1
 285 747 l 1
 306 854 l 1
 412 854 l 1
 391 747 l 1
178 747 m 1
 74 747 l 1
 94 854 l 1
 199 854 l 1
 178 747 l 1
EndSplineSet
EndChar

StartChar: Eth
Encoding: 208 208 144
Width: 722
GlyphClass: 2
Flags: MW
HStem: 0 111<183 295 295 300> 290 107<32 74 11 95 238 391> 577 111<273 273 273 358 358 359>
VStem: 559 135<355.5 449.5>
LayerCount: 2
Fore
SplineSet
151 688 m 1
 358 688 l 2
 575 688 694 585 694 394 c 0
 694 317 678 249 645 190 c 0
 581 73 452 0 300 0 c 2
 18 0 l 1
 74 290 l 1
 11 290 l 1
 32 397 l 1
 95 397 l 1
 151 688 l 1
273 577 m 1
 238 397 l 1
 413 397 l 1
 391 290 l 1
 218 290 l 1
 183 111 l 1
 295 111 l 2
 454 111 559 218 559 388 c 0
 559 511 488 577 359 577 c 2
 273 577 l 1
EndSplineSet
EndChar

StartChar: Ntilde
Encoding: 209 209 145
Width: 722
GlyphClass: 2
Flags: MW
HStem: 0 21G<18 146 18 18 432 605 432 432> 0 131<506 506 506 605 432 506> 552 136<249 249> 668 20G<151 322 322 322 611 739 739 739> 747 83<529 562 529 570.5> 807 83<378 410.5>
VStem: 18 721<0 688>
LayerCount: 2
Fore
SplineSet
605 0 m 1x96
 432 0 l 1
 249 552 l 1xaa
 242 499 235 461 230 436 c 2
 146 0 l 1
 18 0 l 1
 151 688 l 1
 322 688 l 1
 506 131 l 1
 512 171 l 1x56
 526 256 l 1
 611 688 l 1
 739 688 l 1
 605 0 l 1x96
537 747 m 0
 481 747 429 807 392 807 c 0
 364 807 348 794 332 747 c 1
 266 747 l 1
 291 850 336 890 403 890 c 0x96
 461 890 510 830 548 830 c 0
 576 830 592 846 608 890 c 1
 674 890 l 1
 649 787 604 747 537 747 c 0
EndSplineSet
EndChar

StartChar: Ograve
Encoding: 210 210 146
Width: 778
GlyphClass: 2
Flags: MW
HStem: -10 114<309.5 388 309.5 434.5> 584 114<419.5 500> 747 15<482 554> 862 21<334 455>
VStem: 49 146<224 310.5 224 318.5> 613 148<376.5 459.5 375.5 461.5>
LayerCount: 2
Fore
SplineSet
453 698 m 0
 548 698 623 673 678 622 c 0
 733 571 761 503 761 416 c 0
 761 335 744 262 709 195 c 0
 641 63 514 -10 355 -10 c 0
 165 -10 49 103 49 280 c 0
 49 357 66 428 100 494 c 0
 169 626 294 698 453 698 c 0
446 584 m 0
 393 584 348 572 311 547 c 0
 274 523 246 486 225 437 c 0
 205 388 195 337 195 284 c 0
 195 164 257 104 362 104 c 0
 414 104 459 116 496 140 c 0
 533 165 562 201 582 249 c 0
 603 297 613 349 613 404 c 0
 613 519 554 584 446 584 c 0
550 747 m 1
 482 747 l 1
 334 862 l 1
 338 883 l 1
 455 883 l 1
 554 762 l 1
 550 747 l 1
EndSplineSet
EndChar

StartChar: Oacute
Encoding: 211 211 147
Width: 778
GlyphClass: 2
Flags: MW
HStem: -10 114<309.5 388 309.5 434.5> 584 114<419.5 500> 862 21<680 680>
VStem: 49 146<224 310.5 224 318.5> 613 148<376.5 459.5 375.5 461.5>
LayerCount: 2
Fore
SplineSet
453 698 m 0
 548 698 623 673 678 622 c 0
 733 571 761 503 761 416 c 0
 761 335 744 262 709 195 c 0
 641 63 514 -10 355 -10 c 0
 165 -10 49 103 49 280 c 0
 49 357 66 428 100 494 c 0
 169 626 294 698 453 698 c 0
446 584 m 0
 393 584 348 572 311 547 c 0
 274 523 246 486 225 437 c 0
 205 388 195 337 195 284 c 0
 195 164 257 104 362 104 c 0
 414 104 459 116 496 140 c 0
 533 165 562 201 582 249 c 0
 603 297 613 349 613 404 c 0
 613 519 554 584 446 584 c 0
491 747 m 1
 418 747 l 1
 422 762 l 1
 554 883 l 1
 684 883 l 1
 680 862 l 1
 491 747 l 1
EndSplineSet
EndChar

StartChar: Ocircumflex
Encoding: 212 212 148
Width: 778
GlyphClass: 2
Flags: MW
HStem: -10 114<309.5 388 309.5 434.5> 584 114<419.5 500> 747 14<284 284 284 364 281 284> 821 75<481 483 481 481>
VStem: 49 146<224 310.5 224 318.5> 613 148<376.5 459.5 375.5 461.5>
LayerCount: 2
Fore
SplineSet
453 698 m 0
 548 698 623 673 678 622 c 0
 733 571 761 503 761 416 c 0
 761 335 744 262 709 195 c 0
 641 63 514 -10 355 -10 c 0
 165 -10 49 103 49 280 c 0
 49 357 66 428 100 494 c 0
 169 626 294 698 453 698 c 0
446 584 m 0
 393 584 348 572 311 547 c 0
 274 523 246 486 225 437 c 0
 205 388 195 337 195 284 c 0
 195 164 257 104 362 104 c 0
 414 104 459 116 496 140 c 0
 533 165 562 201 582 249 c 0
 603 297 613 349 613 404 c 0
 613 519 554 584 446 584 c 0
547 896 m 1
 643 761 l 1
 641 747 l 1
 568 747 l 1
 483 821 l 1
 481 821 l 1
 364 747 l 1
 281 747 l 1
 284 761 l 1
 436 896 l 1
 547 896 l 1
EndSplineSet
EndChar

StartChar: Otilde
Encoding: 213 213 149
Width: 778
GlyphClass: 2
Flags: MW
HStem: -10 114<309.5 388 309.5 434.5> 584 114<419.5 500> 747 83<546.5 579 546.5 587.5> 807 83<395.5 429>
VStem: 49 146<224 310.5 224 318.5> 613 148<376.5 459.5 375.5 461.5>
LayerCount: 2
Fore
SplineSet
453 698 m 0xdc
 548 698 623 673 678 622 c 0
 733 571 761 503 761 416 c 0
 761 335 744 262 709 195 c 0
 641 63 514 -10 355 -10 c 0
 165 -10 49 103 49 280 c 0
 49 357 66 428 100 494 c 0
 169 626 294 698 453 698 c 0xdc
446 584 m 0
 393 584 348 572 311 547 c 0
 274 523 246 486 225 437 c 0
 205 388 195 337 195 284 c 0
 195 164 257 104 362 104 c 0
 414 104 459 116 496 140 c 0
 533 165 562 201 582 249 c 0
 603 297 613 349 613 404 c 0
 613 519 554 584 446 584 c 0
555 747 m 0xec
 498 747 449 807 409 807 c 0
 382 807 366 794 350 747 c 1
 283 747 l 1
 308 850 353 890 420 890 c 0xdc
 480 890 528 830 565 830 c 0
 593 830 610 846 625 890 c 1
 691 890 l 1
 666 787 620 747 555 747 c 0xec
EndSplineSet
EndChar

StartChar: Odieresis
Encoding: 214 214 150
Width: 778
GlyphClass: 2
Flags: MW
HStem: -10 114<309.5 388 309.5 434.5> 584 114<419.5 500> 747 107<337 421 317 442 549 634 337 528>
VStem: 49 146<224 310.5 224 318.5> 613 148<376.5 459.5 375.5 461.5>
LayerCount: 2
Fore
SplineSet
453 698 m 0
 548 698 623 673 678 622 c 0
 733 571 761 503 761 416 c 0
 761 335 744 262 709 195 c 0
 641 63 514 -10 355 -10 c 0
 165 -10 49 103 49 280 c 0
 49 357 66 428 100 494 c 0
 169 626 294 698 453 698 c 0
446 584 m 0
 393 584 348 572 311 547 c 0
 274 523 246 486 225 437 c 0
 205 388 195 337 195 284 c 0
 195 164 257 104 362 104 c 0
 414 104 459 116 496 140 c 0
 533 165 562 201 582 249 c 0
 603 297 613 349 613 404 c 0
 613 519 554 584 446 584 c 0
634 747 m 1
 528 747 l 1
 549 854 l 1
 655 854 l 1
 634 747 l 1
421 747 m 1
 317 747 l 1
 337 854 l 1
 442 854 l 1
 421 747 l 1
EndSplineSet
EndChar

StartChar: multiply
Encoding: 215 215 151
Width: 584
GlyphClass: 2
Flags: MW
HStem: 82 501<139 484>
VStem: 62 500<159 162>
LayerCount: 2
Fore
SplineSet
139 82 m 1
 62 159 l 1
 235 334 l 1
 63 506 l 1
 141 582 l 1
 313 411 l 1
 484 583 l 1
 562 506 l 1
 390 333 l 1
 562 162 l 1
 484 84 l 1
 313 257 l 1
 139 82 l 1
EndSplineSet
EndChar

StartChar: Oslash
Encoding: 216 216 152
Width: 778
GlyphClass: 2
Flags: MW
HStem: -10 114<341.5 388 341.5 434.5> 584 114<419.5 468.5>
VStem: 49 146<264.5 310.5 264.5 318.5> 613 148<376.5 420.5>
LayerCount: 2
Fore
SplineSet
453 698 m 0
 530 698 595 681 646 647 c 1
 710 716 l 1
 810 716 l 1
 701 599 l 1
 741 551 761 490 761 416 c 0
 761 335 744 262 709 195 c 0
 641 63 514 -10 355 -10 c 0
 283 -10 223 5 174 35 c 1
 118 -26 l 1
 17 -26 l 1
 117 82 l 1
 72 133 49 199 49 280 c 0
 49 357 66 428 100 494 c 0
 169 626 294 698 453 698 c 0
446 584 m 0
 393 584 348 572 311 547 c 0
 274 523 246 486 225 437 c 0
 205 388 195 337 195 284 c 0
 195 245 201 212 214 185 c 1
 556 550 l 1
 527 573 491 584 446 584 c 0
613 404 m 0
 613 437 608 465 599 489 c 1
 263 129 l 1
 288 112 321 104 362 104 c 0
 414 104 459 116 496 140 c 0
 533 165 562 201 582 249 c 0
 603 297 613 349 613 404 c 0
EndSplineSet
EndChar

StartChar: Ugrave
Encoding: 217 217 153
Width: 722
GlyphClass: 2
Flags: MW
HStem: -10 113<294 390 294 423.5> 668 20G<142 286 286 286 599 743 743 743> 747 15<453 524> 862 21<304 425>
VStem: 58 144<174.5 222 174.5 224.5>
LayerCount: 2
Fore
SplineSet
336 103 m 0
 444 103 494 148 517 264 c 2
 599 688 l 1
 743 688 l 1
 659 259 l 2
 623 76 519 -10 328 -10 c 0
 156 -10 58 70 58 210 c 0
 58 239 64 286 69 310 c 2
 142 688 l 1
 286 688 l 1
 211 292 l 2
 205 264 202 236 202 208 c 0
 202 141 252 103 336 103 c 0
521 747 m 1
 453 747 l 1
 304 862 l 1
 309 883 l 1
 425 883 l 1
 524 762 l 1
 521 747 l 1
EndSplineSet
EndChar

StartChar: Uacute
Encoding: 218 218 154
Width: 722
GlyphClass: 2
Flags: MW
HStem: -10 113<294 390 294 423.5> 668 20G<142 286 286 286 599 743 743 743> 862 21<646 646>
VStem: 58 144<174.5 222 174.5 224.5>
LayerCount: 2
Fore
SplineSet
336 103 m 0
 444 103 494 148 517 264 c 2
 599 688 l 1
 743 688 l 1
 659 259 l 2
 623 76 519 -10 328 -10 c 0
 156 -10 58 70 58 210 c 0
 58 239 64 286 69 310 c 2
 142 688 l 1
 286 688 l 1
 211 292 l 2
 205 264 202 236 202 208 c 0
 202 141 252 103 336 103 c 0
458 747 m 1
 385 747 l 1
 389 762 l 1
 521 883 l 1
 651 883 l 1
 646 862 l 1
 458 747 l 1
EndSplineSet
EndChar

StartChar: Ucircumflex
Encoding: 219 219 155
Width: 722
GlyphClass: 2
Flags: MW
HStem: -10 113<294 390 294 423.5> 668 20G<142 286 286 286 599 743 743 743> 747 14<271 271 271 351 268 271> 821 75<468 470 468 468>
VStem: 58 144<174.5 222 174.5 224.5>
LayerCount: 2
Fore
SplineSet
336 103 m 0
 444 103 494 148 517 264 c 2
 599 688 l 1
 743 688 l 1
 659 259 l 2
 623 76 519 -10 328 -10 c 0
 156 -10 58 70 58 210 c 0
 58 239 64 286 69 310 c 2
 142 688 l 1
 286 688 l 1
 211 292 l 2
 205 264 202 236 202 208 c 0
 202 141 252 103 336 103 c 0
534 896 m 1
 630 761 l 1
 627 747 l 1
 555 747 l 1
 470 821 l 1
 468 821 l 1
 351 747 l 1
 268 747 l 1
 271 761 l 1
 422 896 l 1
 534 896 l 1
EndSplineSet
EndChar

StartChar: Udieresis
Encoding: 220 220 156
Width: 722
GlyphClass: 2
Flags: MW
HStem: -10 113<294 390 294 423.5> 668 20G<142 286 286 286 599 743 743 743> 747 107<313 397 293 418 525 610 313 504>
VStem: 58 144<174.5 222 174.5 224.5>
LayerCount: 2
Fore
SplineSet
336 103 m 0
 444 103 494 148 517 264 c 2
 599 688 l 1
 743 688 l 1
 659 259 l 2
 623 76 519 -10 328 -10 c 0
 156 -10 58 70 58 210 c 0
 58 239 64 286 69 310 c 2
 142 688 l 1
 286 688 l 1
 211 292 l 2
 205 264 202 236 202 208 c 0
 202 141 252 103 336 103 c 0
610 747 m 1
 504 747 l 1
 525 854 l 1
 631 854 l 1
 610 747 l 1
397 747 m 1
 293 747 l 1
 313 854 l 1
 418 854 l 1
 397 747 l 1
EndSplineSet
EndChar

StartChar: Yacute
Encoding: 221 221 157
Width: 667
GlyphClass: 2
Flags: MW
HStem: 0 21G<210 354 210 210> 668 20G<84 227 227 227 584 742 742 742> 862 21<611 611>
VStem: 84 658<688 688>
LayerCount: 2
Fore
SplineSet
408 282 m 1
 354 0 l 1
 210 0 l 1
 265 282 l 1
 84 688 l 1
 227 688 l 1
 353 393 l 1
 584 688 l 1
 742 688 l 1
 408 282 l 1
422 747 m 1
 350 747 l 1
 353 762 l 1
 485 883 l 1
 615 883 l 1
 611 862 l 1
 422 747 l 1
EndSplineSet
EndChar

StartChar: Thorn
Encoding: 222 222 158
Width: 667
GlyphClass: 2
Flags: MW
HStem: 0 21G<18 162 18 18> 132 111<188 350 209 350 350 372> 466 112<252 394 274 380> 668 20G<151 295 295 295>
VStem: 501 146<335.5 397.5>
LayerCount: 2
Fore
SplineSet
188 132 m 1
 162 0 l 1
 18 0 l 1
 151 688 l 1
 295 688 l 1
 274 578 l 1
 394 578 l 2
 554 578 647 501 647 372 c 0
 647 299 622 240 572 197 c 0
 523 154 456 132 372 132 c 2
 188 132 l 1
252 466 m 1
 209 243 l 1
 350 243 l 2
 451 243 501 279 501 364 c 0
 501 431 459 466 380 466 c 2
 252 466 l 1
EndSplineSet
EndChar

StartChar: germandbls
Encoding: 223 223 159
Width: 611
GlyphClass: 2
Flags: MW
HStem: -10 91<335.5 378 335.5 425.5> 0 21G<17 154 17 17> 625 100<347 407.5>
VStem: 312 127<357.5 373> 431 132<133.5 173.5> 455 125<557 587.5>
LayerCount: 2
Fore
SplineSet
154 0 m 1x64
 17 0 l 1
 115 501 l 2
 147 656 236 725 389 725 c 0
 508 725 580 671 580 584 c 0x64
 580 530 557 486 510 451 c 0
 454 410 439 395 439 371 c 0xb0
 439 344 454 328 501 293 c 0
 542 263 563 221 563 168 c 0
 563 60 485 -10 366 -10 c 0xa8
 300 -10 248 -1 209 18 c 1x68
 242 109 l 1
 293 85 319 81 352 81 c 0
 404 81 431 110 431 157 c 0xa8
 431 190 415 213 372 245 c 0
 329 274 312 306 312 351 c 0xb0
 312 395 332 428 383 465 c 0
 434 504 455 533 455 570 c 0
 455 605 430 625 385 625 c 0
 309 625 267 584 250 499 c 2
 154 0 l 1x64
EndSplineSet
EndChar

StartChar: agrave
Encoding: 224 224 160
Width: 556
GlyphClass: 2
Flags: MW
HStem: -10 96<109 243.5> -5 83<403.5 501.5> 246 75<269 269 269 347 268 269> 449 89<280.5 331.5> 578 15<342 417> 712 21<192 322>
VStem: 5 140<136.5 186.5 136.5 196> 334 124<47.5 114.5> 373 135<388 407>
LayerCount: 2
Fore
SplineSet
436 -5 m 0x7f
 371 -5 334 25 334 70 c 0x7f
 334 82 335 92 336 101 c 1
 333 101 l 1xbf
 278 17 231 -10 155 -10 c 0
 63 -10 5 51 5 136 c 0
 5 256 82 317 269 321 c 2
 362 322 l 1
 369 353 373 375 373 386 c 0
 373 428 352 449 311 449 c 0
 250 449 223 424 211 379 c 1
 83 395 l 1
 106 488 184 538 313 538 c 0
 448 538 508 491 508 394 c 0
 508 382 504 356 497 317 c 2xbe80
 462 145 l 2
 459 130 458 119 458 110 c 0
 458 79 487 78 497 78 c 0
 506 78 516 79 527 82 c 1
 520 6 l 1
 493 -5 465 -5 436 -5 c 0x7f
336 201 m 2
 347 246 l 1
 268 246 l 2
 192 245 145 214 145 159 c 0
 145 114 173 86 216 86 c 0xbe80
 271 86 319 132 336 201 c 2
414 578 m 1
 342 578 l 1
 192 712 l 1
 196 733 l 1
 322 733 l 1
 417 593 l 1
 414 578 l 1
EndSplineSet
EndChar

StartChar: aacute
Encoding: 225 225 161
Width: 556
GlyphClass: 2
Flags: MW
HStem: -10 96<109 243.5> -5 83<403.5 501.5> 246 75<269 269 269 347 268 269> 449 89<280.5 331.5> 712 21<520 520>
VStem: 5 140<136.5 186.5 136.5 196> 334 124<47.5 114.5> 373 135<388 407>
LayerCount: 2
Fore
SplineSet
436 -5 m 0x7e
 371 -5 334 25 334 70 c 0x7e
 334 82 335 92 336 101 c 1
 333 101 l 1xbe
 278 17 231 -10 155 -10 c 0
 63 -10 5 51 5 136 c 0
 5 256 82 317 269 321 c 2
 362 322 l 1
 369 353 373 375 373 386 c 0
 373 428 352 449 311 449 c 0
 250 449 223 424 211 379 c 1
 83 395 l 1
 106 488 184 538 313 538 c 0
 448 538 508 491 508 394 c 0
 508 382 504 356 497 317 c 2xbd
 462 145 l 2
 459 130 458 119 458 110 c 0
 458 79 487 78 497 78 c 0
 506 78 516 79 527 82 c 1
 520 6 l 1
 493 -5 465 -5 436 -5 c 0x7e
336 201 m 2
 347 246 l 1
 268 246 l 2
 192 245 145 214 145 159 c 0
 145 114 173 86 216 86 c 0xbd
 271 86 319 132 336 201 c 2
336 578 m 1
 265 578 l 1
 268 593 l 1
 388 733 l 1
 523 733 l 1
 520 712 l 1
 336 578 l 1
EndSplineSet
EndChar

StartChar: acircumflex
Encoding: 226 226 162
Width: 556
GlyphClass: 2
Flags: MW
HStem: -10 96<109 243.5> -5 83<403.5 501.5> 246 75<269 269 269 347 268 269> 449 89<280.5 331.5> 578 13<152 152 152 232 150 152> 578 169<150 420 150 420 309 510 309 437>
VStem: 5 140<136.5 186.5 136.5 196> 334 124<47.5 114.5> 373 135<388 407>
LayerCount: 2
Fore
SplineSet
436 -5 m 0x7b
 371 -5 334 25 334 70 c 0x7b
 334 82 335 92 336 101 c 1
 333 101 l 1xbb
 278 17 231 -10 155 -10 c 0
 63 -10 5 51 5 136 c 0
 5 256 82 317 269 321 c 2
 362 322 l 1
 369 353 373 375 373 386 c 0
 373 428 352 449 311 449 c 0
 250 449 223 424 211 379 c 1
 83 395 l 1
 106 488 184 538 313 538 c 0
 448 538 508 491 508 394 c 0
 508 382 504 356 497 317 c 2xba80
 462 145 l 2
 459 130 458 119 458 110 c 0
 458 79 487 78 497 78 c 0
 506 78 516 79 527 82 c 1
 520 6 l 1
 493 -5 465 -5 436 -5 c 0x7b
336 201 m 2
 347 246 l 1
 268 246 l 2
 192 245 145 214 145 159 c 0
 145 114 173 86 216 86 c 0xb680
 271 86 319 132 336 201 c 2
420 747 m 1
 512 591 l 1
 510 578 l 1
 437 578 l 1x7a80
 355 671 l 1
 354 671 l 1
 232 578 l 1
 150 578 l 1
 152 591 l 1
 309 747 l 1
 420 747 l 1
EndSplineSet
EndChar

StartChar: atilde
Encoding: 227 227 163
Width: 556
GlyphClass: 2
Flags: MW
HStem: -10 96<109 243.5> -5 83<403.5 501.5> 246 75<269 269 269 347 268 269> 449 89<280.5 331.5> 578 83<396.5 429 396.5 437.5> 638 83<245 278.5>
VStem: 5 140<136.5 186.5 136.5 196> 334 124<47.5 114.5> 373 135<388 407>
LayerCount: 2
Fore
SplineSet
436 -5 m 0x77
 371 -5 334 25 334 70 c 0x77
 334 82 335 92 336 101 c 1
 333 101 l 1xb7
 278 17 231 -10 155 -10 c 0
 63 -10 5 51 5 136 c 0
 5 256 82 317 269 321 c 2
 362 322 l 1
 369 353 373 375 373 386 c 0
 373 428 352 449 311 449 c 0
 250 449 223 424 211 379 c 1
 83 395 l 1
 106 488 184 538 313 538 c 0
 448 538 508 491 508 394 c 0
 508 382 504 356 497 317 c 2xb680
 462 145 l 2
 459 130 458 119 458 110 c 0
 458 79 487 78 497 78 c 0
 506 78 516 79 527 82 c 1
 520 6 l 1
 493 -5 465 -5 436 -5 c 0x77
336 201 m 2
 347 246 l 1
 268 246 l 2
 192 245 145 214 145 159 c 0
 145 114 173 86 216 86 c 0xba80
 271 86 319 132 336 201 c 2
404 578 m 0
 348 578 298 638 259 638 c 0
 231 638 215 625 199 578 c 1
 133 578 l 1
 158 681 203 721 270 721 c 0x7680
 330 721 378 661 415 661 c 0
 443 661 459 677 475 721 c 1
 541 721 l 1
 516 618 471 578 404 578 c 0
EndSplineSet
EndChar

StartChar: adieresis
Encoding: 228 228 164
Width: 556
GlyphClass: 2
Flags: MW
HStem: -10 96<109 243.5> -5 83<403.5 501.5> 246 75<269 269 269 347 268 269> 449 89<280.5 331.5> 585 107<192 275 171 296 404 489 192 383>
VStem: 5 140<136.5 186.5 136.5 196> 334 124<47.5 114.5> 373 135<388 407>
LayerCount: 2
Fore
SplineSet
436 -5 m 0x7e
 371 -5 334 25 334 70 c 0x7e
 334 82 335 92 336 101 c 1
 333 101 l 1xbe
 278 17 231 -10 155 -10 c 0
 63 -10 5 51 5 136 c 0
 5 256 82 317 269 321 c 2
 362 322 l 1
 369 353 373 375 373 386 c 0
 373 428 352 449 311 449 c 0
 250 449 223 424 211 379 c 1
 83 395 l 1
 106 488 184 538 313 538 c 0
 448 538 508 491 508 394 c 0
 508 382 504 356 497 317 c 2xbd
 462 145 l 2
 459 130 458 119 458 110 c 0
 458 79 487 78 497 78 c 0
 506 78 516 79 527 82 c 1
 520 6 l 1
 493 -5 465 -5 436 -5 c 0x7e
336 201 m 2
 347 246 l 1
 268 246 l 2
 192 245 145 214 145 159 c 0
 145 114 173 86 216 86 c 0xbd
 271 86 319 132 336 201 c 2
489 585 m 1
 383 585 l 1
 404 692 l 1
 510 692 l 1
 489 585 l 1
275 585 m 1
 171 585 l 1
 192 692 l 1
 296 692 l 1
 275 585 l 1
EndSplineSet
EndChar

StartChar: aring
Encoding: 229 229 165
Width: 556
GlyphClass: 2
Flags: MW
HStem: -10 96<109 243.5> -5 83<403.5 501.5> 246 75<269 269 269 347 268 269> 449 89<280.5 331.5> 575 61<328.5 362.5 328.5 362.5> 760 63<328.5 362 328 363>
VStem: 5 140<136.5 186.5 136.5 196> 221 63<681.5 716> 334 124<47.5 114.5> 373 135<388 407> 407 62<681.5 715.5>
LayerCount: 2
Fore
SplineSet
436 -5 m 0x7f80
 371 -5 334 25 334 70 c 0x7f80
 334 82 335 92 336 101 c 1
 333 101 l 1xbf80
 278 17 231 -10 155 -10 c 0
 63 -10 5 51 5 136 c 0
 5 256 82 317 269 321 c 2
 362 322 l 1
 369 353 373 375 373 386 c 0
 373 428 352 449 311 449 c 0
 250 449 223 424 211 379 c 1
 83 395 l 1
 106 488 184 538 313 538 c 0
 448 538 508 491 508 394 c 0
 508 382 504 356 497 317 c 2xbf40
 462 145 l 2
 459 130 458 119 458 110 c 0
 458 79 487 78 497 78 c 0
 506 78 516 79 527 82 c 1
 520 6 l 1
 493 -5 465 -5 436 -5 c 0x7f80
336 201 m 2
 347 246 l 1
 268 246 l 2
 192 245 145 214 145 159 c 0
 145 114 173 86 216 86 c 0xbf20
 271 86 319 132 336 201 c 2
469 699 m 0
 469 664 457 635 433 611 c 0
 409 587 380 575 345 575 c 0
 310 575 281 587 257 611 c 0
 233 635 221 664 221 699 c 0
 221 733 233 762 257 786 c 0
 282 811 311 823 345 823 c 0
 379 823 408 811 432 786 c 0
 457 762 469 733 469 699 c 0
407 699 m 0
 407 732 381 760 345 760 c 0
 312 760 284 734 284 699 c 0
 284 662 312 636 345 636 c 0
 380 636 407 663 407 699 c 0
EndSplineSet
EndChar

StartChar: ae
Encoding: 230 230 166
Width: 889
GlyphClass: 2
Flags: MW
HStem: -10 92<558 612 558 637.5> -10 96<124.5 258.5> 232 92<518 728 518 843 501 728> 244 78<247.5 378 285 363> 451 87<610.5 668>
VStem: 21 146<135.5 185.5 135.5 198> 729 126<351 385.5>
LayerCount: 2
Fore
SplineSet
843 232 m 1xae
 501 232 l 1x6e
 499 220 498 206 498 189 c 0
 498 120 528 82 588 82 c 0
 636 82 671 110 692 165 c 1
 812 128 l 1
 763 25 696 -10 579 -10 c 0
 482 -10 418 26 386 97 c 1
 369 71 351 50 330 35 c 0
 290 4 249 -10 170 -10 c 0
 79 -10 21 51 21 136 c 0
 21 260 109 322 285 322 c 2
 378 322 l 1x9e
 385 353 388 375 388 386 c 0
 388 428 367 449 326 449 c 0
 265 449 238 424 227 379 c 1
 99 395 l 1
 120 488 200 538 329 538 c 0
 396 538 445 520 475 483 c 1
 520 520 576 538 642 538 c 0
 778 538 855 465 855 337 c 0
 855 305 851 270 843 232 c 1xae
352 201 m 2
 363 244 l 1
 284 244 l 2x9e
 211 244 167 212 167 159 c 0
 167 112 189 86 232 86 c 0
 285 86 335 132 352 201 c 2
518 324 m 1xae
 728 324 l 1
 729 351 l 2
 729 420 694 451 642 451 c 0
 579 451 535 407 518 324 c 1xae
EndSplineSet
EndChar

StartChar: ccedilla
Encoding: 231 231 167
Width: 556
GlyphClass: 2
Flags: MW
HStem: -208 57<184.5 217 184.5 246> -83 42 -10 10<235 304 235 319.5> -10 94<233 288.5 233 319.5> 444 94<286.5 346.5>
VStem: 31 144<160.5 207.5 160.5 229.5> 267 90<-127 -103> 403 139<351 362>
LayerCount: 2
Fore
SplineSet
262 84 m 0x9f
 315 84 350 119 371 186 c 1
 503 162 l 1
 468 47 385 -10 254 -10 c 0xaf
 110 -10 31 67 31 198 c 0
 31 261 44 321 69 376 c 0
 121 488 204 538 332 538 c 0
 455 538 533 473 542 362 c 1
 403 351 l 1
 399 413 372 444 321 444 c 0
 252 444 218 402 186 281 c 0
 179 244 175 216 175 199 c 0
 175 122 204 84 262 84 c 0x9f
188 -208 m 0xef
 172 -208 155 -207 137 -205 c 1
 151 -147 l 1
 164 -150 178 -151 191 -151 c 0
 243 -151 267 -141 267 -113 c 0
 267 -93 249 -83 213 -83 c 2
 201 -83 l 1
 187 -83 l 1
 235 0 l 1
 304 0 l 1
 280 -41 l 1
 325 -41 357 -62 357 -105 c 0
 357 -168 304 -208 188 -208 c 0xef
EndSplineSet
EndChar

StartChar: egrave
Encoding: 232 232 168
Width: 556
GlyphClass: 2
Flags: MW
HStem: -10 92<231.5 285 231.5 310.5> 232 92<191 401 191 517 175 401> 451 87<284.5 341> 578 15<349 424> 712 21<199 329>
VStem: 31 140<154.5 197.5 154.5 306> 403 125<351 385.5>
LayerCount: 2
Fore
SplineSet
517 232 m 1
 175 232 l 1
 172 220 171 206 171 189 c 0
 171 120 202 82 261 82 c 0
 309 82 344 110 365 165 c 1
 485 128 l 1
 436 25 369 -10 252 -10 c 0
 113 -10 31 69 31 204 c 0
 31 408 144 538 315 538 c 0
 451 538 528 465 528 337 c 0
 528 305 524 270 517 232 c 1
191 324 m 1
 401 324 l 1
 403 351 l 1
 403 420 367 451 315 451 c 0
 254 451 210 407 191 324 c 1
421 578 m 1
 349 578 l 1
 199 712 l 1
 203 733 l 1
 329 733 l 1
 424 593 l 1
 421 578 l 1
EndSplineSet
EndChar

StartChar: eacute
Encoding: 233 233 169
Width: 556
GlyphClass: 2
Flags: MW
HStem: -10 92<231.5 285 231.5 310.5> 232 92<191 401 191 517 175 401> 451 87<284.5 341> 578 155<256 515 256 515>
VStem: 31 140<154.5 197.5 154.5 306> 403 125<351 385.5>
LayerCount: 2
Fore
SplineSet
517 232 m 1
 175 232 l 1
 172 220 171 206 171 189 c 0
 171 120 202 82 261 82 c 0
 309 82 344 110 365 165 c 1
 485 128 l 1
 436 25 369 -10 252 -10 c 0
 113 -10 31 69 31 204 c 0
 31 408 144 538 315 538 c 0
 451 538 528 465 528 337 c 0
 528 305 524 270 517 232 c 1
191 324 m 1
 401 324 l 1
 403 351 l 1
 403 420 367 451 315 451 c 0
 254 451 210 407 191 324 c 1
327 578 m 1
 256 578 l 1
 259 593 l 1
 379 733 l 1
 515 733 l 1
 511 712 l 1
 327 578 l 1
EndSplineSet
EndChar

StartChar: ecircumflex
Encoding: 234 234 170
Width: 556
GlyphClass: 2
Flags: MW
HStem: -10 92<231.5 285 231.5 310.5> 232 92<191 401 191 517 175 401> 451 87<284.5 341> 578 13<152 152 152 232 150 152> 578 169<150 420 150 420 309 510 309 437>
VStem: 31 140<154.5 197.5 154.5 306> 403 125<351 385.5>
LayerCount: 2
Fore
SplineSet
517 232 m 1xf6
 175 232 l 1
 172 220 171 206 171 189 c 0
 171 120 202 82 261 82 c 0
 309 82 344 110 365 165 c 1
 485 128 l 1
 436 25 369 -10 252 -10 c 0
 113 -10 31 69 31 204 c 0
 31 408 144 538 315 538 c 0
 451 538 528 465 528 337 c 0
 528 305 524 270 517 232 c 1xf6
191 324 m 1
 401 324 l 1
 403 351 l 1
 403 420 367 451 315 451 c 0
 254 451 210 407 191 324 c 1
420 747 m 1xee
 512 591 l 1
 510 578 l 1
 437 578 l 1xf6
 355 671 l 1
 354 671 l 1
 232 578 l 1
 150 578 l 1
 152 591 l 1
 309 747 l 1
 420 747 l 1xee
EndSplineSet
EndChar

StartChar: edieresis
Encoding: 235 235 171
Width: 556
GlyphClass: 2
Flags: MW
HStem: -10 92<231.5 285 231.5 310.5> 232 92<191 401 191 517 175 401> 451 87<284.5 341> 585 107<197 281 177 302 409 494 197 388>
VStem: 31 140<154.5 197.5 154.5 306> 403 125<351 385.5>
LayerCount: 2
Fore
SplineSet
517 232 m 1
 175 232 l 1
 172 220 171 206 171 189 c 0
 171 120 202 82 261 82 c 0
 309 82 344 110 365 165 c 1
 485 128 l 1
 436 25 369 -10 252 -10 c 0
 113 -10 31 69 31 204 c 0
 31 408 144 538 315 538 c 0
 451 538 528 465 528 337 c 0
 528 305 524 270 517 232 c 1
191 324 m 1
 401 324 l 1
 403 351 l 1
 403 420 367 451 315 451 c 0
 254 451 210 407 191 324 c 1
494 585 m 1
 388 585 l 1
 409 692 l 1
 515 692 l 1
 494 585 l 1
281 585 m 1
 177 585 l 1
 197 692 l 1
 302 692 l 1
 281 585 l 1
EndSplineSet
EndChar

StartChar: igrave
Encoding: 236 236 172
Width: 278
GlyphClass: 2
Flags: MW
HStem: 0 21G<17 154 17 17> 508 20G<120 257 257 257> 578 15<198 273> 712 21<48 178>
VStem: 17 256
LayerCount: 2
Fore
SplineSet
154 0 m 1
 17 0 l 1
 120 528 l 1
 257 528 l 1
 154 0 l 1
270 578 m 1
 198 578 l 1
 48 712 l 1
 52 733 l 1
 178 733 l 1
 273 593 l 1
 270 578 l 1
EndSplineSet
EndChar

StartChar: iacute
Encoding: 237 237 173
Width: 278
GlyphClass: 2
Flags: MW
HStem: 0 21G<17 154 17 17> 508 20G<120 257 257 257> 578 155<126 385 126 385>
VStem: 17 368
LayerCount: 2
Fore
SplineSet
154 0 m 1
 17 0 l 1
 120 528 l 1
 257 528 l 1
 154 0 l 1
197 578 m 1
 126 578 l 1
 129 593 l 1
 250 733 l 1
 385 733 l 1
 381 712 l 1
 197 578 l 1
EndSplineSet
EndChar

StartChar: icircumflex
Encoding: 238 238 174
Width: 278
GlyphClass: 2
Flags: MW
HStem: 0 21G<17 154 17 17> 508 20G<120 257 257 257> 578 13<16 16 16 96 13 16> 578 169<13 284 13 284 172 373 172 300>
VStem: 13 362<578 591>
LayerCount: 2
Fore
SplineSet
154 0 m 1xe8
 17 0 l 1
 120 528 l 1
 257 528 l 1
 154 0 l 1xe8
284 747 m 1xd8
 375 591 l 1
 373 578 l 1
 300 578 l 1xe8
 219 671 l 1
 217 671 l 1
 96 578 l 1
 13 578 l 1
 16 591 l 1
 172 747 l 1
 284 747 l 1xd8
EndSplineSet
EndChar

StartChar: idieresis
Encoding: 239 239 175
Width: 278
GlyphClass: 2
Flags: MW
HStem: 0 21G<17 154 17 17> 508 20G<120 257 257 257> 585 107<60 144 40 165 272 357 60 251>
VStem: 17 361
LayerCount: 2
Fore
SplineSet
154 0 m 1
 17 0 l 1
 120 528 l 1
 257 528 l 1
 154 0 l 1
357 585 m 1
 251 585 l 1
 272 692 l 1
 378 692 l 1
 357 585 l 1
144 585 m 1
 40 585 l 1
 60 692 l 1
 165 692 l 1
 144 585 l 1
EndSplineSet
EndChar

StartChar: eth
Encoding: 240 240 176
Width: 611
GlyphClass: 2
Flags: MW
HStem: -10 94<241 306.5> 384 94<276.5 337 272.5 355> 637 88<323 323>
VStem: 28 144<159.5 242> 424 148<297.5 323.5>
LayerCount: 2
Fore
SplineSet
250 609 m 1
 323 637 l 1
 282 676 246 706 214 725 c 1
 357 725 l 1
 381 712 404 697 426 679 c 1
 570 732 l 1
 555 646 l 1
 484 620 l 1
 545 540 572 460 572 355 c 0
 572 240 544 151 488 86 c 0
 433 22 356 -10 257 -10 c 0
 114 -10 28 71 28 200 c 0
 28 284 54 351 106 402 c 0
 158 453 228 478 317 478 c 0
 357 478 406 464 430 447 c 1
 420 493 400 536 369 576 c 1
 234 522 l 1
 250 609 l 1
321 384 m 0
 232 384 172 308 172 193 c 0
 172 126 211 84 271 84 c 0
 357 84 424 178 424 296 c 0
 424 351 389 384 321 384 c 0
EndSplineSet
EndChar

StartChar: ntilde
Encoding: 241 241 177
Width: 611
GlyphClass: 2
Flags: MW
HStem: 0 21G<17 155 17 17 360 497 360 360> 434 104<339.5 469> 508 20G<117 248 248 248> 578 83<440.5 473 440.5 482.5> 638 83<289.5 323>
VStem: 117 131<526.5 528> 431 138<364.5 443.5>
LayerCount: 2
Fore
SplineSet
497 0 m 1xae
 360 0 l 1
 418 291 l 2
 427 331 431 358 431 371 c 0
 431 413 406 434 356 434 c 0
 323 434 293 421 265 394 c 0xd6
 237 367 219 335 212 296 c 2
 155 0 l 1
 17 0 l 1
 98 416 l 2
 103 441 110 479 117 528 c 1
 248 528 l 2
 248 525 246 512 243 487 c 2xae
 236 438 l 1
 237 438 l 1
 286 506 343 538 419 538 c 0xce
 519 538 569 488 569 399 c 0
 569 391 568 378 565 360 c 0
 563 342 561 328 559 319 c 2
 497 0 l 1xae
449 578 m 0
 392 578 343 638 303 638 c 0
 276 638 260 625 244 578 c 1
 177 578 l 1
 202 681 247 721 314 721 c 0xae
 374 721 422 661 459 661 c 0
 487 661 504 677 520 721 c 1
 585 721 l 1
 560 618 516 578 449 578 c 0
EndSplineSet
EndChar

StartChar: ograve
Encoding: 242 242 178
Width: 611
GlyphClass: 2
Flags: MW
HStem: -10 94<242.5 261> 444 94<344 367> 578 15<361 436> 712 21<211 341>
VStem: 31 144<168 205> 435 144<333 363.5>
LayerCount: 2
Fore
SplineSet
579 333 m 0
 582 131 445 -13 261 -10 c 0
 120 -10 31 72 31 205 c 0
 27 400 159 540 344 538 c 0
 496 538 579 464 579 333 c 0
435 323 m 1
 435 404 401 444 333 444 c 0
 296 444 267 434 245 414 c 0
 223 395 206 365 193 325 c 0
 181 286 175 247 175 210 c 0
 175 126 209 84 276 84 c 0
 384 80 425 177 435 323 c 1
433 578 m 1
 361 578 l 1
 211 712 l 1
 215 733 l 1
 341 733 l 1
 436 593 l 1
 433 578 l 1
EndSplineSet
EndChar

StartChar: oacute
Encoding: 243 243 179
Width: 611
GlyphClass: 2
Flags: MW
HStem: -10 94<242.5 261> 444 94<344 367> 578 155<302 561 302 561>
VStem: 31 144<168 205> 435 144<333 363.5>
LayerCount: 2
Fore
SplineSet
579 333 m 0
 582 131 445 -13 261 -10 c 0
 120 -10 31 72 31 205 c 0
 27 400 159 540 344 538 c 0
 496 538 579 464 579 333 c 0
435 323 m 1
 435 404 401 444 333 444 c 0
 296 444 267 434 245 414 c 0
 223 395 206 365 193 325 c 0
 181 286 175 247 175 210 c 0
 175 126 209 84 276 84 c 0
 384 80 425 177 435 323 c 1
374 578 m 1
 302 578 l 1
 305 593 l 1
 426 733 l 1
 561 733 l 1
 557 712 l 1
 374 578 l 1
EndSplineSet
EndChar

StartChar: ocircumflex
Encoding: 244 244 180
Width: 611
GlyphClass: 2
Flags: MW
HStem: -10 94<242.5 261> 444 94<344 367> 578 13<178 178 178 258 176 178> 578 169<176 446 176 446 334 536 334 462>
VStem: 31 144<168 205> 435 144<333 363.5>
LayerCount: 2
Fore
SplineSet
579 333 m 0xec
 582 131 445 -13 261 -10 c 0
 120 -10 31 72 31 205 c 0
 27 400 159 540 344 538 c 0
 496 538 579 464 579 333 c 0xec
435 323 m 1
 435 404 401 444 333 444 c 0
 296 444 267 434 245 414 c 0
 223 395 206 365 193 325 c 0
 181 286 175 247 175 210 c 0
 175 126 209 84 276 84 c 0
 384 80 425 177 435 323 c 1
446 747 m 1xdc
 538 591 l 1
 536 578 l 1
 462 578 l 1xec
 381 671 l 1
 379 671 l 1
 258 578 l 1
 176 578 l 1
 178 591 l 1
 334 747 l 1
 446 747 l 1xdc
EndSplineSet
EndChar

StartChar: otilde
Encoding: 245 245 181
Width: 611
GlyphClass: 2
Flags: MW
HStem: -10 94<242.5 261> 444 94<344 367> 578 83<427.5 460 427.5 468.5> 638 83<276.5 310>
VStem: 31 144<168 205> 435 144<333 363.5>
LayerCount: 2
Fore
SplineSet
579 333 m 0xdc
 582 131 445 -13 261 -10 c 0
 120 -10 31 72 31 205 c 0
 27 400 159 540 344 538 c 0
 496 538 579 464 579 333 c 0xdc
435 323 m 1
 435 404 401 444 333 444 c 0
 296 444 267 434 245 414 c 0
 223 395 206 365 193 325 c 0
 181 286 175 247 175 210 c 0
 175 126 209 84 276 84 c 0
 384 80 425 177 435 323 c 1
436 578 m 0xec
 379 578 330 638 290 638 c 0
 263 638 247 625 230 578 c 1
 164 578 l 1
 189 681 234 721 301 721 c 0xdc
 361 721 409 661 446 661 c 0
 474 661 491 677 506 721 c 1
 572 721 l 1
 547 618 501 578 436 578 c 0xec
EndSplineSet
EndChar

StartChar: odieresis
Encoding: 246 246 182
Width: 611
GlyphClass: 2
Flags: MW
HStem: -10 94<242.5 261> 444 94<344 367> 585 107<228 312 208 333 440 525 228 419>
VStem: 31 144<168 205> 435 144<333 363.5>
LayerCount: 2
Fore
SplineSet
579 333 m 0
 582 131 445 -13 261 -10 c 0
 120 -10 31 72 31 205 c 0
 27 400 159 540 344 538 c 0
 496 538 579 464 579 333 c 0
435 323 m 1
 435 404 401 444 333 444 c 0
 296 444 267 434 245 414 c 0
 223 395 206 365 193 325 c 0
 181 286 175 247 175 210 c 0
 175 126 209 84 276 84 c 0
 384 80 425 177 435 323 c 1
525 585 m 1
 419 585 l 1
 440 692 l 1
 546 692 l 1
 525 585 l 1
312 585 m 1
 208 585 l 1
 228 692 l 1
 333 692 l 1
 312 585 l 1
EndSplineSet
EndChar

StartChar: divide
Encoding: 247 247 183
Width: 549
GlyphClass: 2
Flags: MW
HStem: 83 114<226 342 226 342> 278 109<34 535 34 535> 469 114<226 342 226 342>
VStem: 226 116<83 197 83 197 469 583>
LayerCount: 2
Fore
SplineSet
342 469 m 1
 226 469 l 1
 226 583 l 1
 342 583 l 1
 342 469 l 1
535 278 m 1
 34 278 l 1
 34 387 l 1
 535 387 l 1
 535 278 l 1
342 83 m 1
 226 83 l 1
 226 197 l 1
 342 197 l 1
 342 83 l 1
EndSplineSet
EndChar

StartChar: oslash
Encoding: 248 248 184
Width: 611
GlyphClass: 2
Flags: MW
HStem: -19 75<84 84 84 114 21 84> -10 94<238.5 276> 444 94<344 347.5> 469 76<533 533>
VStem: 31 144<202 205> 435 144<323 361>
LayerCount: 2
Fore
SplineSet
114 -19 m 1xac
 21 -19 l 1
 84 56 l 1
 49 93 31 142 31 205 c 0
 27 400 159 540 344 538 c 0
 395 538 440 529 477 511 c 1xac
 506 545 l 1
 599 545 l 1
 533 469 l 1
 564 434 579 389 579 333 c 0
 582 131 445 -13 261 -10 c 0
 216 -10 177 -2 142 14 c 1x5c
 114 -19 l 1xac
175 210 m 0
 175 194 176 179 179 165 c 1
 401 422 l 1
 384 437 362 444 333 444 c 0
 296 444 267 434 245 414 c 0
 223 395 206 365 193 325 c 0
 181 286 175 247 175 210 c 0
435 323 m 0
 435 334 434 344 433 353 c 1
 216 101 l 1
 232 90 252 84 276 84 c 0x6c
 384 80 425 177 435 323 c 0
EndSplineSet
EndChar

StartChar: ugrave
Encoding: 249 249 185
Width: 611
GlyphClass: 2
Flags: MW
HStem: -9 103<141.5 270.5> 0 21G<363 494 363 363> 508 20G<114 250 250 250 456 593 593 593> 578 15<358 433> 712 21<208 338>
VStem: 42 138<136 137.5> 363 131<0 1.5>
LayerCount: 2
Fore
SplineSet
114 528 m 1x7e
 250 528 l 1
 192 238 l 2
 184 198 180 171 180 157 c 0
 180 115 205 94 254 94 c 0
 287 94 317 107 345 133 c 0xbe
 373 160 391 193 398 232 c 2
 456 528 l 1
 593 528 l 1
 512 113 l 2
 507 87 501 49 494 0 c 1
 363 0 l 2
 363 3 364 16 367 41 c 0x7e
 370 66 373 82 375 90 c 1
 373 90 l 1
 324 21 267 -9 191 -9 c 0xbe
 92 -9 42 40 42 129 c 0
 42 146 47 192 52 209 c 2
 114 528 l 1x7e
430 578 m 1
 358 578 l 1
 208 712 l 1
 212 733 l 1
 338 733 l 1
 433 593 l 1
 430 578 l 1
EndSplineSet
EndChar

StartChar: uacute
Encoding: 250 250 186
Width: 611
GlyphClass: 2
Flags: MW
HStem: -9 103<141.5 270.5> 0 21G<363 494 363 363> 508 20G<114 250 250 250 456 593 593 593> 578 155<295 554 295 554>
VStem: 42 138<136 137.5> 363 131<0 1.5>
LayerCount: 2
Fore
SplineSet
114 528 m 1x7c
 250 528 l 1
 192 238 l 2
 184 198 180 171 180 157 c 0
 180 115 205 94 254 94 c 0
 287 94 317 107 345 133 c 0xbc
 373 160 391 193 398 232 c 2
 456 528 l 1
 593 528 l 1
 512 113 l 2
 507 87 501 49 494 0 c 1
 363 0 l 2
 363 3 364 16 367 41 c 0x7c
 370 66 373 82 375 90 c 1
 373 90 l 1
 324 21 267 -9 191 -9 c 0xbc
 92 -9 42 40 42 129 c 0
 42 146 47 192 52 209 c 2
 114 528 l 1x7c
366 578 m 1
 295 578 l 1
 298 593 l 1
 418 733 l 1
 554 733 l 1
 550 712 l 1
 366 578 l 1
EndSplineSet
EndChar

StartChar: ucircumflex
Encoding: 251 251 187
Width: 611
GlyphClass: 2
Flags: MW
HStem: -9 103<141.5 270.5> 0 21G<363 494 363 363> 508 20G<114 250 250 250 456 593 593 593> 578 13<183 183 183 263 180 183> 578 169<180 451 180 451 339 540 339 467>
VStem: 42 138<136 137.5> 363 131<0 1.5>
LayerCount: 2
Fore
SplineSet
114 528 m 1x76
 250 528 l 1
 192 238 l 2
 184 198 180 171 180 157 c 0
 180 115 205 94 254 94 c 0
 287 94 317 107 345 133 c 0xae
 373 160 391 193 398 232 c 2
 456 528 l 1
 593 528 l 1
 512 113 l 2
 507 87 501 49 494 0 c 1
 363 0 l 2
 363 3 364 16 367 41 c 0x76
 370 66 373 82 375 90 c 1
 373 90 l 1
 324 21 267 -9 191 -9 c 0xb6
 92 -9 42 40 42 129 c 0
 42 146 47 192 52 209 c 2
 114 528 l 1x76
451 747 m 1
 542 591 l 1
 540 578 l 1
 467 578 l 1x76
 386 671 l 1
 384 671 l 1
 263 578 l 1
 180 578 l 1
 183 591 l 1
 339 747 l 1
 451 747 l 1
EndSplineSet
EndChar

StartChar: udieresis
Encoding: 252 252 188
Width: 611
GlyphClass: 2
Flags: MW
HStem: -9 103<141.5 270.5> 0 21G<363 494 363 363> 508 20G<114 250 250 250 456 593 593 593> 585 107<226 309 205 330 438 522 226 417>
VStem: 42 138<136 137.5> 363 131<0 1.5>
LayerCount: 2
Fore
SplineSet
114 528 m 1x7c
 250 528 l 1
 192 238 l 2
 184 198 180 171 180 157 c 0
 180 115 205 94 254 94 c 0
 287 94 317 107 345 133 c 0xbc
 373 160 391 193 398 232 c 2
 456 528 l 1
 593 528 l 1
 512 113 l 2
 507 87 501 49 494 0 c 1
 363 0 l 2
 363 3 364 16 367 41 c 0x7c
 370 66 373 82 375 90 c 1
 373 90 l 1
 324 21 267 -9 191 -9 c 0xbc
 92 -9 42 40 42 129 c 0
 42 146 47 192 52 209 c 2
 114 528 l 1x7c
522 585 m 1
 417 585 l 1
 438 692 l 1
 543 692 l 1
 522 585 l 1
309 585 m 1
 205 585 l 1
 226 692 l 1
 330 692 l 1
 309 585 l 1
EndSplineSet
EndChar

StartChar: yacute
Encoding: 253 253 189
Width: 556
GlyphClass: 2
Flags: MW
HStem: -208 101<27.5 45.5 12.5 73> 508 20G<55 197 197 197 451 598 598 598> 578 155<257 516 257 516>
VStem: -42 640
LayerCount: 2
Fore
SplineSet
43 -208 m 0
 12 -208 -17 -205 -42 -199 c 1
 -23 -103 l 1
 -10 -106 5 -107 20 -107 c 0
 71 -107 106 -80 145 -12 c 2
 158 12 l 1
 55 528 l 1
 197 528 l 1
 231 286 l 2
 233 276 237 247 242 199 c 0
 247 151 250 126 249 123 c 2
 257 141 l 1
 325 284 l 1
 451 528 l 1
 598 528 l 1
 278 -28 l 2
 243 -82 215 -120 193 -142 c 0
 149 -187 103 -208 43 -208 c 0
329 578 m 1
 257 578 l 1
 260 593 l 1
 381 733 l 1
 516 733 l 1
 512 712 l 1
 329 578 l 1
EndSplineSet
EndChar

StartChar: thorn
Encoding: 254 254 190
Width: 611
GlyphClass: 2
Flags: MW
HStem: -208 21G<-22 114 -22 -22> -10 94<282.5 309.5 262.5 379.5> 443 95<375.5 382.5>
VStem: 434 145<332.5 373.5>
LayerCount: 2
Fore
SplineSet
355 443 m 0
 274 443 225 386 204 271 c 0
 198 240 195 215 195 196 c 0
 195 127 232 84 293 84 c 0
 326 84 353 94 372 115 c 0
 391 136 406 170 417 216 c 0
 428 263 434 304 434 339 c 0
 434 408 410 443 355 443 c 0
238 446 m 1
 241 446 l 1
 288 511 337 538 414 538 c 0
 518 538 579 473 579 365 c 0
 579 300 569 236 548 173 c 0
 508 49 436 -10 323 -10 c 0
 242 -10 191 26 170 87 c 1
 169 87 l 1
 163 43 l 1
 154 -5 l 1
 114 -208 l 1
 -22 -208 l 1
 158 725 l 1
 295 725 l 1
 254 516 l 2
 249 486 243 463 238 446 c 1
EndSplineSet
EndChar

StartChar: ydieresis
Encoding: 255 255 191
Width: 556
GlyphClass: 2
Flags: MW
HStem: -208 101<36 53.5 20.5 82> 508 20G<63 206 206 206 460 606 606 606> 584 107<203 287 183 308 415 500 203 394>
VStem: -33 639
LayerCount: 2
Fore
SplineSet
52 -208 m 0
 20 -208 -8 -205 -33 -199 c 1
 -14 -103 l 1
 -1 -106 13 -107 28 -107 c 0
 79 -107 116 -80 153 -12 c 2
 167 12 l 1
 63 528 l 1
 206 528 l 1
 240 286 l 2
 242 276 245 247 250 199 c 0
 255 151 258 126 257 123 c 2
 266 141 l 1
 333 284 l 1
 460 528 l 1
 606 528 l 1
 287 -28 l 2
 252 -82 224 -120 202 -142 c 0
 158 -187 112 -208 52 -208 c 0
500 584 m 1
 394 584 l 1
 415 691 l 1
 521 691 l 1
 500 584 l 1
287 584 m 1
 183 584 l 1
 203 691 l 1
 308 691 l 1
 287 584 l 1
EndSplineSet
EndChar

StartChar: Amacron
Encoding: 256 256 192
Width: 722
GlyphClass: 2
Flags: MW
HStem: 0 21G<-21 123 -21 -21 507 650 507 507> 176 108<276 469 276 480 218 469> 582 106 668 20G<364 534 534 534> 750 83<324 594 308 612>
VStem: -21 671<0 0>
LayerCount: 2
Fore
SplineSet
650 0 m 1xdc
 507 0 l 1
 480 176 l 1
 218 176 l 1
 123 0 l 1
 -21 0 l 1
 364 688 l 1
 534 688 l 1
 650 0 l 1xdc
428 582 m 1xec
 421 561 405 527 380 479 c 2
 276 284 l 1
 469 284 l 1
 437 505 l 2
 431 549 428 575 428 582 c 1xec
612 833 m 1
 594 750 l 1
 308 750 l 1
 324 833 l 1
 612 833 l 1
EndSplineSet
EndChar

StartChar: amacron
Encoding: 257 257 193
Width: 556
GlyphClass: 2
Flags: MW
HStem: -10 96<109 243.5> -5 83<403.5 501.5> 246 75<269 269 269 347 268 269> 449 89<280.5 331.5> 587 82<204 474 188 492>
VStem: 5 140<136.5 186.5 136.5 196> 334 124<47.5 114.5> 373 135<388 407>
LayerCount: 2
Fore
SplineSet
436 -5 m 0x7e
 371 -5 334 25 334 70 c 0x7e
 334 82 335 92 336 101 c 1
 333 101 l 1xbe
 278 17 231 -10 155 -10 c 0
 63 -10 5 51 5 136 c 0
 5 256 82 317 269 321 c 2
 362 322 l 1
 369 353 373 375 373 386 c 0
 373 428 352 449 311 449 c 0
 250 449 223 424 211 379 c 1
 83 395 l 1
 106 488 184 538 313 538 c 0
 448 538 508 491 508 394 c 0
 508 382 504 356 497 317 c 2xbd
 462 145 l 2
 459 130 458 119 458 110 c 0
 458 79 487 78 497 78 c 0
 506 78 516 79 527 82 c 1
 520 6 l 1
 493 -5 465 -5 436 -5 c 0x7e
336 201 m 2
 347 246 l 1
 268 246 l 2
 192 245 145 214 145 159 c 0
 145 114 173 86 216 86 c 0xbd
 271 86 319 132 336 201 c 2
492 669 m 1
 474 587 l 1
 188 587 l 1
 204 669 l 1
 492 669 l 1
EndSplineSet
EndChar

StartChar: Abreve
Encoding: 258 258 194
Width: 722
GlyphClass: 2
Flags: MW
HStem: 0 21G<-21 123 -21 -21 507 650 507 507> 176 108<276 469 276 480 218 469> 582 106 668 20G<364 534 534 534> 742 68<436 487.5 436 503.5>
VStem: 298 81<866 890 866 890>
LayerCount: 2
Fore
SplineSet
650 0 m 1xdc
 507 0 l 1
 480 176 l 1
 218 176 l 1
 123 0 l 1
 -21 0 l 1
 364 688 l 1
 534 688 l 1
 650 0 l 1xdc
428 582 m 1xec
 421 561 405 527 380 479 c 2
 276 284 l 1
 469 284 l 1
 437 505 l 2
 431 549 428 575 428 582 c 1xec
451 742 m 0
 359 742 298 798 298 890 c 1
 379 890 l 1
 379 842 410 810 462 810 c 0
 513 810 548 833 565 890 c 1
 645 890 l 1
 618 790 556 742 451 742 c 0
EndSplineSet
EndChar

StartChar: abreve
Encoding: 259 259 195
Width: 556
GlyphClass: 2
Flags: MW
HStem: -10 96<109 243.5> -5 83<403.5 501.5> 246 75<269 269 269 347 268 269> 449 89<280.5 331.5> 578 76<329 378.5 329 397>
VStem: 5 140<136.5 186.5 136.5 196> 192 80<711 717> 334 124<47.5 114.5> 373 135<388 407>
LayerCount: 2
Fore
SplineSet
436 -5 m 0x7f
 371 -5 334 25 334 70 c 0x7f
 334 82 335 92 336 101 c 1
 333 101 l 1xbf
 278 17 231 -10 155 -10 c 0
 63 -10 5 51 5 136 c 0
 5 256 82 317 269 321 c 2
 362 322 l 1
 369 353 373 375 373 386 c 0
 373 428 352 449 311 449 c 0
 250 449 223 424 211 379 c 1
 83 395 l 1
 106 488 184 538 313 538 c 0
 448 538 508 491 508 394 c 0
 508 382 504 356 497 317 c 2xbe80
 462 145 l 2
 459 130 458 119 458 110 c 0
 458 79 487 78 497 78 c 0
 506 78 516 79 527 82 c 1
 520 6 l 1
 493 -5 465 -5 436 -5 c 0x7f
336 201 m 2
 347 246 l 1
 268 246 l 2
 192 245 145 214 145 159 c 0
 145 114 173 86 216 86 c 0xbe80
 271 86 319 132 336 201 c 2
345 578 m 0
 253 578 192 633 192 717 c 1
 193 735 l 1
 272 735 l 1
 272 687 305 654 353 654 c 0
 404 654 443 684 458 735 c 1
 539 735 l 1
 511 628 449 578 345 578 c 0
EndSplineSet
EndChar

StartChar: Aogonek
Encoding: 260 260 196
Width: 722
GlyphClass: 2
Flags: MW
HStem: -202 67<505.5 580> 0 10<525 605 525 650> 176 108<276 469 276 480 218 469> 582 106 668 20G<364 534 534 534>
VStem: 437 97<-110 -91>
LayerCount: 2
Fore
SplineSet
650 0 m 1x6c
 507 0 l 1
 480 176 l 1
 218 176 l 1
 123 0 l 1
 -21 0 l 1
 364 688 l 1
 534 688 l 1
 650 0 l 1x6c
428 582 m 1xf4
 421 561 405 527 380 479 c 2
 276 284 l 1
 469 284 l 1
 437 505 l 2
 431 549 428 575 428 582 c 1xf4
535 -202 m 0
 476 -202 437 -168 437 -115 c 0
 437 -67 466 -22 525 10 c 1
 605 10 l 1
 565 -14 534 -62 534 -98 c 0
 534 -122 549 -135 572 -135 c 0
 588 -135 605 -131 622 -124 c 1
 613 -186 l 1
 587 -197 561 -202 535 -202 c 0
EndSplineSet
EndChar

StartChar: aogonek
Encoding: 261 261 197
Width: 556
GlyphClass: 2
Flags: MW
HStem: -208 68<365.5 440> -10 96<109 243.5> -5 10<403.5 450.5> 246 75<269 269 269 347 268 269> 449 89<280.5 331.5>
VStem: 5 140<136.5 186.5 136.5 196> 297 97<-115.5 -96> 334 124<47.5 114.5> 373 135<388 407>
LayerCount: 2
Fore
SplineSet
436 -5 m 0xbd
 371 -5 334 25 334 70 c 0xbd
 334 82 335 92 336 101 c 1
 333 101 l 1xdd
 278 17 231 -10 155 -10 c 0
 63 -10 5 51 5 136 c 0
 5 256 82 317 269 321 c 2
 362 322 l 1
 369 353 373 375 373 386 c 0
 373 428 352 449 311 449 c 0
 250 449 223 424 211 379 c 1
 83 395 l 1
 106 488 184 538 313 538 c 0
 448 538 508 491 508 394 c 0
 508 382 504 356 497 317 c 2xdc80
 462 145 l 2
 459 130 458 119 458 110 c 0
 458 79 487 78 497 78 c 0
 506 78 516 79 527 82 c 1
 520 6 l 1
 493 -5 465 -5 436 -5 c 0xbd
336 201 m 2
 347 246 l 1
 268 246 l 2
 192 245 145 214 145 159 c 0
 145 114 173 86 216 86 c 0xde
 271 86 319 132 336 201 c 2
395 -208 m 0
 336 -208 297 -175 297 -120 c 0
 297 -72 326 -28 385 5 c 1
 465 5 l 1xbe
 425 -20 394 -67 394 -103 c 0
 394 -128 409 -140 432 -140 c 0
 448 -140 465 -136 482 -129 c 1
 473 -191 l 1
 447 -202 421 -208 395 -208 c 0
EndSplineSet
EndChar

StartChar: Cacute
Encoding: 262 262 198
Width: 722
GlyphClass: 2
Flags: MW
HStem: -10 113<305 400.5 305 421> 585 113<453 486.5> 862 21<672 672>
VStem: 49 147<223.5 278>
LayerCount: 2
Fore
SplineSet
196 280 m 0
 196 167 253 103 357 103 c 0
 444 103 512 145 561 229 c 1
 672 172 l 1
 603 51 495 -10 347 -10 c 0
 159 -10 49 104 49 278 c 0
 46 525 218 703 453 698 c 0
 602 698 701 634 734 507 c 1
 600 472 l 1
 581 541 525 585 448 585 c 0
 369 585 308 558 263 503 c 0
 218 448 196 374 196 280 c 0
484 747 m 1
 411 747 l 1
 415 762 l 1
 546 883 l 1
 677 883 l 1
 672 862 l 1
 484 747 l 1
EndSplineSet
EndChar

StartChar: cacute
Encoding: 263 263 199
Width: 556
GlyphClass: 2
Flags: MW
HStem: -10 94<233 288.5 233 319.5> 444 94<286.5 346.5> 578 155<294 553 294 553>
VStem: 31 144<160.5 207.5 160.5 229.5> 403 139<351 362>
LayerCount: 2
Fore
SplineSet
262 84 m 0
 315 84 350 119 371 186 c 1
 503 162 l 1
 468 47 385 -10 254 -10 c 0
 110 -10 31 67 31 198 c 0
 31 261 44 321 69 376 c 0
 121 488 204 538 332 538 c 0
 455 538 533 473 542 362 c 1
 403 351 l 1
 399 413 372 444 321 444 c 0
 252 444 218 402 186 281 c 0
 179 244 175 216 175 199 c 0
 175 122 204 84 262 84 c 0
366 578 m 1
 294 578 l 1
 297 593 l 1
 418 733 l 1
 553 733 l 1
 549 712 l 1
 366 578 l 1
EndSplineSet
EndChar

StartChar: Ccircumflex
Encoding: 264 264 200
Width: 722
GlyphClass: 2
Flags: MW
HStem: -10 113<305 400.5 305 421> 585 113<453 486.5> 747 14<294 294 294 375 292 294> 821 75<492 494 492 492>
VStem: 49 147<223.5 278>
LayerCount: 2
Fore
SplineSet
196 280 m 0
 196 167 253 103 357 103 c 0
 444 103 512 145 561 229 c 1
 672 172 l 1
 603 51 495 -10 347 -10 c 0
 159 -10 49 104 49 278 c 0
 46 525 218 703 453 698 c 0
 602 698 701 634 734 507 c 1
 600 472 l 1
 581 541 525 585 448 585 c 0
 369 585 308 558 263 503 c 0
 218 448 196 374 196 280 c 0
558 896 m 1
 654 761 l 1
 651 747 l 1
 579 747 l 1
 494 821 l 1
 492 821 l 1
 375 747 l 1
 292 747 l 1
 294 761 l 1
 446 896 l 1
 558 896 l 1
EndSplineSet
EndChar

StartChar: ccircumflex
Encoding: 265 265 201
Width: 556
GlyphClass: 2
Flags: MW
HStem: -10 94<233 288.5 233 319.5> 444 94<286.5 346.5> 578 13<152 152 152 232 149 152> 578 169<149 420 149 420 308 509 308 436>
VStem: 31 144<160.5 207.5 160.5 229.5> 403 139<351 362>
LayerCount: 2
Fore
SplineSet
262 84 m 0xec
 315 84 350 119 371 186 c 1
 503 162 l 1
 468 47 385 -10 254 -10 c 0
 110 -10 31 67 31 198 c 0
 31 261 44 321 69 376 c 0
 121 488 204 538 332 538 c 0
 455 538 533 473 542 362 c 1
 403 351 l 1
 399 413 372 444 321 444 c 0
 252 444 218 402 186 281 c 0
 179 244 175 216 175 199 c 0
 175 122 204 84 262 84 c 0xec
420 747 m 1xdc
 512 591 l 1
 509 578 l 1
 436 578 l 1xec
 355 671 l 1
 353 671 l 1
 232 578 l 1
 149 578 l 1
 152 591 l 1
 308 747 l 1
 420 747 l 1xdc
EndSplineSet
EndChar

StartChar: Cdotaccent
Encoding: 266 266 202
Width: 722
GlyphClass: 2
Flags: MW
HStem: -10 113<305 400.5 305 421> 585 113<453 486.5> 752 101<399 516 379 536>
VStem: 49 147<223.5 278>
LayerCount: 2
Fore
SplineSet
196 280 m 0
 196 167 253 103 357 103 c 0
 444 103 512 145 561 229 c 1
 672 172 l 1
 603 51 495 -10 347 -10 c 0
 159 -10 49 104 49 278 c 0
 46 525 218 703 453 698 c 0
 602 698 701 634 734 507 c 1
 600 472 l 1
 581 541 525 585 448 585 c 0
 369 585 308 558 263 503 c 0
 218 448 196 374 196 280 c 0
516 752 m 1
 379 752 l 1
 399 853 l 1
 536 853 l 1
 516 752 l 1
EndSplineSet
EndChar

StartChar: cdotaccent
Encoding: 267 267 203
Width: 556
GlyphClass: 2
Flags: MW
HStem: -10 94<233 288.5 233 319.5> 444 94<286.5 346.5> 624 101<298 416 278 436>
VStem: 31 144<160.5 207.5 160.5 229.5> 403 139<351 362>
LayerCount: 2
Fore
SplineSet
262 84 m 0
 315 84 350 119 371 186 c 1
 503 162 l 1
 468 47 385 -10 254 -10 c 0
 110 -10 31 67 31 198 c 0
 31 261 44 321 69 376 c 0
 121 488 204 538 332 538 c 0
 455 538 533 473 542 362 c 1
 403 351 l 1
 399 413 372 444 321 444 c 0
 252 444 218 402 186 281 c 0
 179 244 175 216 175 199 c 0
 175 122 204 84 262 84 c 0
416 624 m 1
 278 624 l 1
 298 725 l 1
 436 725 l 1
 416 624 l 1
EndSplineSet
EndChar

StartChar: Ccaron
Encoding: 268 268 204
Width: 722
GlyphClass: 2
Flags: MW
HStem: -10 113<305 400.5 305 421> 585 113<453 486.5> 747 75<465 467 465 512 400 467> 882 14<301 376 660 660>
VStem: 49 147<223.5 278>
LayerCount: 2
Fore
SplineSet
196 280 m 0
 196 167 253 103 357 103 c 0
 444 103 512 145 561 229 c 1
 672 172 l 1
 603 51 495 -10 347 -10 c 0
 159 -10 49 104 49 278 c 0
 46 525 218 703 453 698 c 0
 602 698 701 634 734 507 c 1
 600 472 l 1
 581 541 525 585 448 585 c 0
 369 585 308 558 263 503 c 0
 218 448 196 374 196 280 c 0
660 882 m 1
 512 747 l 1
 400 747 l 1
 301 882 l 1
 303 896 l 1
 376 896 l 1
 465 822 l 1
 467 822 l 1
 581 896 l 1
 663 896 l 1
 660 882 l 1
EndSplineSet
EndChar

StartChar: ccaron
Encoding: 269 269 205
Width: 556
GlyphClass: 2
Flags: MW
HStem: -10 94<233 288.5 233 319.5> 444 94<286.5 346.5> 578 74<346 348 346 393 281 348> 732 15<185 261 544 544>
VStem: 31 144<160.5 207.5 160.5 229.5> 403 139<351 362>
LayerCount: 2
Fore
SplineSet
262 84 m 0
 315 84 350 119 371 186 c 1
 503 162 l 1
 468 47 385 -10 254 -10 c 0
 110 -10 31 67 31 198 c 0
 31 261 44 321 69 376 c 0
 121 488 204 538 332 538 c 0
 455 538 533 473 542 362 c 1
 403 351 l 1
 399 413 372 444 321 444 c 0
 252 444 218 402 186 281 c 0
 179 244 175 216 175 199 c 0
 175 122 204 84 262 84 c 0
544 732 m 1
 393 578 l 1
 281 578 l 1
 185 732 l 1
 188 747 l 1
 261 747 l 1
 346 652 l 1
 348 652 l 1
 465 747 l 1
 547 747 l 1
 544 732 l 1
EndSplineSet
EndChar

StartChar: Dcaron
Encoding: 270 270 206
Width: 722
GlyphClass: 2
Flags: MW
HStem: 0 111<183 295 295 300> 577 111<273 273 273 358 358 359> 747 75<413 415 413 460 348 415> 882 14<249 324 608 608>
VStem: 559 135<355.5 449.5>
LayerCount: 2
Fore
SplineSet
151 688 m 1
 358 688 l 2
 575 688 694 585 694 394 c 0
 694 317 678 249 645 190 c 0
 581 73 452 0 300 0 c 2
 18 0 l 1
 151 688 l 1
273 577 m 1
 183 111 l 1
 295 111 l 2
 454 111 559 218 559 388 c 0
 559 511 488 577 359 577 c 2
 273 577 l 1
608 882 m 1
 460 747 l 1
 348 747 l 1
 249 882 l 1
 251 896 l 1
 324 896 l 1
 413 822 l 1
 415 822 l 1
 528 896 l 1
 611 896 l 1
 608 882 l 1
EndSplineSet
EndChar

StartChar: dcaron
Encoding: 271 271 207
Width: 740
GlyphClass: 2
Flags: MW
HStem: -10 94<225 230.5> 0 84<225 498 225 360> 444 94<302.5 324.5 230.5 349.5> 624 101<692 725 493 672>
VStem: 28 145<156 204> 360 138<0 10.5>
LayerCount: 2
Fore
SplineSet
368 78 m 1xbc
 366 78 l 1
 319 18 270 -10 191 -10 c 0xbc
 91 -10 28 61 28 173 c 0
 28 235 38 296 59 355 c 0
 102 475 178 538 283 538 c 0
 366 538 418 506 437 441 c 1
 439 441 l 1
 440 454 444 480 452 521 c 2
 493 725 l 1
 628 725 l 1
 512 113 l 2
 505 76 501 39 498 0 c 1
 360 0 l 1x7c
 360 21 363 47 368 78 c 1xbc
251 84 m 0
 304 84 341 106 368 153 c 0
 381 176 392 205 399 240 c 0
 407 275 411 306 411 333 c 0
 411 410 380 444 319 444 c 0
 286 444 259 433 238 410 c 0
 217 388 201 355 190 312 c 0
 179 269 173 229 173 192 c 0
 173 120 199 84 251 84 c 0
728 531 m 1
 661 531 l 1
 698 564 720 595 725 624 c 1
 672 624 l 1
 692 725 l 1
 812 725 l 1
 798 653 l 2
 789 608 772 575 728 531 c 1
EndSplineSet
EndChar

StartChar: Dcroat
Encoding: 272 272 208
Width: 722
GlyphClass: 2
Flags: MW
HStem: 0 111<183 295 295 300> 290 107<32 74 11 95 238 391> 577 111<273 273 273 358 358 359>
VStem: 559 135<355.5 449.5>
LayerCount: 2
Fore
SplineSet
151 688 m 1
 358 688 l 2
 575 688 694 585 694 394 c 0
 694 317 678 249 645 190 c 0
 581 73 452 0 300 0 c 2
 18 0 l 1
 74 290 l 1
 11 290 l 1
 32 397 l 1
 95 397 l 1
 151 688 l 1
273 577 m 1
 238 397 l 1
 413 397 l 1
 391 290 l 1
 218 290 l 1
 183 111 l 1
 295 111 l 2
 454 111 559 218 559 388 c 0
 559 511 488 577 359 577 c 2
 273 577 l 1
EndSplineSet
EndChar

StartChar: dcroat
Encoding: 273 273 209
Width: 611
GlyphClass: 2
Flags: MW
HStem: -10 94<225 230.5> 0 21G<360 498 360 360> 427 91<300.5 320.5 227.5 346.5> 574 83<337 462 321 479 615 663>
VStem: 28 145<152.5 195.5> 360 138<0 10.5>
LayerCount: 2
Fore
SplineSet
368 78 m 1x7c
 366 78 l 1x7c
 319 18 270 -10 191 -10 c 0xbc
 91 -10 28 58 28 166 c 0
 28 225 38 284 59 341 c 0
 100 456 176 518 279 518 c 0
 362 518 414 486 433 425 c 1
 436 425 l 1
 437 440 441 469 450 514 c 2
 462 574 l 1
 321 574 l 1
 337 657 l 1
 479 657 l 1
 493 725 l 1
 628 725 l 1
 615 657 l 1
 679 657 l 1
 663 574 l 1
 599 574 l 1
 512 113 l 2
 505 76 501 39 498 0 c 1
 360 0 l 1
 360 21 363 47 368 78 c 1x7c
251 84 m 0xbc
 286 84 314 94 337 114 c 0
 360 135 377 165 389 206 c 0
 402 247 408 285 408 320 c 0
 408 395 377 427 316 427 c 0
 285 427 259 416 238 395 c 0
 217 374 201 343 190 301 c 0
 179 260 173 222 173 187 c 0
 173 118 199 84 251 84 c 0xbc
EndSplineSet
EndChar

StartChar: Emacron
Encoding: 274 274 210
Width: 667
GlyphClass: 2
Flags: MW
HStem: 0 111<183 578> 292 112<240 585 218 607> 577 111<273 670 273 273> 750 83<304 574 288 592>
VStem: 18 674
LayerCount: 2
Fore
SplineSet
578 0 m 1
 18 0 l 1
 151 688 l 1
 692 688 l 1
 670 577 l 1
 273 577 l 1
 240 404 l 1
 607 404 l 1
 585 292 l 1
 218 292 l 1
 183 111 l 1
 600 111 l 1
 578 0 l 1
592 833 m 1
 574 750 l 1
 288 750 l 1
 304 833 l 1
 592 833 l 1
EndSplineSet
EndChar

StartChar: emacron
Encoding: 275 275 211
Width: 556
GlyphClass: 2
Flags: MW
HStem: -10 92<231.5 285 231.5 310.5> 232 92<191 401 191 517 175 401> 451 87<284.5 341> 587 82<202 472 186 490>
VStem: 31 140<154.5 197.5 154.5 306> 403 125<351 385.5>
LayerCount: 2
Fore
SplineSet
517 232 m 1
 175 232 l 1
 172 220 171 206 171 189 c 0
 171 120 202 82 261 82 c 0
 309 82 344 110 365 165 c 1
 485 128 l 1
 436 25 369 -10 252 -10 c 0
 113 -10 31 69 31 204 c 0
 31 408 144 538 315 538 c 0
 451 538 528 465 528 337 c 0
 528 305 524 270 517 232 c 1
191 324 m 1
 401 324 l 1
 403 351 l 1
 403 420 367 451 315 451 c 0
 254 451 210 407 191 324 c 1
490 669 m 1
 472 587 l 1
 186 587 l 1
 202 669 l 1
 490 669 l 1
EndSplineSet
EndChar

StartChar: Ebreve
Encoding: 276 276 212
Width: 667
GlyphClass: 2
Flags: MW
HStem: 0 111<183 578> 292 112<240 585 218 607> 577 111<273 670 273 273> 742 68<412.5 464 412.5 480>
VStem: 275 80<866 890 866 890>
LayerCount: 2
Fore
SplineSet
578 0 m 1
 18 0 l 1
 151 688 l 1
 692 688 l 1
 670 577 l 1
 273 577 l 1
 240 404 l 1
 607 404 l 1
 585 292 l 1
 218 292 l 1
 183 111 l 1
 600 111 l 1
 578 0 l 1
428 742 m 0
 335 742 275 798 275 890 c 1
 355 890 l 1
 355 842 387 810 438 810 c 0
 490 810 523 833 542 890 c 1
 622 890 l 1
 594 790 532 742 428 742 c 0
EndSplineSet
EndChar

StartChar: ebreve
Encoding: 277 277 213
Width: 556
GlyphClass: 2
Flags: MW
HStem: -10 92<231.5 285 231.5 310.5> 232 92<191 401 191 517 175 401> 451 87<284.5 341> 578 76<323 372.5 323 391>
VStem: 31 140<154.5 197.5 154.5 306> 186 81<711 717> 403 125<351 385.5>
LayerCount: 2
Fore
SplineSet
517 232 m 1
 175 232 l 1
 172 220 171 206 171 189 c 0
 171 120 202 82 261 82 c 0
 309 82 344 110 365 165 c 1
 485 128 l 1
 436 25 369 -10 252 -10 c 0
 113 -10 31 69 31 204 c 0
 31 408 144 538 315 538 c 0
 451 538 528 465 528 337 c 0
 528 305 524 270 517 232 c 1
191 324 m 1
 401 324 l 1
 403 351 l 1
 403 420 367 451 315 451 c 0
 254 451 210 407 191 324 c 1
339 578 m 0
 248 578 186 633 186 717 c 1
 187 735 l 1
 267 735 l 1
 267 687 299 654 347 654 c 0
 398 654 437 684 453 735 c 1
 533 735 l 1
 505 628 443 578 339 578 c 0
EndSplineSet
EndChar

StartChar: Edotaccent
Encoding: 278 278 214
Width: 667
GlyphClass: 2
Flags: MW
HStem: 0 111<183 578> 292 112<240 585 218 607> 577 111<273 670 273 273> 755 101<378 496 358 516>
VStem: 18 674
LayerCount: 2
Fore
SplineSet
578 0 m 1
 18 0 l 1
 151 688 l 1
 692 688 l 1
 670 577 l 1
 273 577 l 1
 240 404 l 1
 607 404 l 1
 585 292 l 1
 218 292 l 1
 183 111 l 1
 600 111 l 1
 578 0 l 1
496 755 m 1
 358 755 l 1
 378 856 l 1
 516 856 l 1
 496 755 l 1
EndSplineSet
EndChar

StartChar: edotaccent
Encoding: 279 279 215
Width: 556
GlyphClass: 2
Flags: MW
HStem: -10 92<231.5 285 231.5 310.5> 232 92<191 401 191 517 175 401> 451 87<284.5 341> 624 101<289 406 269 426>
VStem: 31 140<154.5 197.5 154.5 306> 403 125<351 385.5>
LayerCount: 2
Fore
SplineSet
517 232 m 1
 175 232 l 1
 172 220 171 206 171 189 c 0
 171 120 202 82 261 82 c 0
 309 82 344 110 365 165 c 1
 485 128 l 1
 436 25 369 -10 252 -10 c 0
 113 -10 31 69 31 204 c 0
 31 408 144 538 315 538 c 0
 451 538 528 465 528 337 c 0
 528 305 524 270 517 232 c 1
191 324 m 1
 401 324 l 1
 403 351 l 1
 403 420 367 451 315 451 c 0
 254 451 210 407 191 324 c 1
406 624 m 1
 269 624 l 1
 289 725 l 1
 426 725 l 1
 406 624 l 1
EndSplineSet
EndChar

StartChar: Eogonek
Encoding: 280 280 216
Width: 667
GlyphClass: 2
Flags: MW
HStem: -208 68<403.5 479> 0 111<183 578> 292 112<240 585 218 607> 577 111<273 670 273 273>
VStem: 335 97<-115.5 -96>
LayerCount: 2
Fore
SplineSet
578 0 m 1
 18 0 l 1
 151 688 l 1
 692 688 l 1
 670 577 l 1
 273 577 l 1
 240 404 l 1
 607 404 l 1
 585 292 l 1
 218 292 l 1
 183 111 l 1
 600 111 l 1
 578 0 l 1
433 -208 m 0
 374 -208 335 -175 335 -120 c 0
 335 -72 366 -28 423 5 c 1
 503 5 l 1
 464 -20 432 -67 432 -103 c 0
 432 -128 448 -140 471 -140 c 0
 487 -140 504 -136 521 -129 c 1
 511 -191 l 1
 486 -202 460 -208 433 -208 c 0
EndSplineSet
EndChar

StartChar: eogonek
Encoding: 281 281 217
Width: 556
GlyphClass: 2
Flags: MW
HStem: -197 67<283.5 359> -10 25<303 310.5> -10 92<231.5 285 231.5 310.5> 232 92<191 401 191 517 175 401> 451 87<284.5 341>
VStem: 31 140<154.5 197.5 154.5 306> 215 97<-105 -86> 403 125<351 385.5>
LayerCount: 2
Fore
SplineSet
517 232 m 1x5f
 175 232 l 1
 172 220 171 206 171 189 c 0
 171 120 202 82 261 82 c 0
 309 82 344 110 365 165 c 1xbf
 485 128 l 1
 436 25 369 -10 252 -10 c 0
 113 -10 31 69 31 204 c 0
 31 408 144 538 315 538 c 0
 451 538 528 465 528 337 c 0
 528 305 524 270 517 232 c 1x5f
191 324 m 1
 401 324 l 1
 403 351 l 1
 403 420 367 451 315 451 c 0
 254 451 210 407 191 324 c 1
313 -197 m 0
 254 -197 215 -163 215 -110 c 0
 215 -62 246 -17 303 15 c 1
 383 15 l 1xdf
 344 -9 312 -57 312 -93 c 0
 312 -117 327 -130 351 -130 c 0
 367 -130 383 -126 400 -119 c 1
 391 -181 l 1
 366 -192 340 -197 313 -197 c 0
EndSplineSet
EndChar

StartChar: Ecaron
Encoding: 282 282 218
Width: 667
GlyphClass: 2
Flags: MW
HStem: 0 111<183 578> 292 112<240 585 218 607> 577 111<273 670 273 273> 747 75<427 429 427 474 362 429> 882 14<263 338 622 622>
VStem: 18 674
LayerCount: 2
Fore
SplineSet
578 0 m 1
 18 0 l 1
 151 688 l 1
 692 688 l 1
 670 577 l 1
 273 577 l 1
 240 404 l 1
 607 404 l 1
 585 292 l 1
 218 292 l 1
 183 111 l 1
 600 111 l 1
 578 0 l 1
622 882 m 1
 474 747 l 1
 362 747 l 1
 263 882 l 1
 265 896 l 1
 338 896 l 1
 427 822 l 1
 429 822 l 1
 542 896 l 1
 625 896 l 1
 622 882 l 1
EndSplineSet
EndChar

StartChar: ecaron
Encoding: 283 283 219
Width: 556
GlyphClass: 2
Flags: MW
HStem: -10 92<231.5 285 231.5 310.5> 232 92<191 401 191 517 175 401> 451 87<284.5 341> 578 74<338 340 338 385 273 340> 732 15<177 253 537 537>
VStem: 31 140<154.5 197.5 154.5 306> 403 125<351 385.5>
LayerCount: 2
Fore
SplineSet
517 232 m 1
 175 232 l 1
 172 220 171 206 171 189 c 0
 171 120 202 82 261 82 c 0
 309 82 344 110 365 165 c 1
 485 128 l 1
 436 25 369 -10 252 -10 c 0
 113 -10 31 69 31 204 c 0
 31 408 144 538 315 538 c 0
 451 538 528 465 528 337 c 0
 528 305 524 270 517 232 c 1
191 324 m 1
 401 324 l 1
 403 351 l 1
 403 420 367 451 315 451 c 0
 254 451 210 407 191 324 c 1
537 732 m 1
 385 578 l 1
 273 578 l 1
 177 732 l 1
 180 747 l 1
 253 747 l 1
 338 652 l 1
 340 652 l 1
 458 747 l 1
 540 747 l 1
 537 732 l 1
EndSplineSet
EndChar

StartChar: Gcircumflex
Encoding: 284 284 220
Width: 778
GlyphClass: 2
Flags: MW
HStem: -9 112<316.5 408.5 316.5 423.5> 261 102<435 583 416 735> 585 113<460 493.5> 747 14<290 290 290 370 287 290> 821 75<487 489 487 487>
VStem: 49 146<238.5 285>
LayerCount: 2
Fore
SplineSet
361 -9 m 0
 264 -9 187 17 132 68 c 0
 77 120 49 192 49 285 c 0
 46 529 216 702 460 698 c 0
 608 698 712 628 747 507 c 1
 609 469 l 1
 590 542 535 585 452 585 c 0
 295 585 195 467 195 289 c 0
 195 173 260 103 373 103 c 0
 444 103 513 121 561 150 c 1
 583 261 l 1
 416 261 l 1
 435 363 l 1
 735 363 l 1
 684 85 l 1
 581 16 486 -9 361 -9 c 0
553 896 m 1
 649 761 l 1
 646 747 l 1
 574 747 l 1
 489 821 l 1
 487 821 l 1
 370 747 l 1
 287 747 l 1
 290 761 l 1
 441 896 l 1
 553 896 l 1
EndSplineSet
EndChar

StartChar: gcircumflex
Encoding: 285 285 221
Width: 611
GlyphClass: 2
Flags: MW
HStem: -208 91<200.5 262.5 200.5 292.5> -4 100<147.5 260> 444 94<291.5 324.5 230.5 346.5> 508 20G<464 594 594 594> 578 13<167 167 167 247 165 167> 578 169<165 435 165 435 323 524 323 451>
VStem: 32 143<160.5 205 160.5 206.5>
LayerCount: 2
Fore
SplineSet
210 -208 m 0xea
 81 -208 13 -164 -3 -69 c 1
 135 -55 l 1
 144 -96 174 -117 227 -117 c 0
 298 -117 335 -83 356 13 c 0
 363 44 368 73 372 98 c 1
 371 98 l 1
 350 69 332 49 316 36 c 0
 285 11 247 -4 198 -4 c 0
 97 -4 32 67 32 174 c 0
 32 239 42 302 63 362 c 0
 104 482 175 538 286 538 c 0xea
 363 538 423 499 440 436 c 1
 441 436 l 1
 453 487 l 2
 459 512 463 525 464 528 c 2
 594 528 l 1
 584 488 l 1xda
 570 417 l 1
 489 5 l 2
 458 -147 375 -208 210 -208 c 0xea
413 335 m 0
 413 403 377 444 316 444 c 0
 267 444 237 425 214 378 c 0
 203 355 193 324 186 286 c 0
 179 248 175 217 175 193 c 0
 175 128 203 96 260 96 c 0
 347 92 416 213 413 335 c 0
435 747 m 1xe6
 527 591 l 1
 524 578 l 1
 451 578 l 1xea
 370 671 l 1
 368 671 l 1
 247 578 l 1
 165 578 l 1
 167 591 l 1
 323 747 l 1
 435 747 l 1xe6
EndSplineSet
EndChar

StartChar: Gbreve
Encoding: 286 286 222
Width: 778
GlyphClass: 2
Flags: MW
HStem: -9 112<316.5 408.5 316.5 423.5> 261 102<435 583 416 735> 585 113<460 493.5> 742 68<464 515.5 464 531.5>
VStem: 49 146<238.5 285> 326 81<866 890 866 890>
LayerCount: 2
Fore
SplineSet
361 -9 m 0
 264 -9 187 17 132 68 c 0
 77 120 49 192 49 285 c 0
 46 529 216 702 460 698 c 0
 608 698 712 628 747 507 c 1
 609 469 l 1
 590 542 535 585 452 585 c 0
 295 585 195 467 195 289 c 0
 195 173 260 103 373 103 c 0
 444 103 513 121 561 150 c 1
 583 261 l 1
 416 261 l 1
 435 363 l 1
 735 363 l 1
 684 85 l 1
 581 16 486 -9 361 -9 c 0
479 742 m 0
 387 742 326 798 326 890 c 1
 407 890 l 1
 407 842 438 810 490 810 c 0
 541 810 576 833 593 890 c 1
 673 890 l 1
 645 790 584 742 479 742 c 0
EndSplineSet
EndChar

StartChar: gbreve
Encoding: 287 287 223
Width: 611
GlyphClass: 2
Flags: MW
HStem: -208 91<200.5 262.5 200.5 292.5> -4 100<147.5 260> 444 94<291.5 324.5 230.5 346.5> 508 20G<464 594 594 594> 578 76<333 382.5 333 401>
VStem: 32 143<160.5 205 160.5 206.5> 196 81<711 717>
LayerCount: 2
Fore
SplineSet
210 -208 m 0xec
 81 -208 13 -164 -3 -69 c 1
 135 -55 l 1
 144 -96 174 -117 227 -117 c 0
 298 -117 335 -83 356 13 c 0
 363 44 368 73 372 98 c 1
 371 98 l 1
 350 69 332 49 316 36 c 0
 285 11 247 -4 198 -4 c 0
 97 -4 32 67 32 174 c 0
 32 239 42 302 63 362 c 0
 104 482 175 538 286 538 c 0xec
 363 538 423 499 440 436 c 1
 441 436 l 1
 453 487 l 2
 459 512 463 525 464 528 c 2
 594 528 l 1
 584 488 l 1xdc
 570 417 l 1
 489 5 l 2
 458 -147 375 -208 210 -208 c 0xec
413 335 m 0
 413 403 377 444 316 444 c 0
 267 444 237 425 214 378 c 0
 203 355 193 324 186 286 c 0
 179 248 175 217 175 193 c 0
 175 128 203 96 260 96 c 0
 347 92 416 213 413 335 c 0
349 578 m 0xee
 258 578 196 633 196 717 c 1
 197 735 l 1
 277 735 l 1
 277 687 309 654 357 654 c 0
 408 654 447 684 463 735 c 1
 543 735 l 1
 515 628 453 578 349 578 c 0xee
EndSplineSet
EndChar

StartChar: Gdotaccent
Encoding: 288 288 224
Width: 778
GlyphClass: 2
Flags: MW
HStem: -9 112<316.5 408.5 316.5 423.5> 261 102<435 583 416 735> 585 113<460 493.5> 755 101<417 534 397 554>
VStem: 49 146<238.5 285>
LayerCount: 2
Fore
SplineSet
361 -9 m 0
 264 -9 187 17 132 68 c 0
 77 120 49 192 49 285 c 0
 46 529 216 702 460 698 c 0
 608 698 712 628 747 507 c 1
 609 469 l 1
 590 542 535 585 452 585 c 0
 295 585 195 467 195 289 c 0
 195 173 260 103 373 103 c 0
 444 103 513 121 561 150 c 1
 583 261 l 1
 416 261 l 1
 435 363 l 1
 735 363 l 1
 684 85 l 1
 581 16 486 -9 361 -9 c 0
534 755 m 1
 397 755 l 1
 417 856 l 1
 554 856 l 1
 534 755 l 1
EndSplineSet
EndChar

StartChar: gdotaccent
Encoding: 289 289 225
Width: 611
GlyphClass: 2
Flags: MW
HStem: -208 91<200.5 262.5 200.5 292.5> -4 100<147.5 260> 444 94<291.5 324.5 230.5 346.5> 508 20G<464 594 594 594> 624 101<311 428 291 448>
VStem: 32 143<160.5 205 160.5 206.5>
LayerCount: 2
Fore
SplineSet
210 -208 m 0xec
 81 -208 13 -164 -3 -69 c 1
 135 -55 l 1
 144 -96 174 -117 227 -117 c 0
 298 -117 335 -83 356 13 c 0
 363 44 368 73 372 98 c 1
 371 98 l 1
 350 69 332 49 316 36 c 0
 285 11 247 -4 198 -4 c 0
 97 -4 32 67 32 174 c 0
 32 239 42 302 63 362 c 0
 104 482 175 538 286 538 c 0xec
 363 538 423 499 440 436 c 1
 441 436 l 1
 453 487 l 2
 459 512 463 525 464 528 c 2
 594 528 l 1
 584 488 l 1xdc
 570 417 l 1
 489 5 l 2
 458 -147 375 -208 210 -208 c 0xec
413 335 m 0
 413 403 377 444 316 444 c 0
 267 444 237 425 214 378 c 0
 203 355 193 324 186 286 c 0
 179 248 175 217 175 193 c 0
 175 128 203 96 260 96 c 0
 347 92 416 213 413 335 c 0
428 624 m 1
 291 624 l 1
 311 725 l 1
 448 725 l 1
 428 624 l 1
EndSplineSet
EndChar

StartChar: Gcommaaccent
Encoding: 290 290 226
Width: 778
GlyphClass: 2
Flags: MW
HStem: -139 101<321 354 301 440> -9 112<316.5 408.5 316.5 423.5> 261 102<435 583 416 735> 585 113<460 493.5>
VStem: 49 146<238.5 285>
LayerCount: 2
Fore
SplineSet
361 -9 m 0
 264 -9 187 17 132 68 c 0
 77 120 49 192 49 285 c 0
 46 529 216 702 460 698 c 0
 608 698 712 628 747 507 c 1
 609 469 l 1
 590 542 535 585 452 585 c 0
 295 585 195 467 195 289 c 0
 195 173 260 103 373 103 c 0
 444 103 513 121 561 150 c 1
 583 261 l 1
 416 261 l 1
 435 363 l 1
 735 363 l 1
 684 85 l 1
 581 16 486 -9 361 -9 c 0
359 -222 m 1
 292 -222 l 1
 329 -189 349 -162 354 -139 c 1
 301 -139 l 1
 321 -38 l 1
 440 -38 l 1
 429 -100 l 2
 420 -145 403 -178 359 -222 c 1
EndSplineSet
EndChar

StartChar: gcommaaccent
Encoding: 291 291 227
Width: 611
GlyphClass: 2
Flags: MW
HStem: -208 91<200.5 262.5 200.5 292.5> -4 100<147.5 260> 444 94<291.5 324.5 230.5 346.5> 508 20G<464 594 594 594> 592 101<371 404 284 423>
VStem: 32 143<160.5 205 160.5 206.5>
LayerCount: 2
Fore
SplineSet
210 -208 m 0xec
 81 -208 13 -164 -3 -69 c 1
 135 -55 l 1
 144 -96 174 -117 227 -117 c 0
 298 -117 335 -83 356 13 c 0
 363 44 368 73 372 98 c 1
 371 98 l 1
 350 69 332 49 316 36 c 0
 285 11 247 -4 198 -4 c 0
 97 -4 32 67 32 174 c 0
 32 239 42 302 63 362 c 0
 104 482 175 538 286 538 c 0xec
 363 538 423 499 440 436 c 1
 441 436 l 1
 453 487 l 2
 459 512 463 525 464 528 c 2
 594 528 l 1
 584 488 l 1xdc
 570 417 l 1
 489 5 l 2
 458 -147 375 -208 210 -208 c 0xec
413 335 m 0
 413 403 377 444 316 444 c 0
 267 444 237 425 214 378 c 0
 203 355 193 324 186 286 c 0
 179 248 175 217 175 193 c 0
 175 128 203 96 260 96 c 0
 347 92 416 213 413 335 c 0
363 786 m 1
 435 786 l 1
 398 753 376 722 371 693 c 1
 423 693 l 1
 404 592 l 1
 284 592 l 1
 298 663 l 2
 309 720 331 755 363 786 c 1
EndSplineSet
EndChar

StartChar: Hcircumflex
Encoding: 292 292 228
Width: 722
GlyphClass: 2
Flags: MW
HStem: 0 21G<18 161 18 18 467 605 467 467> 295 119<242 524 219 547> 668 20G<151 295 295 295 601 739 739 739> 747 14<280 280 280 360 278 280> 821 75<478 479 478 478>
VStem: 18 721<0 688>
LayerCount: 2
Fore
SplineSet
605 0 m 1
 467 0 l 1
 524 295 l 1
 219 295 l 1
 161 0 l 1
 18 0 l 1
 151 688 l 1
 295 688 l 1
 242 414 l 1
 547 414 l 1
 601 688 l 1
 739 688 l 1
 605 0 l 1
544 896 m 1
 640 761 l 1
 637 747 l 1
 564 747 l 1
 479 821 l 1
 478 821 l 1
 360 747 l 1
 278 747 l 1
 280 761 l 1
 432 896 l 1
 544 896 l 1
EndSplineSet
EndChar

StartChar: hcircumflex
Encoding: 293 293 229
Width: 611
GlyphClass: 2
Flags: MW
HStem: 0 21G<17 155 17 17 360 497 360 360> 434 104<339.5 469> 786 14<226 226 226 306 223 226> 859 76<423 425 423 423>
VStem: 431 138<364.5 443.5>
LayerCount: 2
Fore
SplineSet
157 725 m 1
 293 725 l 1
 255 527 l 1
 236 438 l 1
 237 438 l 1
 286 506 343 538 419 538 c 0
 519 538 569 488 569 399 c 0
 569 391 568 378 565 360 c 0
 563 342 561 328 559 319 c 2
 497 0 l 1
 360 0 l 1
 418 291 l 2
 427 331 431 358 431 371 c 0
 431 413 406 434 356 434 c 0
 323 434 293 421 265 394 c 0
 237 367 219 335 212 296 c 2
 155 0 l 1
 17 0 l 1
 157 725 l 1
489 935 m 1
 585 800 l 1
 583 786 l 1
 510 786 l 1
 425 859 l 1
 423 859 l 1
 306 786 l 1
 223 786 l 1
 226 800 l 1
 377 935 l 1
 489 935 l 1
EndSplineSet
EndChar

StartChar: Hbar
Encoding: 294 294 230
Width: 722
GlyphClass: 2
Flags: MW
HStem: 0 21G<18 161 18 18 467 605 467 467> 295 119<242 524 219 547> 510 83<72 116 56 132 276 566 721 765> 510 178<56 295 56 295 260 260 260 295 151 566 705 705 705 739>
VStem: 18 763<0 593>
LayerCount: 2
Fore
SplineSet
605 0 m 1xd8
 467 0 l 1
 524 295 l 1
 219 295 l 1
 161 0 l 1
 18 0 l 1
 116 510 l 1
 56 510 l 1xd8
 72 593 l 1
 132 593 l 1xe8
 151 688 l 1
 295 688 l 1xd8
 276 593 l 1
 582 593 l 1xe8
 601 688 l 1
 739 688 l 1xd8
 721 593 l 1
 781 593 l 1xe8
 765 510 l 1
 705 510 l 1
 605 0 l 1xd8
242 414 m 1
 547 414 l 1
 566 510 l 1
 260 510 l 1
 242 414 l 1
EndSplineSet
EndChar

StartChar: hbar
Encoding: 295 295 231
Width: 611
GlyphClass: 2
Flags: MW
HStem: 0 21G<17 155 17 17 360 497 360 360> 415 103<336.5 465.5> 574 83<77 127 61 144 280 417>
VStem: 427 138<371 373>
LayerCount: 2
Fore
SplineSet
157 725 m 1
 293 725 l 1
 280 657 l 1
 433 657 l 1
 417 574 l 1
 264 574 l 1
 253 514 242 462 232 418 c 1
 233 418 l 1
 282 486 339 518 416 518 c 0
 515 518 565 470 565 379 c 0
 565 363 559 319 555 299 c 2
 497 0 l 1
 360 0 l 1
 414 271 l 2
 423 312 427 339 427 352 c 0
 427 394 402 415 353 415 c 0
 320 415 289 401 261 374 c 0
 233 347 215 315 208 276 c 2
 155 0 l 1
 17 0 l 1
 127 574 l 1
 61 574 l 1
 77 657 l 1
 144 657 l 1
 157 725 l 1
EndSplineSet
EndChar

StartChar: Itilde
Encoding: 296 296 232
Width: 278
GlyphClass: 2
Flags: MW
HStem: 0 21G<18 161 18 18> 668 20G<151 295 295 295> 747 83<297.5 330 297.5 338.5> 807 83<146 179.5>
VStem: 18 424
LayerCount: 2
Fore
SplineSet
161 0 m 1xd8
 18 0 l 1
 151 688 l 1
 295 688 l 1
 161 0 l 1xd8
305 747 m 0xe8
 249 747 199 807 160 807 c 0
 132 807 116 794 100 747 c 1
 34 747 l 1
 59 850 104 890 171 890 c 0xd8
 229 890 279 830 316 830 c 0
 344 830 360 846 376 890 c 1
 442 890 l 1
 417 787 372 747 305 747 c 0xe8
EndSplineSet
EndChar

StartChar: itilde
Encoding: 297 297 233
Width: 278
GlyphClass: 2
Flags: MW
HStem: 0 21G<17 154 17 17> 508 20G<120 257 257 257> 578 83<256.5 289 256.5 297.5> 638 83<105 138.5>
VStem: -7 408<578 721>
LayerCount: 2
Fore
SplineSet
154 0 m 1xd8
 17 0 l 1
 120 528 l 1
 257 528 l 1
 154 0 l 1xd8
264 578 m 0xe8
 208 578 158 638 119 638 c 0
 91 638 75 625 59 578 c 1
 -7 578 l 1
 18 681 63 721 130 721 c 0xd8
 188 721 238 661 275 661 c 0
 303 661 319 677 335 721 c 1
 401 721 l 1
 376 618 331 578 264 578 c 0xe8
EndSplineSet
EndChar

StartChar: Imacron
Encoding: 298 298 234
Width: 278
GlyphClass: 2
Flags: MW
HStem: 0 21G<18 161 18 18> 668 20G<151 295 295 295> 750 83<99 369 83 387>
VStem: 18 369
LayerCount: 2
Fore
SplineSet
161 0 m 1
 18 0 l 1
 151 688 l 1
 295 688 l 1
 161 0 l 1
387 833 m 1
 369 750 l 1
 83 750 l 1
 99 833 l 1
 387 833 l 1
EndSplineSet
EndChar

StartChar: imacron
Encoding: 299 299 235
Width: 278
GlyphClass: 2
Flags: MW
HStem: 0 21G<17 154 17 17> 508 20G<120 257 257 257> 587 82<70 340 54 358>
VStem: 17 341
LayerCount: 2
Fore
SplineSet
154 0 m 1
 17 0 l 1
 120 528 l 1
 257 528 l 1
 154 0 l 1
358 669 m 1
 340 587 l 1
 54 587 l 1
 70 669 l 1
 358 669 l 1
EndSplineSet
EndChar

StartChar: Ibreve
Encoding: 300 300 236
Width: 278
GlyphClass: 2
Flags: MW
HStem: 0 21G<18 161 18 18> 668 20G<151 295 295 295> 742 68<214.5 265.5 214.5 281.5>
VStem: 77 80<866 890 866 890>
LayerCount: 2
Fore
SplineSet
161 0 m 1
 18 0 l 1
 151 688 l 1
 295 688 l 1
 161 0 l 1
229 742 m 0
 137 742 77 798 77 890 c 1
 157 890 l 1
 157 842 189 810 240 810 c 0
 291 810 326 833 343 890 c 1
 423 890 l 1
 396 790 334 742 229 742 c 0
EndSplineSet
EndChar

StartChar: ibreve
Encoding: 301 301 237
Width: 278
GlyphClass: 2
Flags: MW
HStem: 0 21G<17 154 17 17> 508 20G<120 257 257 257> 578 76<184.5 234 184.5 253>
VStem: 48 80<711 717>
LayerCount: 2
Fore
SplineSet
154 0 m 1
 17 0 l 1
 120 528 l 1
 257 528 l 1
 154 0 l 1
201 578 m 0
 109 578 48 633 48 717 c 1
 49 735 l 1
 128 735 l 1
 128 687 161 654 208 654 c 0
 260 654 299 684 314 735 c 1
 395 735 l 1
 367 628 305 578 201 578 c 0
EndSplineSet
EndChar

StartChar: Iogonek
Encoding: 302 302 238
Width: 278
GlyphClass: 2
Flags: MW
HStem: -208 68<56.5 132> 0 21G<18 161 18 18> 668 20G<151 295 295 295>
VStem: -11 96<-115.5 -96>
LayerCount: 2
Fore
SplineSet
161 0 m 1
 18 0 l 1
 151 688 l 1
 295 688 l 1
 161 0 l 1
86 -208 m 0
 27 -208 -11 -175 -11 -120 c 0
 -11 -72 18 -28 77 5 c 1
 157 5 l 1
 117 -20 85 -67 85 -103 c 0
 85 -128 101 -140 124 -140 c 0
 140 -140 157 -136 174 -129 c 1
 165 -191 l 1
 139 -202 113 -208 86 -208 c 0
EndSplineSet
EndChar

StartChar: iogonek
Encoding: 303 303 239
Width: 278
GlyphClass: 2
Flags: MW
HStem: -208 68<50.5 125> 0 21G<17 154 17 17> 508 20G<120 257 257 257> 624 101<158 275 138 295>
VStem: -18 97<-115.5 -96>
LayerCount: 2
Fore
SplineSet
275 624 m 1
 138 624 l 1
 158 725 l 1
 295 725 l 1
 275 624 l 1
154 0 m 1
 17 0 l 1
 120 528 l 1
 257 528 l 1
 154 0 l 1
80 -208 m 0
 21 -208 -18 -175 -18 -120 c 0
 -18 -72 11 -28 70 5 c 1
 150 5 l 1
 110 -20 79 -67 79 -103 c 0
 79 -128 94 -140 117 -140 c 0
 133 -140 150 -136 167 -129 c 1
 158 -191 l 1
 132 -202 106 -208 80 -208 c 0
EndSplineSet
EndChar

StartChar: Idotaccent
Encoding: 304 304 240
Width: 278
GlyphClass: 2
Flags: MW
HStem: 0 21G<18 161 18 18> 668 20G<151 295 295 295> 755 101<186 303 166 323>
VStem: 18 305
LayerCount: 2
Fore
SplineSet
161 0 m 1
 18 0 l 1
 151 688 l 1
 295 688 l 1
 161 0 l 1
303 755 m 1
 166 755 l 1
 186 856 l 1
 323 856 l 1
 303 755 l 1
EndSplineSet
EndChar

StartChar: dotlessi
Encoding: 305 305 241
Width: 278
GlyphClass: 2
Flags: MW
HStem: 0 21G<17 154 17 17> 508 20G<120 257 257 257>
VStem: 17 240
LayerCount: 2
Fore
SplineSet
154 0 m 1
 17 0 l 1
 120 528 l 1
 257 528 l 1
 154 0 l 1
EndSplineSet
EndChar

StartChar: IJ
Encoding: 306 306 242
Width: 782
GlyphClass: 2
Flags: MW
HStem: -10 113<444 470 444 531> 0 21G<18 161 18 18> 575 113<519 635>
VStem: 18 782<0 688>
LayerCount: 2
Fore
SplineSet
161 0 m 1x70
 18 0 l 1
 151 688 l 1
 295 688 l 1
 161 0 l 1x70
461 -10 m 0xb0
 337 -10 263 50 239 185 c 1
 369 213 l 1
 384 140 418 103 470 103 c 1
 525 108 547 126 565 215 c 2
 635 575 l 1
 498 575 l 1
 519 688 l 1
 800 688 l 1
 706 207 l 2
 677 56 601 -10 461 -10 c 0xb0
EndSplineSet
EndChar

StartChar: ij
Encoding: 307 307 243
Width: 556
GlyphClass: 2
Flags: MW
HStem: -208 100<235.5 238 216 297> 0 21G<17 154 17 17> 508 20G<120 257 257 257 397 535 535 535> 624 101<158 275 138 295 436 553>
VStem: 17 556
LayerCount: 2
Fore
SplineSet
275 624 m 1
 138 624 l 1
 158 725 l 1
 295 725 l 1
 275 624 l 1
154 0 m 1
 17 0 l 1
 120 528 l 1
 257 528 l 1
 154 0 l 1
553 624 m 1
 416 624 l 1
 436 725 l 1
 573 725 l 1
 553 624 l 1
251 -208 m 0
 220 -208 193 -205 170 -198 c 1
 188 -106 l 1
 216 -108 l 2
 260 -108 277 -90 289 -29 c 2
 397 528 l 1
 535 528 l 1
 419 -63 l 2
 400 -156 343 -208 251 -208 c 0
EndSplineSet
EndChar

StartChar: Jcircumflex
Encoding: 308 308 244
Width: 556
GlyphClass: 2
Flags: MW
HStem: -10 113<217.5 244 217.5 304.5> 575 113<292 408 271 573> 747 14<267 267 267 347 264 267> 821 75<464 466 464 464>
VStem: 12 614<185 761>
LayerCount: 2
Fore
SplineSet
234 -10 m 0
 111 -10 37 50 12 185 c 1
 143 213 l 1
 158 140 191 103 244 103 c 1
 296 108 322 126 338 215 c 2
 408 575 l 1
 271 575 l 1
 292 688 l 1
 573 688 l 1
 479 207 l 2
 450 56 375 -10 234 -10 c 0
530 896 m 1
 626 761 l 1
 624 747 l 1
 551 747 l 1
 466 821 l 1
 464 821 l 1
 347 747 l 1
 264 747 l 1
 267 761 l 1
 418 896 l 1
 530 896 l 1
EndSplineSet
EndChar

StartChar: jcircumflex
Encoding: 309 309 245
Width: 278
GlyphClass: 2
Flags: MW
HStem: -208 100<-41.5 -40 -62 19.5> 508 20G<120 257 257 257> 578 13<9 9 9 89 6 9> 578 169<6 277 6 277 165 366 165 293>
VStem: -107 476
LayerCount: 2
Fore
SplineSet
-26 -208 m 0xe8
 -57 -208 -84 -205 -107 -198 c 1
 -90 -106 l 1
 -62 -108 l 2
 -18 -108 -1 -90 11 -29 c 2
 120 528 l 1
 257 528 l 1
 142 -63 l 2
 122 -156 65 -208 -26 -208 c 0xe8
277 747 m 1xd8
 369 591 l 1
 366 578 l 1
 293 578 l 1xe8
 212 671 l 1
 210 671 l 1
 89 578 l 1
 6 578 l 1
 9 591 l 1
 165 747 l 1
 277 747 l 1xd8
EndSplineSet
EndChar

StartChar: Kcommaaccent
Encoding: 310 310 246
Width: 722
GlyphClass: 2
Flags: MW
HStem: -139 101<257 291 238 377> 0 21G<18 160 18 18 486 645 486 486> 668 20G<151 295 295 295 603 783 783 783>
VStem: 18 765<0 688>
LayerCount: 2
Fore
SplineSet
645 0 m 1
 486 0 l 1
 313 313 l 1
 209 252 l 1
 160 0 l 1
 18 0 l 1
 151 688 l 1
 295 688 l 1
 231 376 l 1
 603 688 l 1
 783 688 l 1
 418 387 l 1
 645 0 l 1
295 -222 m 1
 229 -222 l 1
 265 -189 286 -162 291 -139 c 1
 238 -139 l 1
 257 -38 l 1
 377 -38 l 1
 365 -100 l 2
 356 -145 339 -178 295 -222 c 1
EndSplineSet
EndChar

StartChar: kcommaaccent
Encoding: 311 311 247
Width: 556
GlyphClass: 2
Flags: MW
HStem: -139 101<191 225 172 311> 0 21G<17 154 17 17 355 501 355 355> 508 20G<440 598 598 598>
VStem: 17 581<0 528>
LayerCount: 2
Fore
SplineSet
501 0 m 1
 355 0 l 1
 264 243 l 1
 195 206 l 1
 154 0 l 1
 17 0 l 1
 158 725 l 1
 295 725 l 1
 213 310 l 1
 440 528 l 1
 598 528 l 1
 367 322 l 1
 501 0 l 1
229 -222 m 1
 163 -222 l 1
 199 -189 220 -162 225 -139 c 1
 172 -139 l 1
 191 -38 l 1
 311 -38 l 1
 299 -100 l 2
 290 -145 273 -178 229 -222 c 1
EndSplineSet
EndChar

StartChar: kgreenlandic
Encoding: 312 312 248
Width: 556
GlyphClass: 2
Flags: MW
HStem: 0 21G<17 154 17 17 355 501 355 355> 508 20G<120 257 257 257 440 598 598 598>
VStem: 17 581<0 528>
LayerCount: 2
Fore
SplineSet
501 0 m 1
 355 0 l 1
 264 243 l 1
 195 206 l 1
 154 0 l 1
 17 0 l 1
 120 528 l 1
 257 528 l 1
 214 310 l 1
 440 528 l 1
 598 528 l 1
 367 322 l 1
 501 0 l 1
EndSplineSet
EndChar

StartChar: Lacute
Encoding: 313 313 249
Width: 611
GlyphClass: 2
Flags: MW
HStem: 0 111<183 530> 668 20G<151 295 295 295> 862 21<481 481>
VStem: 18 534<0 111>
LayerCount: 2
Fore
SplineSet
530 0 m 1
 18 0 l 1
 151 688 l 1
 295 688 l 1
 183 111 l 1
 552 111 l 1
 530 0 l 1
292 747 m 1
 220 747 l 1
 223 762 l 1
 355 883 l 1
 485 883 l 1
 481 862 l 1
 292 747 l 1
EndSplineSet
EndChar

StartChar: lacute
Encoding: 314 314 250
Width: 278
GlyphClass: 2
Flags: MW
HStem: 0 21G<17 154 17 17> 900 21<421 421>
VStem: 17 408
LayerCount: 2
Fore
SplineSet
154 0 m 1
 17 0 l 1
 158 725 l 1
 295 725 l 1
 154 0 l 1
232 786 m 1
 160 786 l 1
 163 801 l 1
 295 921 l 1
 425 921 l 1
 421 900 l 1
 232 786 l 1
EndSplineSet
EndChar

StartChar: Lcommaaccent
Encoding: 315 315 251
Width: 611
GlyphClass: 2
Flags: MW
HStem: -139 101<223 256 204 343> 0 111<183 530> 668 20G<151 295 295 295>
VStem: 18 534<0 111>
LayerCount: 2
Fore
SplineSet
530 0 m 1
 18 0 l 1
 151 688 l 1
 295 688 l 1
 183 111 l 1
 552 111 l 1
 530 0 l 1
261 -222 m 1
 194 -222 l 1
 231 -189 251 -162 256 -139 c 1
 204 -139 l 1
 223 -38 l 1
 343 -38 l 1
 331 -100 l 2
 322 -145 305 -178 261 -222 c 1
EndSplineSet
EndChar

StartChar: lcommaaccent
Encoding: 316 316 252
Width: 278
GlyphClass: 2
Flags: MW
HStem: -139 101<21 54 1 141> 0 21G<17 154 17 17>
VStem: -8 303
LayerCount: 2
Fore
SplineSet
154 0 m 1
 17 0 l 1
 158 725 l 1
 295 725 l 1
 154 0 l 1
59 -222 m 1
 -8 -222 l 1
 29 -189 49 -162 54 -139 c 1
 1 -139 l 1
 21 -38 l 1
 141 -38 l 1
 129 -100 l 2
 120 -145 103 -178 59 -222 c 1
EndSplineSet
EndChar

StartChar: Lcaron
Encoding: 317 317 253
Width: 611
GlyphClass: 2
Flags: MW
HStem: 0 111<183 530> 587 101<436 469>
VStem: 18 538
LayerCount: 2
Fore
SplineSet
530 0 m 1
 18 0 l 1
 151 688 l 1
 295 688 l 1
 183 111 l 1
 552 111 l 1
 530 0 l 1
472 494 m 1
 405 494 l 1
 442 527 464 558 469 587 c 1
 417 587 l 1
 436 688 l 1
 556 688 l 1
 542 617 l 2
 533 572 516 538 472 494 c 1
EndSplineSet
EndChar

StartChar: lcaron
Encoding: 318 318 254
Width: 396
GlyphClass: 2
Flags: MW
HStem: 0 21G<17 154 17 17> 624 101<359 392 158 339>
VStem: 17 462
LayerCount: 2
Fore
SplineSet
154 0 m 1
 17 0 l 1
 158 725 l 1
 295 725 l 1
 154 0 l 1
395 531 m 1
 328 531 l 1
 365 564 387 595 392 624 c 1
 339 624 l 1
 359 725 l 1
 479 725 l 1
 465 653 l 2
 456 608 439 575 395 531 c 1
EndSplineSet
EndChar

StartChar: Ldot
Encoding: 319 319 255
Width: 611
GlyphClass: 2
Flags: MW
HStem: 0 111<183 530> 318 101<372 489 352 509> 668 20G<151 295 295 295>
VStem: 18 534<0 111>
LayerCount: 2
Fore
SplineSet
530 0 m 1
 18 0 l 1
 151 688 l 1
 295 688 l 1
 183 111 l 1
 552 111 l 1
 530 0 l 1
489 318 m 1
 352 318 l 1
 372 419 l 1
 509 419 l 1
 489 318 l 1
EndSplineSet
EndChar

StartChar: ldot
Encoding: 320 320 256
Width: 479
GlyphClass: 2
Flags: MW
HStem: 0 21G<17 154 17 17> 318 101<321 438 301 458>
VStem: 17 441<0 419>
LayerCount: 2
Fore
SplineSet
154 0 m 1
 17 0 l 1
 158 725 l 1
 295 725 l 1
 154 0 l 1
438 318 m 1
 301 318 l 1
 321 419 l 1
 458 419 l 1
 438 318 l 1
EndSplineSet
EndChar

StartChar: Lslash
Encoding: 321 321 257
Width: 611
GlyphClass: 2
Flags: MW
HStem: 0 111<183 530> 668 20G<151 295 295 295>
VStem: -9 561<111 204>
LayerCount: 2
Fore
SplineSet
530 0 m 1
 18 0 l 1
 63 235 l 1
 -9 204 l 1
 12 314 l 1
 84 346 l 1
 151 688 l 1
 295 688 l 1
 242 414 l 1
 406 487 l 1
 385 378 l 1
 221 305 l 1
 183 111 l 1
 552 111 l 1
 530 0 l 1
EndSplineSet
EndChar

StartChar: lslash
Encoding: 322 322 258
Width: 278
GlyphClass: 2
Flags: MW
HStem: 0 21G<17 154 17 17>
VStem: 3 310<240 491>
LayerCount: 2
Fore
SplineSet
222 350 m 1
 154 0 l 1
 17 0 l 1
 70 274 l 1
 3 240 l 1
 23 345 l 1
 90 379 l 1
 158 725 l 1
 295 725 l 1
 242 455 l 1
 313 491 l 1
 292 387 l 1
 222 350 l 1
EndSplineSet
EndChar

StartChar: Nacute
Encoding: 323 323 259
Width: 722
GlyphClass: 2
Flags: MW
HStem: 0 21G<18 146 18 18 432 605 432 432> 0 131<506 506 506 605 432 506> 552 136<249 249> 668 20G<151 322 322 322 611 739 739 739> 862 21<634 634>
VStem: 18 721<0 688>
LayerCount: 2
Fore
SplineSet
605 0 m 1x9c
 432 0 l 1
 249 552 l 1xac
 242 499 235 461 230 436 c 2
 146 0 l 1
 18 0 l 1
 151 688 l 1
 322 688 l 1
 506 131 l 1
 512 171 l 1x5c
 526 256 l 1
 611 688 l 1
 739 688 l 1
 605 0 l 1x9c
446 747 m 1
 373 747 l 1
 376 762 l 1
 508 883 l 1
 639 883 l 1
 634 862 l 1
 446 747 l 1
EndSplineSet
EndChar

StartChar: nacute
Encoding: 324 324 260
Width: 611
GlyphClass: 2
Flags: MW
HStem: 0 21G<17 155 17 17 360 497 360 360> 434 104<339.5 469> 508 20G<117 248 248 248> 578 155<302 561 302 561>
VStem: 117 131<526.5 528> 431 138<364.5 443.5>
LayerCount: 2
Fore
SplineSet
497 0 m 1xbc
 360 0 l 1
 418 291 l 2
 427 331 431 358 431 371 c 0
 431 413 406 434 356 434 c 0
 323 434 293 421 265 394 c 0xdc
 237 367 219 335 212 296 c 2
 155 0 l 1
 17 0 l 1
 98 416 l 2
 103 441 110 479 117 528 c 1
 248 528 l 2
 248 525 246 512 243 487 c 2xbc
 236 438 l 1
 237 438 l 1
 286 506 343 538 419 538 c 0xdc
 519 538 569 488 569 399 c 0
 569 391 568 378 565 360 c 0
 563 342 561 328 559 319 c 2
 497 0 l 1xbc
373 578 m 1
 302 578 l 1
 305 593 l 1
 425 733 l 1
 561 733 l 1
 557 712 l 1
 373 578 l 1
EndSplineSet
EndChar

StartChar: Ncommaaccent
Encoding: 325 325 261
Width: 722
GlyphClass: 2
Flags: MW
HStem: -139 101<259 292 240 379> 0 21G<18 146 18 18 432 605 432 432> 0 131<506 506 506 605 432 506> 552 136<249 249> 668 20G<151 322 322 322 611 739 739 739>
VStem: 18 721<0 688>
LayerCount: 2
Fore
SplineSet
605 0 m 1xcc
 432 0 l 1
 249 552 l 1xd4
 242 499 235 461 230 436 c 2
 146 0 l 1
 18 0 l 1
 151 688 l 1
 322 688 l 1
 506 131 l 1
 512 171 l 1xac
 526 256 l 1
 611 688 l 1
 739 688 l 1
 605 0 l 1xcc
297 -222 m 1
 230 -222 l 1
 267 -189 287 -162 292 -139 c 1
 240 -139 l 1
 259 -38 l 1
 379 -38 l 1
 367 -100 l 2
 358 -145 341 -178 297 -222 c 1
EndSplineSet
EndChar

StartChar: ncommaaccent
Encoding: 326 326 262
Width: 611
GlyphClass: 2
Flags: MW
HStem: -139 101<199 232 179 318> 0 21G<17 155 17 17 360 497 360 360> 434 104<339.5 469> 508 20G<117 248 248 248>
VStem: 117 131<526.5 528> 431 138<364.5 443.5>
LayerCount: 2
Fore
SplineSet
497 0 m 1xdc
 360 0 l 1
 418 291 l 2
 427 331 431 358 431 371 c 0
 431 413 406 434 356 434 c 0
 323 434 293 421 265 394 c 0xec
 237 367 219 335 212 296 c 2
 155 0 l 1
 17 0 l 1
 98 416 l 2
 103 441 110 479 117 528 c 1
 248 528 l 2
 248 525 246 512 243 487 c 2xdc
 236 438 l 1
 237 438 l 1
 286 506 343 538 419 538 c 0xec
 519 538 569 488 569 399 c 0
 569 391 568 378 565 360 c 0
 563 342 561 328 559 319 c 2
 497 0 l 1xdc
237 -222 m 1
 170 -222 l 1
 207 -189 227 -162 232 -139 c 1
 179 -139 l 1
 199 -38 l 1
 318 -38 l 1
 307 -100 l 2
 298 -145 281 -178 237 -222 c 1
EndSplineSet
EndChar

StartChar: Ncaron
Encoding: 327 327 263
Width: 722
GlyphClass: 2
Flags: MW
HStem: 0 21G<18 146 18 18 432 605 432 432> 0 131<506 506 506 605 432 506> 552 136<249 249> 668 20G<151 322 322 322 611 739 739 739> 747 75<459 461 459 506 394 461> 882 14<294 370 654 654>
VStem: 18 721<0 688>
LayerCount: 2
Fore
SplineSet
605 0 m 1x9e
 432 0 l 1
 249 552 l 1xae
 242 499 235 461 230 436 c 2
 146 0 l 1
 18 0 l 1
 151 688 l 1
 322 688 l 1
 506 131 l 1
 512 171 l 1x5e
 526 256 l 1
 611 688 l 1
 739 688 l 1
 605 0 l 1x9e
654 882 m 1
 506 747 l 1
 394 747 l 1
 294 882 l 1
 297 896 l 1
 370 896 l 1
 459 822 l 1
 461 822 l 1
 574 896 l 1
 657 896 l 1
 654 882 l 1
EndSplineSet
EndChar

StartChar: ncaron
Encoding: 328 328 264
Width: 611
GlyphClass: 2
Flags: MW
HStem: 0 21G<17 155 17 17 360 497 360 360> 434 104<339.5 469> 508 20G<117 248 248 248> 578 74<366 368 366 413 301 368> 732 15<205 281 565 565>
VStem: 117 131<526.5 528> 431 138<364.5 443.5>
LayerCount: 2
Fore
SplineSet
497 0 m 1xbe
 360 0 l 1
 418 291 l 2
 427 331 431 358 431 371 c 0
 431 413 406 434 356 434 c 0
 323 434 293 421 265 394 c 0xde
 237 367 219 335 212 296 c 2
 155 0 l 1
 17 0 l 1
 98 416 l 2
 103 441 110 479 117 528 c 1
 248 528 l 2
 248 525 246 512 243 487 c 2xbe
 236 438 l 1
 237 438 l 1
 286 506 343 538 419 538 c 0xde
 519 538 569 488 569 399 c 0
 569 391 568 378 565 360 c 0
 563 342 561 328 559 319 c 2
 497 0 l 1xbe
565 732 m 1
 413 578 l 1
 301 578 l 1
 205 732 l 1
 208 747 l 1
 281 747 l 1
 366 652 l 1
 368 652 l 1
 485 747 l 1
 568 747 l 1
 565 732 l 1
EndSplineSet
EndChar

StartChar: napostrophe
Encoding: 329 329 265
Width: 708
GlyphClass: 2
Flags: MW
HStem: 0 21G<115 252 115 115 458 594 458 458> 406 122<4 345> 434 104<437.5 566.5> 508 20G<214 345 345 345> 561 127<61 98 36 201>
VStem: 214 131<526.5 528> 528 139<364.5 443.5>
LayerCount: 2
Fore
SplineSet
594 0 m 1x9e
 458 0 l 1
 516 291 l 2
 524 331 528 358 528 371 c 0
 528 413 503 434 454 434 c 0
 421 434 391 421 363 394 c 0xae
 335 367 317 335 310 296 c 2
 252 0 l 1
 115 0 l 1
 196 416 l 2
 201 441 207 479 214 528 c 1
 345 528 l 2
 345 525 343 512 340 487 c 0x9e
 337 463 335 447 333 438 c 1
 335 438 l 1
 384 506 441 538 517 538 c 0xae
 616 538 667 488 667 399 c 0
 667 391 666 378 663 360 c 0
 661 342 659 328 656 319 c 2
 594 0 l 1x9e
93 406 m 1xce
 4 406 l 1
 57 461 88 512 98 561 c 1
 36 561 l 1
 61 688 l 1
 201 688 l 1
 183 593 l 2
 167 517 142 461 93 406 c 1xce
EndSplineSet
EndChar

StartChar: Eng
Encoding: 330 330 266
Width: 723
GlyphClass: 2
Flags: MW
HStem: -10 114<410.5 440.5> 0 21G<18 161 18 18> 586 112<467.5 493.5> 668 20G<148 290 290 290>
VStem: 570 141<508.5 525>
LayerCount: 2
Fore
SplineSet
412 -10 m 0xa8
 325 -10 262 28 225 104 c 1
 346 162 l 1
 369 121 394 104 427 104 c 0
 454 104 475 115 489 136 c 0
 504 158 518 203 531 270 c 2
 558 411 l 2
 566 450 570 478 570 497 c 0
 570 553 532 586 455 586 c 0xa8
 360 586 262 517 246 435 c 2
 161 0 l 1
 18 0 l 1
 121 533 l 1
 148 688 l 1
 290 688 l 1x58
 287 666 281 625 270 565 c 1
 271 565 l 1
 334 652 419 698 516 698 c 0
 646 698 711 639 711 520 c 0
 711 497 708 469 701 434 c 2
 668 265 l 2
 653 186 636 129 616 93 c 0
 576 21 512 -10 412 -10 c 0xa8
EndSplineSet
EndChar

StartChar: eng
Encoding: 331 331 267
Width: 611
GlyphClass: 2
Flags: MW
HStem: -208 100<301.5 303.5 282 363.5> 0 21G<17 155 17 17> 434 104<339.5 469> 508 20G<117 248 248 248>
VStem: 117 131<525 528> 431 138<364.5 443.5>
LayerCount: 2
Fore
SplineSet
317 -208 m 0xdc
 286 -208 259 -205 236 -198 c 1
 253 -106 l 1
 282 -108 l 2
 325 -108 342 -89 354 -29 c 2
 418 291 l 2
 427 331 431 358 431 371 c 0
 431 413 406 434 356 434 c 0
 323 434 293 421 265 394 c 0xec
 237 367 219 335 212 296 c 2
 155 0 l 1
 17 0 l 1
 98 416 l 2
 103 441 110 479 117 528 c 1
 248 528 l 1xdc
 248 522 241 464 236 438 c 1
 237 438 l 1
 286 506 343 538 419 538 c 0xec
 519 538 569 488 569 399 c 0
 569 391 568 378 565 360 c 0
 563 342 561 328 559 319 c 2
 485 -63 l 2
 469 -152 410 -208 317 -208 c 0xdc
EndSplineSet
EndChar

StartChar: Omacron
Encoding: 332 332 268
Width: 778
GlyphClass: 2
Flags: MW
HStem: -10 114<309.5 388 309.5 434.5> 584 114<419.5 500> 750 83<332 602 315 620>
VStem: 49 146<224 310.5 224 318.5> 613 148<376.5 459.5 375.5 461.5>
LayerCount: 2
Fore
SplineSet
453 698 m 0
 548 698 623 673 678 622 c 0
 733 571 761 503 761 416 c 0
 761 335 744 262 709 195 c 0
 641 63 514 -10 355 -10 c 0
 165 -10 49 103 49 280 c 0
 49 357 66 428 100 494 c 0
 169 626 294 698 453 698 c 0
446 584 m 0
 393 584 348 572 311 547 c 0
 274 523 246 486 225 437 c 0
 205 388 195 337 195 284 c 0
 195 164 257 104 362 104 c 0
 414 104 459 116 496 140 c 0
 533 165 562 201 582 249 c 0
 603 297 613 349 613 404 c 0
 613 519 554 584 446 584 c 0
620 833 m 1
 602 750 l 1
 315 750 l 1
 332 833 l 1
 620 833 l 1
EndSplineSet
EndChar

StartChar: omacron
Encoding: 333 333 269
Width: 611
GlyphClass: 2
Flags: MW
HStem: -10 94<242.5 261> 444 94<344 367> 587 82<226 496 210 514>
VStem: 31 144<168 205> 435 144<333 363.5>
LayerCount: 2
Fore
SplineSet
579 333 m 0
 582 131 445 -13 261 -10 c 0
 120 -10 31 72 31 205 c 0
 27 400 159 540 344 538 c 0
 496 538 579 464 579 333 c 0
435 323 m 1
 435 404 401 444 333 444 c 0
 296 444 267 434 245 414 c 0
 223 395 206 365 193 325 c 0
 181 286 175 247 175 210 c 0
 175 126 209 84 276 84 c 0
 384 80 425 177 435 323 c 1
514 669 m 1
 496 587 l 1
 210 587 l 1
 226 669 l 1
 514 669 l 1
EndSplineSet
EndChar

StartChar: Obreve
Encoding: 334 334 270
Width: 778
GlyphClass: 2
Flags: MW
HStem: -10 114<309.5 388 309.5 434.5> 584 114<419.5 500> 742 68<453 504.5 453 520>
VStem: 49 146<224 310.5 224 318.5> 315 81<866 890 866 890> 613 148<376.5 459.5 375.5 461.5>
LayerCount: 2
Fore
SplineSet
453 698 m 0
 548 698 623 673 678 622 c 0
 733 571 761 503 761 416 c 0
 761 335 744 262 709 195 c 0
 641 63 514 -10 355 -10 c 0
 165 -10 49 103 49 280 c 0
 49 357 66 428 100 494 c 0
 169 626 294 698 453 698 c 0
446 584 m 0
 393 584 348 572 311 547 c 0
 274 523 246 486 225 437 c 0
 205 388 195 337 195 284 c 0
 195 164 257 104 362 104 c 0
 414 104 459 116 496 140 c 0
 533 165 562 201 582 249 c 0
 603 297 613 349 613 404 c 0
 613 519 554 584 446 584 c 0
468 742 m 0
 375 742 315 798 315 890 c 1
 396 890 l 1
 396 842 427 810 479 810 c 0
 530 810 563 833 582 890 c 1
 662 890 l 1
 634 790 572 742 468 742 c 0
EndSplineSet
EndChar

StartChar: obreve
Encoding: 335 335 271
Width: 611
GlyphClass: 2
Flags: MW
HStem: -10 94<242.5 261> 444 94<344 367> 578 76<354 403.5 354 422>
VStem: 31 144<168 205> 217 81<711 717> 435 144<333 363.5>
LayerCount: 2
Fore
SplineSet
579 333 m 0
 582 131 445 -13 261 -10 c 0
 120 -10 31 72 31 205 c 0
 27 400 159 540 344 538 c 0
 496 538 579 464 579 333 c 0
435 323 m 1
 435 404 401 444 333 444 c 0
 296 444 267 434 245 414 c 0
 223 395 206 365 193 325 c 0
 181 286 175 247 175 210 c 0
 175 126 209 84 276 84 c 0
 384 80 425 177 435 323 c 1
370 578 m 0
 279 578 217 633 217 717 c 1
 218 735 l 1
 298 735 l 1
 298 687 330 654 378 654 c 0
 429 654 468 684 484 735 c 1
 564 735 l 1
 536 628 474 578 370 578 c 0
EndSplineSet
EndChar

StartChar: Ohungarumlaut
Encoding: 336 336 272
Width: 778
GlyphClass: 2
Flags: MW
HStem: -10 114<309.5 388 309.5 434.5> 584 114<419.5 500> 747 136<313 557 313 557 511 511 511 557 429 578>
VStem: 49 146<224 310.5 224 318.5> 613 148<376.5 459.5 375.5 461.5>
LayerCount: 2
Fore
SplineSet
453 698 m 0
 548 698 623 673 678 622 c 0
 733 571 761 503 761 416 c 0
 761 335 744 262 709 195 c 0
 641 63 514 -10 355 -10 c 0
 165 -10 49 103 49 280 c 0
 49 357 66 428 100 494 c 0
 169 626 294 698 453 698 c 0
446 584 m 0
 393 584 348 572 311 547 c 0
 274 523 246 486 225 437 c 0
 205 388 195 337 195 284 c 0
 195 164 257 104 362 104 c 0
 414 104 459 116 496 140 c 0
 533 165 562 201 582 249 c 0
 603 297 613 349 613 404 c 0
 613 519 554 584 446 584 c 0
380 747 m 1
 313 747 l 1
 318 762 l 1
 429 883 l 1
 557 883 l 1
 552 862 l 1
 380 747 l 1
578 747 m 1
 511 747 l 1
 511 762 l 1
 627 883 l 1
 754 883 l 1
 750 862 l 1
 578 747 l 1
EndSplineSet
EndChar

StartChar: ohungarumlaut
Encoding: 337 337 273
Width: 611
GlyphClass: 2
Flags: MW
HStem: -10 94<242.5 261> 444 94<344 367> 578 155<181 439 181 439 379 379 379 439 312 450>
VStem: 31 144<168 205> 435 144<333 363.5>
LayerCount: 2
Fore
SplineSet
579 333 m 0
 582 131 445 -13 261 -10 c 0
 120 -10 31 72 31 205 c 0
 27 400 159 540 344 538 c 0
 496 538 579 464 579 333 c 0
435 323 m 1
 435 404 401 444 333 444 c 0
 296 444 267 434 245 414 c 0
 223 395 206 365 193 325 c 0
 181 286 175 247 175 210 c 0
 175 126 209 84 276 84 c 0
 384 80 425 177 435 323 c 1
252 578 m 1
 181 578 l 1
 186 593 l 1
 312 733 l 1
 439 733 l 1
 434 712 l 1
 252 578 l 1
450 578 m 1
 379 578 l 1
 384 593 l 1
 509 733 l 1
 637 733 l 1
 632 712 l 1
 450 578 l 1
EndSplineSet
EndChar

StartChar: OE
Encoding: 338 338 274
Width: 1000
GlyphClass: 2
Flags: MW
HStem: -5 113<307 369> 0 113<587 911> 296 108<644 919 623 940> 577 111<678 1003 678 678> 580 113<416.5 465.5>
VStem: 50 147<221.5 316.5 221.5 335.5>
LayerCount: 2
Fore
SplineSet
911 0 m 1x74
 448 0 l 2
 427 -3 393 -5 345 -5 c 0
 158 -5 50 99 50 280 c 0
 50 391 88 498 163 574 c 0
 238 651 344 693 463 693 c 0xac
 489 693 512 692 531 691 c 2
 562 688 l 1
 1025 688 l 1
 1003 577 l 1
 678 577 l 1
 644 404 l 1
 940 404 l 1
 919 296 l 1
 623 296 l 1
 587 113 l 1
 933 113 l 1
 911 0 l 1x74
359 108 m 0x74
 392 108 421 111 444 118 c 1
 532 571 l 1
 512 578 473 580 458 580 c 0
 375 580 312 554 267 498 c 0
 222 443 197 358 197 275 c 0xac
 197 168 255 108 359 108 c 0x74
EndSplineSet
EndChar

StartChar: oe
Encoding: 339 339 275
Width: 944
GlyphClass: 2
Flags: MW
HStem: -10 94<240 274 240 303.5> 232 92<584 794 584 910 568 794> 444 94<341 365> 451 87<677.5 734.5>
VStem: 28 144<170 205> 433 131<154.5 363.5> 796 125<351 385.5>
LayerCount: 2
Fore
SplineSet
910 232 m 1xde
 568 232 l 1
 565 220 564 206 564 189 c 0
 564 120 595 82 654 82 c 0
 702 82 737 110 758 165 c 1
 878 128 l 1
 829 25 762 -10 645 -10 c 0
 564 -10 505 15 466 64 c 1
 422 16 348 -10 259 -10 c 0
 116 -10 28 72 28 205 c 0
 24 400 159 540 341 538 c 0
 422 538 476 517 521 469 c 1
 571 515 633 538 708 538 c 0
 845 538 921 465 921 337 c 0
 921 305 917 270 910 232 c 1xde
433 323 m 1xee
 433 404 399 444 331 444 c 0
 294 444 264 434 242 414 c 0
 220 395 203 365 190 325 c 0
 178 286 172 247 172 210 c 0
 172 130 206 84 274 84 c 0
 384 78 423 184 433 323 c 1xee
584 324 m 1
 794 324 l 1
 796 351 l 1
 796 420 761 451 708 451 c 0xde
 647 451 603 407 584 324 c 1
EndSplineSet
EndChar

StartChar: Racute
Encoding: 340 340 276
Width: 722
GlyphClass: 2
Flags: MW
HStem: 0 21G<18 162 18 18 493 652 493 493> 261 112<234 381 212 426> 576 112<273 451 273 273> 862 21<622 622>
VStem: 569 146<464.5 513>
LayerCount: 2
Fore
SplineSet
652 0 m 1
 493 0 l 1
 381 261 l 1
 212 261 l 1
 162 0 l 1
 18 0 l 1
 151 688 l 1
 469 688 l 2
 626 688 715 612 715 491 c 0
 715 438 697 392 662 354 c 0
 627 317 579 294 519 285 c 1
 652 0 l 1
234 373 m 1
 426 373 l 2
 521 373 569 412 569 483 c 0
 569 543 526 576 451 576 c 2
 273 576 l 1
 234 373 l 1
433 747 m 1
 360 747 l 1
 364 762 l 1
 496 883 l 1
 626 883 l 1
 622 862 l 1
 433 747 l 1
EndSplineSet
EndChar

StartChar: racute
Encoding: 341 341 277
Width: 389
GlyphClass: 2
Flags: MW
HStem: 0 21G<17 154 17 17> 424 104<116 363.5> 424 114<354 363.5> 511 20G<435 435> 531 7 578 155<213 472 213 472>
VStem: 17 455 116 125
LayerCount: 2
Fore
SplineSet
435 531 m 1x8e
 412 417 l 1
 389 422 371 424 356 424 c 0xa5
 276 424 227 368 204 251 c 2
 154 0 l 1
 17 0 l 1
 96 405 l 2
 103 444 110 485 116 528 c 1
 247 528 l 1
 236 444 l 1xc5
 232 420 l 1
 234 420 l 1xa5
 282 508 324 538 384 538 c 0xa6
 399 538 416 536 435 531 c 1x8e
285 578 m 1
 213 578 l 1
 216 593 l 1
 337 733 l 1
 472 733 l 1
 468 712 l 1
 285 578 l 1
EndSplineSet
EndChar

StartChar: Rcommaaccent
Encoding: 342 342 278
Width: 722
GlyphClass: 2
Flags: MW
HStem: -139 101<266 299 246 385> 0 21G<18 162 18 18 493 652 493 493> 261 112<234 381 212 426> 576 112<273 451 273 273>
VStem: 569 146<464.5 513>
LayerCount: 2
Fore
SplineSet
652 0 m 1
 493 0 l 1
 381 261 l 1
 212 261 l 1
 162 0 l 1
 18 0 l 1
 151 688 l 1
 469 688 l 2
 626 688 715 612 715 491 c 0
 715 438 697 392 662 354 c 0
 627 317 579 294 519 285 c 1
 652 0 l 1
234 373 m 1
 426 373 l 2
 521 373 569 412 569 483 c 0
 569 543 526 576 451 576 c 2
 273 576 l 1
 234 373 l 1
304 -222 m 1
 237 -222 l 1
 274 -189 294 -162 299 -139 c 1
 246 -139 l 1
 266 -38 l 1
 385 -38 l 1
 374 -100 l 2
 365 -145 347 -178 304 -222 c 1
EndSplineSet
EndChar

StartChar: rcommaaccent
Encoding: 343 343 279
Width: 389
GlyphClass: 2
Flags: MW
HStem: -139 101<20 53 0 140> 0 21G<17 154 17 17> 424 104<116 363.5> 424 114<354 363.5> 511 20G<435 435> 531 7
VStem: -9 444 116 125
LayerCount: 2
Fore
SplineSet
435 531 m 1xc6
 412 417 l 1
 389 422 371 424 356 424 c 0xd1
 276 424 227 368 204 251 c 2
 154 0 l 1
 17 0 l 1
 96 405 l 2
 103 444 110 485 116 528 c 1
 247 528 l 1
 236 444 l 1xe1
 232 420 l 1
 234 420 l 1xd1
 282 508 324 538 384 538 c 0xd2
 399 538 416 536 435 531 c 1xc6
58 -222 m 1
 -9 -222 l 1
 28 -189 48 -162 53 -139 c 1
 0 -139 l 1
 20 -38 l 1
 140 -38 l 1
 128 -100 l 2
 119 -145 102 -178 58 -222 c 1
EndSplineSet
EndChar

StartChar: Rcaron
Encoding: 344 344 280
Width: 722
GlyphClass: 2
Flags: MW
HStem: 0 21G<18 162 18 18 493 652 493 493> 261 112<234 381 212 426> 576 112<273 451 273 273> 747 75<408 410 408 455 343 410> 882 14<243 319 603 603>
VStem: 569 146<464.5 513>
LayerCount: 2
Fore
SplineSet
652 0 m 1
 493 0 l 1
 381 261 l 1
 212 261 l 1
 162 0 l 1
 18 0 l 1
 151 688 l 1
 469 688 l 2
 626 688 715 612 715 491 c 0
 715 438 697 392 662 354 c 0
 627 317 579 294 519 285 c 1
 652 0 l 1
234 373 m 1
 426 373 l 2
 521 373 569 412 569 483 c 0
 569 543 526 576 451 576 c 2
 273 576 l 1
 234 373 l 1
603 882 m 1
 455 747 l 1
 343 747 l 1
 243 882 l 1
 246 896 l 1
 319 896 l 1
 408 822 l 1
 410 822 l 1
 523 896 l 1
 605 896 l 1
 603 882 l 1
EndSplineSet
EndChar

StartChar: rcaron
Encoding: 345 345 281
Width: 389
GlyphClass: 2
Flags: MW
HStem: 0 21G<17 154 17 17> 424 104<116 363.5> 424 114<354 363.5> 511 20G<435 435> 531 7 578 74<282 284 282 329 217 284> 732 15<121 197 481 481>
VStem: 17 467 116 125
LayerCount: 2
Fore
SplineSet
435 531 m 1x8f
 412 417 l 1
 389 422 371 424 356 424 c 0xa680
 276 424 227 368 204 251 c 2
 154 0 l 1
 17 0 l 1
 96 405 l 2
 103 444 110 485 116 528 c 1
 247 528 l 1
 236 444 l 1xc680
 232 420 l 1
 234 420 l 1xa680
 282 508 324 538 384 538 c 0xa7
 399 538 416 536 435 531 c 1x8f
481 732 m 1
 329 578 l 1
 217 578 l 1
 121 732 l 1
 124 747 l 1
 197 747 l 1
 282 652 l 1
 284 652 l 1
 401 747 l 1
 484 747 l 1
 481 732 l 1
EndSplineSet
EndChar

StartChar: Sacute
Encoding: 346 346 282
Width: 667
GlyphClass: 2
Flags: MW
HStem: -10 108<257 359 257 397.5> 596 102<341.5 414.5> 862 21<609 609>
VStem: 104 142<503.5 535> 471 141<162.5 208>
LayerCount: 2
Fore
SplineSet
293 -10 m 0
 120 -10 31 51 12 178 c 1
 153 202 l 1
 168 130 211 98 303 98 c 0
 415 98 471 130 471 195 c 0
 471 221 461 242 442 257 c 0
 423 272 384 287 326 302 c 0
 266 318 221 334 192 351 c 0
 135 386 104 434 104 506 c 0
 104 564 129 610 180 645 c 0
 231 680 299 698 384 698 c 0
 539 698 636 641 657 533 c 1
 516 500 l 1
 501 559 453 596 376 596 c 0
 295 596 246 564 246 511 c 0
 246 496 250 483 258 472 c 0
 267 461 279 452 295 444 c 0
 312 436 344 426 393 413 c 0
 444 398 482 385 507 372 c 0
 532 360 551 346 566 330 c 0
 597 299 612 259 612 207 c 0
 612 66 502 -10 293 -10 c 0
421 747 m 1
 348 747 l 1
 352 762 l 1
 483 883 l 1
 614 883 l 1
 609 862 l 1
 421 747 l 1
EndSplineSet
EndChar

StartChar: sacute
Encoding: 347 347 283
Width: 556
GlyphClass: 2
Flags: MW
HStem: -10 91<216.5 288 216.5 323> 446 91<268.5 329.5> 578 155<265 524 265 524>
VStem: 75 127<381.5 406.5 381.5 427.5> 361 127<125.5 155.5>
LayerCount: 2
Fore
SplineSet
488 163 m 0
 488 50 403 -10 243 -10 c 0
 112 -10 38 36 11 132 c 1
 134 150 l 1
 147 101 181 81 252 81 c 0
 324 81 361 104 361 147 c 0
 361 164 354 177 340 186 c 0
 327 195 297 205 251 214 c 0
 122 243 75 294 75 375 c 0
 75 480 159 537 311 537 c 0
 446 537 506 492 522 396 c 1
 399 382 l 1
 388 427 357 446 302 446 c 0
 235 446 202 426 202 387 c 0
 202 376 205 367 211 360 c 0
 218 353 227 347 239 342 c 0
 251 337 280 329 326 318 c 0
 445 291 488 244 488 163 c 0
336 578 m 1
 265 578 l 1
 268 593 l 1
 389 733 l 1
 524 733 l 1
 520 712 l 1
 336 578 l 1
EndSplineSet
EndChar

StartChar: Scircumflex
Encoding: 348 348 284
Width: 667
GlyphClass: 2
Flags: MW
HStem: -10 108<257 359 257 397.5> 596 102<341.5 414.5> 747 14<229 229 229 310 227 229> 821 75<427 429 427 427>
VStem: 104 142<503.5 535> 471 141<162.5 208>
LayerCount: 2
Fore
SplineSet
293 -10 m 0
 120 -10 31 51 12 178 c 1
 153 202 l 1
 168 130 211 98 303 98 c 0
 415 98 471 130 471 195 c 0
 471 221 461 242 442 257 c 0
 423 272 384 287 326 302 c 0
 266 318 221 334 192 351 c 0
 135 386 104 434 104 506 c 0
 104 564 129 610 180 645 c 0
 231 680 299 698 384 698 c 0
 539 698 636 641 657 533 c 1
 516 500 l 1
 501 559 453 596 376 596 c 0
 295 596 246 564 246 511 c 0
 246 496 250 483 258 472 c 0
 267 461 279 452 295 444 c 0
 312 436 344 426 393 413 c 0
 444 398 482 385 507 372 c 0
 532 360 551 346 566 330 c 0
 597 299 612 259 612 207 c 0
 612 66 502 -10 293 -10 c 0
493 896 m 1
 589 761 l 1
 586 747 l 1
 514 747 l 1
 429 821 l 1
 427 821 l 1
 310 747 l 1
 227 747 l 1
 229 761 l 1
 381 896 l 1
 493 896 l 1
EndSplineSet
EndChar

StartChar: scircumflex
Encoding: 349 349 285
Width: 556
GlyphClass: 2
Flags: MW
HStem: -10 91<216.5 288 216.5 323> 446 91<268.5 329.5> 578 13<136 136 136 216 134 136> 578 169<134 404 134 404 292 494 292 420>
VStem: 75 127<381.5 406.5 381.5 427.5> 361 127<125.5 155.5>
LayerCount: 2
Fore
SplineSet
488 163 m 0xec
 488 50 403 -10 243 -10 c 0
 112 -10 38 36 11 132 c 1
 134 150 l 1
 147 101 181 81 252 81 c 0
 324 81 361 104 361 147 c 0
 361 164 354 177 340 186 c 0
 327 195 297 205 251 214 c 0
 122 243 75 294 75 375 c 0
 75 480 159 537 311 537 c 0
 446 537 506 492 522 396 c 1
 399 382 l 1
 388 427 357 446 302 446 c 0
 235 446 202 426 202 387 c 0
 202 376 205 367 211 360 c 0
 218 353 227 347 239 342 c 0
 251 337 280 329 326 318 c 0
 445 291 488 244 488 163 c 0xec
404 747 m 1xdc
 496 591 l 1
 494 578 l 1
 420 578 l 1xec
 339 671 l 1
 337 671 l 1
 216 578 l 1
 134 578 l 1
 136 591 l 1
 292 747 l 1
 404 747 l 1xdc
EndSplineSet
EndChar

StartChar: Scedilla
Encoding: 350 350 286
Width: 667
GlyphClass: 2
Flags: MW
HStem: -208 57<222.5 255.5 222.5 284.5> -83 42 -10 10<273 342 273 397.5> -10 108<257 359 257 397.5> 596 102<341.5 414.5>
VStem: 104 142<503.5 535> 305 91<-127 -103> 471 141<162.5 208>
LayerCount: 2
Fore
SplineSet
293 -10 m 0xaf
 120 -10 31 51 12 178 c 1
 153 202 l 1
 168 130 211 98 303 98 c 0
 415 98 471 130 471 195 c 0x9f
 471 221 461 242 442 257 c 0
 423 272 384 287 326 302 c 0
 266 318 221 334 192 351 c 0
 135 386 104 434 104 506 c 0
 104 564 129 610 180 645 c 0
 231 680 299 698 384 698 c 0
 539 698 636 641 657 533 c 1
 516 500 l 1
 501 559 453 596 376 596 c 0
 295 596 246 564 246 511 c 0
 246 496 250 483 258 472 c 0
 267 461 279 452 295 444 c 0
 312 436 344 426 393 413 c 0
 444 398 482 385 507 372 c 0
 532 360 551 346 566 330 c 0
 597 299 612 259 612 207 c 0
 612 66 502 -10 293 -10 c 0xaf
227 -208 m 0
 211 -208 194 -207 175 -205 c 1
 189 -147 l 1
 203 -150 216 -151 229 -151 c 0
 282 -151 305 -141 305 -113 c 0
 305 -93 287 -83 251 -83 c 2
 239 -83 l 1
 226 -83 l 1
 273 0 l 1
 342 0 l 1
 319 -41 l 1xef
 364 -41 396 -62 396 -105 c 0
 396 -168 342 -208 227 -208 c 0
EndSplineSet
EndChar

StartChar: scedilla
Encoding: 351 351 287
Width: 556
GlyphClass: 2
Flags: MW
HStem: -208 57<161.5 194.5 161.5 223.5> -83 42 -10 10<212 281 212 323> -10 91<216.5 288 216.5 323> 446 91<268.5 329.5>
VStem: 75 127<381.5 406.5 381.5 427.5> 244 90<-127 -103> 361 127<125.5 155.5>
LayerCount: 2
Fore
SplineSet
488 163 m 0xad
 488 50 403 -10 243 -10 c 0xad
 112 -10 38 36 11 132 c 1
 134 150 l 1
 147 101 181 81 252 81 c 0
 324 81 361 104 361 147 c 0x9d
 361 164 354 177 340 186 c 0
 327 195 297 205 251 214 c 0
 122 243 75 294 75 375 c 0
 75 480 159 537 311 537 c 0
 446 537 506 492 522 396 c 1
 399 382 l 1
 388 427 357 446 302 446 c 0
 235 446 202 426 202 387 c 0
 202 376 205 367 211 360 c 0
 218 353 227 347 239 342 c 0
 251 337 280 329 326 318 c 0
 445 291 488 244 488 163 c 0xad
166 -208 m 0
 150 -208 133 -207 114 -205 c 1
 128 -147 l 1
 142 -150 155 -151 168 -151 c 0
 221 -151 244 -141 244 -113 c 0
 244 -93 226 -83 190 -83 c 2
 178 -83 l 1
 165 -83 l 1
 212 0 l 1
 281 0 l 1
 258 -41 l 1
 303 -41 334 -62 334 -105 c 0xef
 334 -168 281 -208 166 -208 c 0
EndSplineSet
EndChar

StartChar: Scaron
Encoding: 352 352 288
Width: 667
GlyphClass: 2
Flags: MW
HStem: -10 108<257 359 257 397.5> 596 102<341.5 414.5> 747 75<409 411 409 456 344 411> 882 14<245 320 604 604>
VStem: 104 142<503.5 535> 471 141<162.5 208>
LayerCount: 2
Fore
SplineSet
293 -10 m 0
 120 -10 31 51 12 178 c 1
 153 202 l 1
 168 130 211 98 303 98 c 0
 415 98 471 130 471 195 c 0
 471 221 461 242 442 257 c 0
 423 272 384 287 326 302 c 0
 266 318 221 334 192 351 c 0
 135 386 104 434 104 506 c 0
 104 564 129 610 180 645 c 0
 231 680 299 698 384 698 c 0
 539 698 636 641 657 533 c 1
 516 500 l 1
 501 559 453 596 376 596 c 0
 295 596 246 564 246 511 c 0
 246 496 250 483 258 472 c 0
 267 461 279 452 295 444 c 0
 312 436 344 426 393 413 c 0
 444 398 482 385 507 372 c 0
 532 360 551 346 566 330 c 0
 597 299 612 259 612 207 c 0
 612 66 502 -10 293 -10 c 0
604 882 m 1
 456 747 l 1
 344 747 l 1
 245 882 l 1
 247 896 l 1
 320 896 l 1
 409 822 l 1
 411 822 l 1
 524 896 l 1
 607 896 l 1
 604 882 l 1
EndSplineSet
EndChar

StartChar: scaron
Encoding: 353 353 289
Width: 556
GlyphClass: 2
Flags: MW
HStem: -10 91<216.5 288 216.5 323> 446 91<268.5 329.5> 578 74<332 334 332 379 267 334> 732 15<171 247 531 531>
VStem: 75 127<381.5 406.5 381.5 427.5> 361 127<125.5 155.5>
LayerCount: 2
Fore
SplineSet
488 163 m 0
 488 50 403 -10 243 -10 c 0
 112 -10 38 36 11 132 c 1
 134 150 l 1
 147 101 181 81 252 81 c 0
 324 81 361 104 361 147 c 0
 361 164 354 177 340 186 c 0
 327 195 297 205 251 214 c 0
 122 243 75 294 75 375 c 0
 75 480 159 537 311 537 c 0
 446 537 506 492 522 396 c 1
 399 382 l 1
 388 427 357 446 302 446 c 0
 235 446 202 426 202 387 c 0
 202 376 205 367 211 360 c 0
 218 353 227 347 239 342 c 0
 251 337 280 329 326 318 c 0
 445 291 488 244 488 163 c 0
531 732 m 1
 379 578 l 1
 267 578 l 1
 171 732 l 1
 174 747 l 1
 247 747 l 1
 332 652 l 1
 334 652 l 1
 451 747 l 1
 534 747 l 1
 531 732 l 1
EndSplineSet
EndChar

StartChar: uni0162
Encoding: 354 354 290
Width: 611
GlyphClass: 2
Flags: MW
HStem: -208 57<167.5 200.5 167.5 229.5> -83 83<181 184 170 325 184 196> 0 21G<181 325 181 181 218 287 287 287> 577 111<92 293 71 681 437 660 437 437>
VStem: 250 90<-127 -103>
LayerCount: 2
Fore
SplineSet
660 577 m 1xb8
 437 577 l 1
 325 0 l 1
 181 0 l 1
 293 577 l 1
 71 577 l 1
 92 688 l 1
 681 688 l 1
 660 577 l 1xb8
172 -208 m 0
 155 -208 138 -207 120 -205 c 1
 134 -147 l 1
 148 -150 161 -151 174 -151 c 0
 227 -151 250 -141 250 -113 c 0
 250 -93 232 -83 196 -83 c 2
 184 -83 l 1
 170 -83 l 1
 218 0 l 1xd8
 287 0 l 1xb8
 264 -41 l 1xd8
 309 -41 340 -62 340 -105 c 0
 340 -168 287 -208 172 -208 c 0
EndSplineSet
EndChar

StartChar: uni0163
Encoding: 355 355 291
Width: 333
GlyphClass: 2
Flags: MW
HStem: -208 57<76.5 109 76.5 138> -83 42 -8 8<143.5 195 126 200.5> 436 92<60 114 42 139 269 350>
VStem: 57 137<66.5 136.5> 158 91<-127 -103>
LayerCount: 2
Fore
SplineSet
184 -8 m 0xb8
 103 -8 57 31 57 102 c 0
 57 125 59 151 64 179 c 2
 114 436 l 1
 42 436 l 1
 60 528 l 1
 139 528 l 1
 206 652 l 1
 292 652 l 1
 269 528 l 1
 367 528 l 1
 350 436 l 1
 250 436 l 1
 199 174 l 2
 196 156 194 142 194 131 c 0
 194 100 211 86 236 86 c 0
 247 86 264 88 289 93 c 1
 273 4 l 1
 247 -4 217 -8 184 -8 c 0xb8
80 -208 m 0
 64 -208 47 -207 28 -205 c 1
 42 -147 l 1
 56 -150 70 -151 83 -151 c 0
 135 -151 158 -141 158 -113 c 0
 158 -93 140 -83 104 -83 c 2
 92 -83 l 1
 79 -83 l 1
 126 0 l 1
 195 0 l 1
 172 -41 l 1
 217 -41 249 -62 249 -105 c 0xf4
 249 -168 196 -208 80 -208 c 0
EndSplineSet
EndChar

StartChar: Tcaron
Encoding: 356 356 292
Width: 611
GlyphClass: 2
Flags: MW
HStem: 0 21G<181 325 181 181> 577 111<92 293 71 681 437 660 437 437> 747 75<400 402 400 447 335 402> 882 14<235 311 595 595>
VStem: 71 610<577 688>
LayerCount: 2
Fore
SplineSet
660 577 m 1
 437 577 l 1
 325 0 l 1
 181 0 l 1
 293 577 l 1
 71 577 l 1
 92 688 l 1
 681 688 l 1
 660 577 l 1
595 882 m 1
 447 747 l 1
 335 747 l 1
 235 882 l 1
 238 896 l 1
 311 896 l 1
 400 822 l 1
 402 822 l 1
 515 896 l 1
 598 896 l 1
 595 882 l 1
EndSplineSet
EndChar

StartChar: tcaron
Encoding: 357 357 293
Width: 479
GlyphClass: 2
Flags: MW
HStem: -8 94<143.5 241.5> 436 92<60 114 42 139 269 350> 624 101<436 469 416 555>
VStem: 57 137<66.5 136.5>
LayerCount: 2
Fore
SplineSet
184 -8 m 0
 103 -8 57 31 57 102 c 0
 57 125 59 151 64 179 c 2
 114 436 l 1
 42 436 l 1
 60 528 l 1
 139 528 l 1
 206 652 l 1
 292 652 l 1
 269 528 l 1
 367 528 l 1
 350 436 l 1
 250 436 l 1
 199 174 l 2
 196 156 194 142 194 131 c 0
 194 100 211 86 236 86 c 0
 247 86 264 88 289 93 c 1
 273 4 l 1
 247 -4 217 -8 184 -8 c 0
472 531 m 1
 405 531 l 1
 442 564 463 595 469 624 c 1
 416 624 l 1
 436 725 l 1
 555 725 l 1
 542 653 l 2
 531 608 516 575 472 531 c 1
EndSplineSet
EndChar

StartChar: Tbar
Encoding: 358 358 294
Width: 611
GlyphClass: 2
Flags: MW
HStem: 0 21G<181 325 181 181> 306 92<147 240 129 258 402 496> 577 111<92 293 71 681 437 660 437 437>
VStem: 71 610<577 688>
LayerCount: 2
Fore
SplineSet
660 577 m 1
 437 577 l 1
 402 398 l 1
 514 398 l 1
 496 306 l 1
 384 306 l 1
 325 0 l 1
 181 0 l 1
 240 306 l 1
 129 306 l 1
 147 398 l 1
 258 398 l 1
 293 577 l 1
 71 577 l 1
 92 688 l 1
 681 688 l 1
 660 577 l 1
EndSplineSet
EndChar

StartChar: tbar
Encoding: 359 359 295
Width: 333
GlyphClass: 2
Flags: MW
HStem: -8 94<143.5 241.5> 231 93<30 74 13 92 228 300> 436 92<60 114 42 139 269 350>
VStem: 57 137<66.5 136.5>
LayerCount: 2
Fore
SplineSet
184 -8 m 0
 103 -8 57 31 57 102 c 0
 57 125 59 151 64 179 c 2
 74 231 l 1
 13 231 l 1
 30 324 l 1
 92 324 l 1
 114 436 l 1
 42 436 l 1
 60 528 l 1
 139 528 l 1
 206 652 l 1
 292 652 l 1
 269 528 l 1
 367 528 l 1
 350 436 l 1
 250 436 l 1
 228 324 l 1
 318 324 l 1
 300 231 l 1
 210 231 l 1
 199 174 l 2
 196 156 194 142 194 131 c 0
 194 100 211 86 236 86 c 0
 247 86 264 88 289 93 c 1
 273 4 l 1
 247 -4 217 -8 184 -8 c 0
EndSplineSet
EndChar

StartChar: Utilde
Encoding: 360 360 296
Width: 722
GlyphClass: 2
Flags: MW
HStem: -10 113<294 390 294 423.5> 668 20G<142 286 286 286 599 743 743 743> 747 83<516.5 550 516.5 558.5> 807 83<365.5 399>
VStem: 58 144<174.5 222 174.5 224.5>
LayerCount: 2
Fore
SplineSet
336 103 m 0xd8
 444 103 494 148 517 264 c 2
 599 688 l 1
 743 688 l 1
 659 259 l 2
 623 76 519 -10 328 -10 c 0
 156 -10 58 70 58 210 c 0
 58 239 64 286 69 310 c 2
 142 688 l 1
 286 688 l 1
 211 292 l 2
 205 264 202 236 202 208 c 0
 202 141 252 103 336 103 c 0xd8
525 747 m 0xe8
 468 747 419 807 379 807 c 0
 352 807 336 794 320 747 c 1
 253 747 l 1
 278 850 323 890 391 890 c 0xd8
 450 890 497 830 536 830 c 0
 564 830 580 846 596 890 c 1
 662 890 l 1
 637 787 592 747 525 747 c 0xe8
EndSplineSet
EndChar

StartChar: utilde
Encoding: 361 361 297
Width: 611
GlyphClass: 2
Flags: MW
HStem: -9 103<141.5 270.5> 0 21G<363 494 363 363> 508 20G<114 250 250 250 456 593 593 593> 578 83<434.5 467 434.5 475.5> 638 83<283 317>
VStem: 42 138<136 137.5> 363 131<0 1.5>
LayerCount: 2
Fore
SplineSet
114 528 m 1x6e
 250 528 l 1
 192 238 l 2
 184 198 180 171 180 157 c 0
 180 115 205 94 254 94 c 0
 287 94 317 107 345 133 c 0xb6
 373 160 391 193 398 232 c 2
 456 528 l 1
 593 528 l 1
 512 113 l 2
 507 87 501 49 494 0 c 1
 363 0 l 2
 363 3 364 16 367 41 c 0x6e
 370 66 373 82 375 90 c 1
 373 90 l 1
 324 21 267 -9 191 -9 c 0xae
 92 -9 42 40 42 129 c 0
 42 146 47 192 52 209 c 2
 114 528 l 1x6e
442 578 m 0
 385 578 337 638 297 638 c 0
 269 638 254 625 237 578 c 1
 171 578 l 1
 196 681 241 721 308 721 c 0x6e
 368 721 416 661 453 661 c 0
 481 661 497 677 513 721 c 1
 579 721 l 1
 554 618 509 578 442 578 c 0
EndSplineSet
EndChar

StartChar: Umacron
Encoding: 362 362 298
Width: 722
GlyphClass: 2
Flags: MW
HStem: -10 113<294 390 294 423.5> 668 20G<142 286 286 286 599 743 743 743> 748 82<323 593 307 611>
VStem: 58 144<174.5 222 174.5 224.5>
LayerCount: 2
Fore
SplineSet
336 103 m 0
 444 103 494 148 517 264 c 2
 599 688 l 1
 743 688 l 1
 659 259 l 2
 623 76 519 -10 328 -10 c 0
 156 -10 58 70 58 210 c 0
 58 239 64 286 69 310 c 2
 142 688 l 1
 286 688 l 1
 211 292 l 2
 205 264 202 236 202 208 c 0
 202 141 252 103 336 103 c 0
611 830 m 1
 593 748 l 1
 307 748 l 1
 323 830 l 1
 611 830 l 1
EndSplineSet
EndChar

StartChar: umacron
Encoding: 363 363 299
Width: 611
GlyphClass: 2
Flags: MW
HStem: -9 103<141.5 270.5> 0 21G<363 494 363 363> 508 20G<114 250 250 250 456 593 593 593> 587 82<232 502 216 521>
VStem: 42 138<136 137.5> 363 131<0 1.5>
LayerCount: 2
Fore
SplineSet
114 528 m 1x7c
 250 528 l 1
 192 238 l 2
 184 198 180 171 180 157 c 0
 180 115 205 94 254 94 c 0
 287 94 317 107 345 133 c 0xbc
 373 160 391 193 398 232 c 2
 456 528 l 1
 593 528 l 1
 512 113 l 2
 507 87 501 49 494 0 c 1
 363 0 l 2
 363 3 364 16 367 41 c 0x7c
 370 66 373 82 375 90 c 1
 373 90 l 1
 324 21 267 -9 191 -9 c 0xbc
 92 -9 42 40 42 129 c 0
 42 146 47 192 52 209 c 2
 114 528 l 1x7c
521 669 m 1
 502 587 l 1
 216 587 l 1
 232 669 l 1
 521 669 l 1
EndSplineSet
EndChar

StartChar: Ubreve
Encoding: 364 364 300
Width: 722
GlyphClass: 2
Flags: MW
HStem: -10 113<294 390 294 423.5> 668 20G<142 286 286 286 599 743 743 743> 742 68<429.5 480.5 429.5 496.5>
VStem: 58 144<174.5 222 174.5 224.5> 292 80<866 890 866 890>
LayerCount: 2
Fore
SplineSet
336 103 m 0
 444 103 494 148 517 264 c 2
 599 688 l 1
 743 688 l 1
 659 259 l 2
 623 76 519 -10 328 -10 c 0
 156 -10 58 70 58 210 c 0
 58 239 64 286 69 310 c 2
 142 688 l 1
 286 688 l 1
 211 292 l 2
 205 264 202 236 202 208 c 0
 202 141 252 103 336 103 c 0
444 742 m 0
 352 742 292 798 292 890 c 1
 372 890 l 1
 372 842 404 810 455 810 c 0
 506 810 541 833 558 890 c 1
 638 890 l 1
 611 790 549 742 444 742 c 0
EndSplineSet
EndChar

StartChar: ubreve
Encoding: 365 365 301
Width: 611
GlyphClass: 2
Flags: MW
HStem: -9 103<141.5 270.5> 0 21G<363 494 363 363> 508 20G<114 250 250 250 456 593 593 593> 578 76<344 393.5 344 412>
VStem: 42 138<136 137.5> 207 81<711 717> 363 131<0 1.5>
LayerCount: 2
Fore
SplineSet
114 528 m 1xbe
 250 528 l 1
 192 238 l 2
 184 198 180 171 180 157 c 0
 180 115 205 94 254 94 c 0
 287 94 317 107 345 133 c 0xbe
 373 160 391 193 398 232 c 2
 456 528 l 1
 593 528 l 1
 512 113 l 2
 507 87 501 49 494 0 c 1
 363 0 l 2
 363 3 364 16 367 41 c 0x76
 370 66 373 82 375 90 c 1
 373 90 l 1
 324 21 267 -9 191 -9 c 0
 92 -9 42 40 42 129 c 0
 42 146 47 192 52 209 c 2
 114 528 l 1xbe
360 578 m 0x76
 269 578 207 633 207 717 c 1
 208 735 l 1
 288 735 l 1
 288 687 320 654 368 654 c 0
 419 654 458 684 474 735 c 1
 554 735 l 1
 526 628 464 578 360 578 c 0x76
EndSplineSet
EndChar

StartChar: Uring
Encoding: 366 366 302
Width: 722
GlyphClass: 2
Flags: MW
HStem: -10 113<294 390 294 423.5> 668 20G<142 286 286 286 599 743 743 743> 718 61<436.5 470.5 436.5 470.5> 903 63<436.5 470 436 470.5>
VStem: 58 144<174.5 222 174.5 224.5> 329 63<825 859> 515 62<825 858.5>
LayerCount: 2
Fore
SplineSet
336 103 m 0
 444 103 494 148 517 264 c 2
 599 688 l 1
 743 688 l 1
 659 259 l 2
 623 76 519 -10 328 -10 c 0
 156 -10 58 70 58 210 c 0
 58 239 64 286 69 310 c 2
 142 688 l 1
 286 688 l 1
 211 292 l 2
 205 264 202 236 202 208 c 0
 202 141 252 103 336 103 c 0
577 842 m 0
 577 808 565 779 541 754 c 0
 517 730 488 718 453 718 c 0
 418 718 389 730 365 754 c 0
 341 779 329 808 329 842 c 0
 329 876 341 905 365 929 c 0
 390 954 419 966 453 966 c 0
 487 966 516 954 540 929 c 0
 565 905 577 876 577 842 c 0
515 842 m 0
 515 875 488 903 453 903 c 0
 420 903 392 877 392 842 c 0
 392 805 420 779 453 779 c 0
 488 779 515 806 515 842 c 0
EndSplineSet
EndChar

StartChar: uring
Encoding: 367 367 303
Width: 611
GlyphClass: 2
Flags: MW
HStem: -9 103<141.5 270.5> 0 21G<363 494 363 363> 508 20G<114 250 250 250 456 593 593 593> 555 61<340 373.5 340 373.5> 740 63<340 373.5 339 374>
VStem: 42 138<136 137.5> 232 63<661.5 696> 363 131<0 1.5> 418 62<661.5 695.5>
LayerCount: 2
Fore
SplineSet
114 528 m 1x6e80
 250 528 l 1
 192 238 l 2
 184 198 180 171 180 157 c 0
 180 115 205 94 254 94 c 0
 287 94 317 107 345 133 c 0xaf
 373 160 391 193 398 232 c 2
 456 528 l 1
 593 528 l 1
 512 113 l 2
 507 87 501 49 494 0 c 1
 363 0 l 2
 363 3 364 16 367 41 c 0x6f
 370 66 373 82 375 90 c 1
 373 90 l 1
 324 21 267 -9 191 -9 c 0xaf
 92 -9 42 40 42 129 c 0
 42 146 47 192 52 209 c 2
 114 528 l 1x6e80
480 679 m 0x7e80
 480 644 468 615 444 591 c 0
 421 567 391 555 356 555 c 0
 321 555 292 567 268 591 c 0
 244 615 232 644 232 679 c 0
 232 713 244 742 268 766 c 0
 293 791 322 803 356 803 c 0
 391 803 420 791 444 766 c 0
 468 742 480 713 480 679 c 0x7e80
418 679 m 0
 418 712 392 740 356 740 c 0
 324 740 295 714 295 679 c 0
 295 642 324 616 356 616 c 0
 391 616 418 643 418 679 c 0
EndSplineSet
EndChar

StartChar: Uhungarumlaut
Encoding: 368 368 304
Width: 722
GlyphClass: 2
Flags: MW
HStem: -10 113<294 390 294 423.5> 668 20G<142 286 286 286 599 743 743 743> 747 136<279 522 279 522 477 477 477 522 395 543>
VStem: 58 144<174.5 222 174.5 224.5>
LayerCount: 2
Fore
SplineSet
336 103 m 0
 444 103 494 148 517 264 c 2
 599 688 l 1
 743 688 l 1
 659 259 l 2
 623 76 519 -10 328 -10 c 0
 156 -10 58 70 58 210 c 0
 58 239 64 286 69 310 c 2
 142 688 l 1
 286 688 l 1
 211 292 l 2
 205 264 202 236 202 208 c 0
 202 141 252 103 336 103 c 0
346 747 m 1
 279 747 l 1
 284 762 l 1
 395 883 l 1
 522 883 l 1
 518 862 l 1
 346 747 l 1
543 747 m 1
 477 747 l 1
 477 762 l 1
 593 883 l 1
 720 883 l 1
 715 862 l 1
 543 747 l 1
EndSplineSet
EndChar

StartChar: uhungarumlaut
Encoding: 369 369 305
Width: 611
GlyphClass: 2
Flags: MW
HStem: -9 103<141.5 270.5> 0 21G<363 494 363 363> 508 20G<114 250 250 250 456 593 593 593> 578 155<199 457 199 457 396 396 396 457 329 468>
VStem: 42 138<136 137.5> 363 131<0 1.5>
LayerCount: 2
Fore
SplineSet
114 528 m 1x7c
 250 528 l 1
 192 238 l 2
 184 198 180 171 180 157 c 0
 180 115 205 94 254 94 c 0
 287 94 317 107 345 133 c 0xbc
 373 160 391 193 398 232 c 2
 456 528 l 1
 593 528 l 1
 512 113 l 2
 507 87 501 49 494 0 c 1
 363 0 l 2
 363 3 364 16 367 41 c 0x7c
 370 66 373 82 375 90 c 1
 373 90 l 1
 324 21 267 -9 191 -9 c 0xbc
 92 -9 42 40 42 129 c 0
 42 146 47 192 52 209 c 2
 114 528 l 1x7c
270 578 m 1
 199 578 l 1
 204 593 l 1
 329 733 l 1
 457 733 l 1
 452 712 l 1
 270 578 l 1
468 578 m 1
 396 578 l 1
 401 593 l 1
 527 733 l 1
 654 733 l 1
 649 712 l 1
 468 578 l 1
EndSplineSet
EndChar

StartChar: Uogonek
Encoding: 370 370 306
Width: 722
GlyphClass: 2
Flags: MW
HStem: -208 68<318.5 394> -10 15<338 418 338 423.5> -10 113<294 390 294 423.5> 668 20G<142 286 286 286 599 743 743 743>
VStem: 58 144<174.5 222 174.5 224.5> 250 97<-115.5 -96>
LayerCount: 2
Fore
SplineSet
336 103 m 0xbc
 444 103 494 148 517 264 c 2
 599 688 l 1
 743 688 l 1
 659 259 l 2
 623 76 519 -10 328 -10 c 0xdc
 156 -10 58 70 58 210 c 0
 58 239 64 286 69 310 c 2
 142 688 l 1
 286 688 l 1
 211 292 l 2
 205 264 202 236 202 208 c 0
 202 141 252 103 336 103 c 0xbc
348 -208 m 0
 289 -208 250 -175 250 -120 c 0
 250 -72 281 -28 338 5 c 1
 418 5 l 1
 379 -20 347 -67 347 -103 c 0
 347 -128 363 -140 386 -140 c 0
 402 -140 419 -136 436 -129 c 1
 426 -191 l 1
 401 -202 375 -208 348 -208 c 0
EndSplineSet
EndChar

StartChar: uogonek
Encoding: 371 371 307
Width: 611
GlyphClass: 2
Flags: MW
HStem: -208 68<351.5 426> -9 103<141.5 270.5> 0 21G<363 494 363 363> 508 20G<114 250 250 250 456 593 593 593>
VStem: 42 138<136 137.5> 283 97<-115.5 -96> 363 131<0 1.5>
LayerCount: 2
Fore
SplineSet
114 528 m 1xbc
 250 528 l 1
 192 238 l 2
 184 198 180 171 180 157 c 0
 180 115 205 94 254 94 c 0
 287 94 317 107 345 133 c 0xda
 373 160 391 193 398 232 c 2
 456 528 l 1
 593 528 l 1
 512 113 l 2
 507 87 501 49 494 0 c 1
 363 0 l 2
 363 3 364 16 367 41 c 0xba
 370 66 373 82 375 90 c 1
 373 90 l 1
 324 21 267 -9 191 -9 c 0xda
 92 -9 42 40 42 129 c 0
 42 146 47 192 52 209 c 2
 114 528 l 1xbc
381 -208 m 0xbc
 322 -208 283 -175 283 -120 c 0
 283 -72 314 -28 371 5 c 1
 451 5 l 1
 411 -20 380 -67 380 -103 c 0
 380 -128 395 -140 418 -140 c 0
 434 -140 451 -136 468 -129 c 1
 459 -191 l 1
 433 -202 407 -208 381 -208 c 0xbc
EndSplineSet
EndChar

StartChar: Wcircumflex
Encoding: 372 372 308
Width: 944
GlyphClass: 2
Flags: MW
HStem: 0 121<231 231 231 290 117 231> 545 143<517 517> 668 20G<73 210 210 210 469 624 624 624 873 1015 1015 1015> 747 14<365 365 365 445 362 365> 821 75<562 564 562 562>
VStem: 519 115
LayerCount: 2
Fore
SplineSet
1015 688 m 1xbc
 704 0 l 1
 533 0 l 1
 520 396 l 1
 518 504 l 1
 517 545 l 1xdc
 498 493 483 454 472 428 c 0
 462 403 401 260 290 0 c 1
 117 0 l 1
 73 688 l 1
 210 688 l 1
 228 290 l 2
 230 235 231 179 231 121 c 1
 259 191 l 1
 296 282 l 1
 469 688 l 1
 624 688 l 1
 644 121 l 1
 653 145 665 178 682 221 c 0
 699 264 763 419 873 688 c 1
 1015 688 l 1xbc
628 896 m 1
 724 761 l 1
 722 747 l 1
 649 747 l 1
 564 821 l 1
 562 821 l 1
 445 747 l 1
 362 747 l 1
 365 761 l 1
 517 896 l 1
 628 896 l 1
EndSplineSet
EndChar

StartChar: wcircumflex
Encoding: 373 373 309
Width: 778
GlyphClass: 2
Flags: MW
HStem: 0 21G<82 227 82 82 444 589 444 444> 0 125<181 181 181 227 82 181> 435 93<421 421> 508 20G<48 174 174 174 363 510 510 510 701 831 831 831> 578 13<261 261 261 341 258 261> 578 169<258 529 258 529 417 618 417 545>
VStem: 422 98 433 98
LayerCount: 2
Fore
SplineSet
831 528 m 1x9a
 589 0 l 1
 444 0 l 1x95
 423 322 l 1
 421 435 l 1xaa
 404 388 388 350 375 321 c 2
 227 0 l 1
 82 0 l 1
 48 528 l 1
 174 528 l 1
 181 188 l 1
 181 125 l 1
 194 158 l 1
 220 218 l 1
 363 528 l 1
 510 528 l 1x5a
 531 218 l 1
 533 125 l 1
 559 189 l 1x59
 701 528 l 1
 831 528 l 1x9a
529 747 m 1
 621 591 l 1
 618 578 l 1
 545 578 l 1x99
 464 671 l 1
 462 671 l 1
 341 578 l 1
 258 578 l 1
 261 591 l 1
 417 747 l 1
 529 747 l 1
EndSplineSet
EndChar

StartChar: Ycircumflex
Encoding: 374 374 310
Width: 667
GlyphClass: 2
Flags: MW
HStem: 0 21G<210 354 210 210> 668 20G<84 227 227 227 584 742 742 742> 747 14<233 233 233 313 231 233> 821 75<431 433 431 431>
VStem: 84 658<688 688>
LayerCount: 2
Fore
SplineSet
408 282 m 1
 354 0 l 1
 210 0 l 1
 265 282 l 1
 84 688 l 1
 227 688 l 1
 353 393 l 1
 584 688 l 1
 742 688 l 1
 408 282 l 1
497 896 m 1
 593 761 l 1
 590 747 l 1
 518 747 l 1
 433 821 l 1
 431 821 l 1
 313 747 l 1
 231 747 l 1
 233 761 l 1
 385 896 l 1
 497 896 l 1
EndSplineSet
EndChar

StartChar: ycircumflex
Encoding: 375 375 311
Width: 556
GlyphClass: 2
Flags: MW
HStem: -208 101<27.5 45.5 12.5 73> 508 20G<55 197 197 197 451 598 598 598> 578 13<143 143 143 223 141 143> 578 169<141 411 141 411 299 500 299 427>
VStem: -42 640
LayerCount: 2
Fore
SplineSet
43 -208 m 0xe8
 12 -208 -17 -205 -42 -199 c 1
 -23 -103 l 1
 -10 -106 5 -107 20 -107 c 0
 71 -107 106 -80 145 -12 c 2
 158 12 l 1
 55 528 l 1
 197 528 l 1
 231 286 l 2
 233 276 237 247 242 199 c 0
 247 151 250 126 249 123 c 2
 257 141 l 1
 325 284 l 1
 451 528 l 1
 598 528 l 1
 278 -28 l 2
 243 -82 215 -120 193 -142 c 0
 149 -187 103 -208 43 -208 c 0xe8
411 747 m 1xd8
 503 591 l 1
 500 578 l 1
 427 578 l 1xe8
 346 671 l 1
 344 671 l 1
 223 578 l 1
 141 578 l 1
 143 591 l 1
 299 747 l 1
 411 747 l 1xd8
EndSplineSet
EndChar

StartChar: Ydieresis
Encoding: 376 376 312
Width: 667
GlyphClass: 2
Flags: MW
HStem: 0 21G<196 339 196 196> 668 20G<70 212 212 212 570 728 728 728> 747 107<262 345 241 366 474 559 262 453>
VStem: 70 658<688 688>
LayerCount: 2
Fore
SplineSet
394 282 m 1
 339 0 l 1
 196 0 l 1
 250 282 l 1
 70 688 l 1
 212 688 l 1
 339 393 l 1
 570 688 l 1
 728 688 l 1
 394 282 l 1
559 747 m 1
 453 747 l 1
 474 854 l 1
 580 854 l 1
 559 747 l 1
345 747 m 1
 241 747 l 1
 262 854 l 1
 366 854 l 1
 345 747 l 1
EndSplineSet
EndChar

StartChar: Zacute
Encoding: 377 377 313
Width: 611
GlyphClass: 2
Flags: MW
HStem: 0 113<168 528> 575 113<147 449 125 642> 862 21<585 585>
VStem: -23 665
LayerCount: 2
Fore
SplineSet
550 113 m 1
 528 0 l 1
 -23 0 l 1
 -4 102 l 1
 449 575 l 1
 125 575 l 1
 147 688 l 1
 642 688 l 1
 623 588 l 1
 168 113 l 1
 550 113 l 1
396 747 m 1
 324 747 l 1
 327 762 l 1
 459 883 l 1
 589 883 l 1
 585 862 l 1
 396 747 l 1
EndSplineSet
EndChar

StartChar: zacute
Encoding: 378 378 314
Width: 500
GlyphClass: 2
Flags: MW
HStem: 0 100<176 414> 429 99<118 313 98 493> 578 155<246 505 246 505>
VStem: -5 510
LayerCount: 2
Fore
SplineSet
414 0 m 1
 -5 0 l 1
 14 97 l 1
 313 429 l 1
 98 429 l 1
 118 528 l 1
 493 528 l 1
 474 430 l 1
 176 100 l 1
 434 100 l 1
 414 0 l 1
317 578 m 1
 246 578 l 1
 249 593 l 1
 370 733 l 1
 505 733 l 1
 501 712 l 1
 317 578 l 1
EndSplineSet
EndChar

StartChar: Zdotaccent
Encoding: 379 379 315
Width: 611
GlyphClass: 2
Flags: MW
HStem: 0 113<168 528> 575 113<147 449 125 642> 752 101<341 458 321 478>
VStem: -23 665
LayerCount: 2
Fore
SplineSet
550 113 m 1
 528 0 l 1
 -23 0 l 1
 -4 102 l 1
 449 575 l 1
 125 575 l 1
 147 688 l 1
 642 688 l 1
 623 588 l 1
 168 113 l 1
 550 113 l 1
458 752 m 1
 321 752 l 1
 341 853 l 1
 478 853 l 1
 458 752 l 1
EndSplineSet
EndChar

StartChar: zdotaccent
Encoding: 380 380 316
Width: 500
GlyphClass: 2
Flags: MW
HStem: 0 100<176 414> 429 99<118 313 98 493> 624 101<273 391 253 411>
VStem: -5 498
LayerCount: 2
Fore
SplineSet
414 0 m 1
 -5 0 l 1
 14 97 l 1
 313 429 l 1
 98 429 l 1
 118 528 l 1
 493 528 l 1
 474 430 l 1
 176 100 l 1
 434 100 l 1
 414 0 l 1
391 624 m 1
 253 624 l 1
 273 725 l 1
 411 725 l 1
 391 624 l 1
EndSplineSet
EndChar

StartChar: Zcaron
Encoding: 381 381 317
Width: 611
GlyphClass: 2
Flags: MW
HStem: 0 113<168 528> 575 113<147 449 125 642> 747 75<394 396 394 440 329 396> 882 14<229 305 588 588>
VStem: -23 665
LayerCount: 2
Fore
SplineSet
550 113 m 1
 528 0 l 1
 -23 0 l 1
 -4 102 l 1
 449 575 l 1
 125 575 l 1
 147 688 l 1
 642 688 l 1
 623 588 l 1
 168 113 l 1
 550 113 l 1
588 882 m 1
 440 747 l 1
 329 747 l 1
 229 882 l 1
 231 896 l 1
 305 896 l 1
 394 822 l 1
 396 822 l 1
 509 896 l 1
 591 896 l 1
 588 882 l 1
EndSplineSet
EndChar

